<?xml version="1.0" encoding="utf-8" standalone="no"?>
<!DOCTYPE svg PUBLIC "-//W3C//DTD SVG 1.1//EN"
  "http://www.w3.org/Graphics/SVG/1.1/DTD/svg11.dtd">
<svg xmlns:xlink="http://www.w3.org/1999/xlink" width="460.8pt" height="345.6pt" viewBox="0 0 460.8 345.6" xmlns="http://www.w3.org/2000/svg" version="1.1">
 <metadata>
  <rdf:RDF xmlns:dc="http://purl.org/dc/elements/1.1/" xmlns:cc="http://creativecommons.org/ns#" xmlns:rdf="http://www.w3.org/1999/02/22-rdf-syntax-ns#">
   <cc:Work>
    <dc:type rdf:resource="http://purl.org/dc/dcmitype/StillImage"/>
    <dc:date>2024-10-23T17:44:29.300222</dc:date>
    <dc:format>image/svg+xml</dc:format>
    <dc:creator>
     <cc:Agent>
      <dc:title>Matplotlib v3.7.1, https://matplotlib.org/</dc:title>
     </cc:Agent>
    </dc:creator>
   </cc:Work>
  </rdf:RDF>
 </metadata>
 <defs>
  <style type="text/css">*{stroke-linejoin: round; stroke-linecap: butt}</style>
 </defs>
 <g id="figure_1">
  <g id="patch_1">
   <path d="M 0 345.6 
L 460.8 345.6 
L 460.8 0 
L 0 0 
z
" style="fill: #ffffff"/>
  </g>
  <g id="axes_1">
   <g id="patch_2">
    <path d="M 57.6 307.584 
L 414.72 307.584 
L 414.72 41.472 
L 57.6 41.472 
z
" style="fill: #ffffff"/>
   </g>
   <g id="matplotlib.axis_1">
    <g id="xtick_1">
     <g id="line2d_1">
      <defs>
       <path id="ma5ed880896" d="M 0 0 
L 0 3.5 
" style="stroke: #000000; stroke-width: 0.8"/>
      </defs>
      <g>
       <use xlink:href="#ma5ed880896" x="57.6" y="307.584" style="stroke: #000000; stroke-width: 0.8"/>
      </g>
     </g>
     <g id="text_1">
      <!-- 0 -->
      <g transform="translate(54.6 322.9165) scale(0.12 -0.12)">
       <defs>
        <path id="TimesNewRomanPSMT-30" d="M 231 2094 
Q 231 2819 450 3342 
Q 669 3866 1031 4122 
Q 1313 4325 1613 4325 
Q 2100 4325 2488 3828 
Q 2972 3213 2972 2159 
Q 2972 1422 2759 906 
Q 2547 391 2217 158 
Q 1888 -75 1581 -75 
Q 975 -75 572 641 
Q 231 1244 231 2094 
z
M 844 2016 
Q 844 1141 1059 588 
Q 1238 122 1591 122 
Q 1759 122 1940 273 
Q 2122 425 2216 781 
Q 2359 1319 2359 2297 
Q 2359 3022 2209 3506 
Q 2097 3866 1919 4016 
Q 1791 4119 1609 4119 
Q 1397 4119 1231 3928 
Q 1006 3669 925 3112 
Q 844 2556 844 2016 
z
" transform="scale(0.015625)"/>
       </defs>
       <use xlink:href="#TimesNewRomanPSMT-30"/>
      </g>
     </g>
    </g>
    <g id="xtick_2">
     <g id="line2d_2">
      <g>
       <use xlink:href="#ma5ed880896" x="97.28" y="307.584" style="stroke: #000000; stroke-width: 0.8"/>
      </g>
     </g>
     <g id="text_2">
      <!-- 2 -->
      <g transform="translate(94.28 322.9165) scale(0.12 -0.12)">
       <defs>
        <path id="TimesNewRomanPSMT-32" d="M 2934 816 
L 2638 0 
L 138 0 
L 138 116 
Q 1241 1122 1691 1759 
Q 2141 2397 2141 2925 
Q 2141 3328 1894 3587 
Q 1647 3847 1303 3847 
Q 991 3847 742 3664 
Q 494 3481 375 3128 
L 259 3128 
Q 338 3706 661 4015 
Q 984 4325 1469 4325 
Q 1984 4325 2329 3994 
Q 2675 3663 2675 3213 
Q 2675 2891 2525 2569 
Q 2294 2063 1775 1497 
Q 997 647 803 472 
L 1909 472 
Q 2247 472 2383 497 
Q 2519 522 2628 598 
Q 2738 675 2819 816 
L 2934 816 
z
" transform="scale(0.015625)"/>
       </defs>
       <use xlink:href="#TimesNewRomanPSMT-32"/>
      </g>
     </g>
    </g>
    <g id="xtick_3">
     <g id="line2d_3">
      <g>
       <use xlink:href="#ma5ed880896" x="136.96" y="307.584" style="stroke: #000000; stroke-width: 0.8"/>
      </g>
     </g>
     <g id="text_3">
      <!-- 4 -->
      <g transform="translate(133.96 322.9165) scale(0.12 -0.12)">
       <defs>
        <path id="TimesNewRomanPSMT-34" d="M 2978 1563 
L 2978 1119 
L 2409 1119 
L 2409 0 
L 1894 0 
L 1894 1119 
L 100 1119 
L 100 1519 
L 2066 4325 
L 2409 4325 
L 2409 1563 
L 2978 1563 
z
M 1894 1563 
L 1894 3666 
L 406 1563 
L 1894 1563 
z
" transform="scale(0.015625)"/>
       </defs>
       <use xlink:href="#TimesNewRomanPSMT-34"/>
      </g>
     </g>
    </g>
    <g id="xtick_4">
     <g id="line2d_4">
      <g>
       <use xlink:href="#ma5ed880896" x="176.64" y="307.584" style="stroke: #000000; stroke-width: 0.8"/>
      </g>
     </g>
     <g id="text_4">
      <!-- 6 -->
      <g transform="translate(173.64 322.9165) scale(0.12 -0.12)">
       <defs>
        <path id="TimesNewRomanPSMT-36" d="M 2869 4325 
L 2869 4209 
Q 2456 4169 2195 4045 
Q 1934 3922 1679 3669 
Q 1425 3416 1258 3105 
Q 1091 2794 978 2366 
Q 1428 2675 1881 2675 
Q 2316 2675 2634 2325 
Q 2953 1975 2953 1425 
Q 2953 894 2631 456 
Q 2244 -75 1606 -75 
Q 1172 -75 869 213 
Q 275 772 275 1663 
Q 275 2231 503 2743 
Q 731 3256 1154 3653 
Q 1578 4050 1965 4187 
Q 2353 4325 2688 4325 
L 2869 4325 
z
M 925 2138 
Q 869 1716 869 1456 
Q 869 1156 980 804 
Q 1091 453 1309 247 
Q 1469 100 1697 100 
Q 1969 100 2183 356 
Q 2397 613 2397 1088 
Q 2397 1622 2184 2012 
Q 1972 2403 1581 2403 
Q 1463 2403 1327 2353 
Q 1191 2303 925 2138 
z
" transform="scale(0.015625)"/>
       </defs>
       <use xlink:href="#TimesNewRomanPSMT-36"/>
      </g>
     </g>
    </g>
    <g id="xtick_5">
     <g id="line2d_5">
      <g>
       <use xlink:href="#ma5ed880896" x="216.32" y="307.584" style="stroke: #000000; stroke-width: 0.8"/>
      </g>
     </g>
     <g id="text_5">
      <!-- 8 -->
      <g transform="translate(213.32 322.9165) scale(0.12 -0.12)">
       <defs>
        <path id="TimesNewRomanPSMT-38" d="M 1228 2134 
Q 725 2547 579 2797 
Q 434 3047 434 3316 
Q 434 3728 753 4026 
Q 1072 4325 1600 4325 
Q 2113 4325 2425 4047 
Q 2738 3769 2738 3413 
Q 2738 3175 2569 2928 
Q 2400 2681 1866 2347 
Q 2416 1922 2594 1678 
Q 2831 1359 2831 1006 
Q 2831 559 2490 242 
Q 2150 -75 1597 -75 
Q 994 -75 656 303 
Q 388 606 388 966 
Q 388 1247 577 1523 
Q 766 1800 1228 2134 
z
M 1719 2469 
Q 2094 2806 2194 3001 
Q 2294 3197 2294 3444 
Q 2294 3772 2109 3958 
Q 1925 4144 1606 4144 
Q 1288 4144 1088 3959 
Q 888 3775 888 3528 
Q 888 3366 970 3203 
Q 1053 3041 1206 2894 
L 1719 2469 
z
M 1375 2016 
Q 1116 1797 991 1539 
Q 866 1281 866 981 
Q 866 578 1086 336 
Q 1306 94 1647 94 
Q 1984 94 2187 284 
Q 2391 475 2391 747 
Q 2391 972 2272 1150 
Q 2050 1481 1375 2016 
z
" transform="scale(0.015625)"/>
       </defs>
       <use xlink:href="#TimesNewRomanPSMT-38"/>
      </g>
     </g>
    </g>
    <g id="xtick_6">
     <g id="line2d_6">
      <g>
       <use xlink:href="#ma5ed880896" x="256" y="307.584" style="stroke: #000000; stroke-width: 0.8"/>
      </g>
     </g>
     <g id="text_6">
      <!-- 10 -->
      <g transform="translate(250 322.9165) scale(0.12 -0.12)">
       <defs>
        <path id="TimesNewRomanPSMT-31" d="M 750 3822 
L 1781 4325 
L 1884 4325 
L 1884 747 
Q 1884 391 1914 303 
Q 1944 216 2037 169 
Q 2131 122 2419 116 
L 2419 0 
L 825 0 
L 825 116 
Q 1125 122 1212 167 
Q 1300 213 1334 289 
Q 1369 366 1369 747 
L 1369 3034 
Q 1369 3497 1338 3628 
Q 1316 3728 1258 3775 
Q 1200 3822 1119 3822 
Q 1003 3822 797 3725 
L 750 3822 
z
" transform="scale(0.015625)"/>
       </defs>
       <use xlink:href="#TimesNewRomanPSMT-31"/>
       <use xlink:href="#TimesNewRomanPSMT-30" x="50"/>
      </g>
     </g>
    </g>
    <g id="xtick_7">
     <g id="line2d_7">
      <g>
       <use xlink:href="#ma5ed880896" x="295.68" y="307.584" style="stroke: #000000; stroke-width: 0.8"/>
      </g>
     </g>
     <g id="text_7">
      <!-- 12 -->
      <g transform="translate(289.68 322.9165) scale(0.12 -0.12)">
       <use xlink:href="#TimesNewRomanPSMT-31"/>
       <use xlink:href="#TimesNewRomanPSMT-32" x="50"/>
      </g>
     </g>
    </g>
    <g id="xtick_8">
     <g id="line2d_8">
      <g>
       <use xlink:href="#ma5ed880896" x="335.36" y="307.584" style="stroke: #000000; stroke-width: 0.8"/>
      </g>
     </g>
     <g id="text_8">
      <!-- 14 -->
      <g transform="translate(329.36 322.9165) scale(0.12 -0.12)">
       <use xlink:href="#TimesNewRomanPSMT-31"/>
       <use xlink:href="#TimesNewRomanPSMT-34" x="50"/>
      </g>
     </g>
    </g>
    <g id="xtick_9">
     <g id="line2d_9">
      <g>
       <use xlink:href="#ma5ed880896" x="375.04" y="307.584" style="stroke: #000000; stroke-width: 0.8"/>
      </g>
     </g>
     <g id="text_9">
      <!-- 16 -->
      <g transform="translate(369.04 322.9165) scale(0.12 -0.12)">
       <use xlink:href="#TimesNewRomanPSMT-31"/>
       <use xlink:href="#TimesNewRomanPSMT-36" x="50"/>
      </g>
     </g>
    </g>
    <g id="xtick_10">
     <g id="line2d_10">
      <g>
       <use xlink:href="#ma5ed880896" x="414.72" y="307.584" style="stroke: #000000; stroke-width: 0.8"/>
      </g>
     </g>
     <g id="text_10">
      <!-- 18 -->
      <g transform="translate(408.72 322.9165) scale(0.12 -0.12)">
       <use xlink:href="#TimesNewRomanPSMT-31"/>
       <use xlink:href="#TimesNewRomanPSMT-38" x="50"/>
      </g>
     </g>
    </g>
    <g id="text_11">
     <!-- time (units: $\gamma^{-1}$) -->
     <g transform="translate(194.94 340.283375) scale(0.12 -0.12)">
      <defs>
       <path id="TimesNewRomanPSMT-74" d="M 1031 3803 
L 1031 2863 
L 1700 2863 
L 1700 2644 
L 1031 2644 
L 1031 788 
Q 1031 509 1111 412 
Q 1191 316 1316 316 
Q 1419 316 1516 380 
Q 1613 444 1666 569 
L 1788 569 
Q 1678 263 1478 108 
Q 1278 -47 1066 -47 
Q 922 -47 784 33 
Q 647 113 581 261 
Q 516 409 516 719 
L 516 2644 
L 63 2644 
L 63 2747 
Q 234 2816 414 2980 
Q 594 3144 734 3369 
Q 806 3488 934 3803 
L 1031 3803 
z
" transform="scale(0.015625)"/>
       <path id="TimesNewRomanPSMT-69" d="M 928 4444 
Q 1059 4444 1151 4351 
Q 1244 4259 1244 4128 
Q 1244 3997 1151 3903 
Q 1059 3809 928 3809 
Q 797 3809 703 3903 
Q 609 3997 609 4128 
Q 609 4259 701 4351 
Q 794 4444 928 4444 
z
M 1188 2947 
L 1188 647 
Q 1188 378 1227 289 
Q 1266 200 1342 156 
Q 1419 113 1622 113 
L 1622 0 
L 231 0 
L 231 113 
Q 441 113 512 153 
Q 584 194 626 287 
Q 669 381 669 647 
L 669 1750 
Q 669 2216 641 2353 
Q 619 2453 572 2492 
Q 525 2531 444 2531 
Q 356 2531 231 2484 
L 188 2597 
L 1050 2947 
L 1188 2947 
z
" transform="scale(0.015625)"/>
       <path id="TimesNewRomanPSMT-6d" d="M 1050 2338 
Q 1363 2650 1419 2697 
Q 1559 2816 1721 2881 
Q 1884 2947 2044 2947 
Q 2313 2947 2506 2790 
Q 2700 2634 2766 2338 
Q 3088 2713 3309 2830 
Q 3531 2947 3766 2947 
Q 3994 2947 4170 2830 
Q 4347 2713 4450 2447 
Q 4519 2266 4519 1878 
L 4519 647 
Q 4519 378 4559 278 
Q 4591 209 4675 161 
Q 4759 113 4950 113 
L 4950 0 
L 3538 0 
L 3538 113 
L 3597 113 
Q 3781 113 3884 184 
Q 3956 234 3988 344 
Q 4000 397 4000 647 
L 4000 1878 
Q 4000 2228 3916 2372 
Q 3794 2572 3525 2572 
Q 3359 2572 3192 2489 
Q 3025 2406 2788 2181 
L 2781 2147 
L 2788 2013 
L 2788 647 
Q 2788 353 2820 281 
Q 2853 209 2943 161 
Q 3034 113 3253 113 
L 3253 0 
L 1806 0 
L 1806 113 
Q 2044 113 2133 169 
Q 2222 225 2256 338 
Q 2272 391 2272 647 
L 2272 1878 
Q 2272 2228 2169 2381 
Q 2031 2581 1784 2581 
Q 1616 2581 1450 2491 
Q 1191 2353 1050 2181 
L 1050 647 
Q 1050 366 1089 281 
Q 1128 197 1204 155 
Q 1281 113 1516 113 
L 1516 0 
L 100 0 
L 100 113 
Q 297 113 375 155 
Q 453 197 493 289 
Q 534 381 534 647 
L 534 1741 
Q 534 2213 506 2350 
Q 484 2453 437 2492 
Q 391 2531 309 2531 
Q 222 2531 100 2484 
L 53 2597 
L 916 2947 
L 1050 2947 
L 1050 2338 
z
" transform="scale(0.015625)"/>
       <path id="TimesNewRomanPSMT-65" d="M 681 1784 
Q 678 1147 991 784 
Q 1303 422 1725 422 
Q 2006 422 2214 576 
Q 2422 731 2563 1106 
L 2659 1044 
Q 2594 616 2278 264 
Q 1963 -88 1488 -88 
Q 972 -88 605 314 
Q 238 716 238 1394 
Q 238 2128 614 2539 
Q 991 2950 1559 2950 
Q 2041 2950 2350 2633 
Q 2659 2316 2659 1784 
L 681 1784 
z
M 681 1966 
L 2006 1966 
Q 1991 2241 1941 2353 
Q 1863 2528 1708 2628 
Q 1553 2728 1384 2728 
Q 1125 2728 920 2526 
Q 716 2325 681 1966 
z
" transform="scale(0.015625)"/>
       <path id="TimesNewRomanPSMT-20" transform="scale(0.015625)"/>
       <path id="TimesNewRomanPSMT-28" d="M 1988 -1253 
L 1988 -1369 
Q 1516 -1131 1200 -813 
Q 750 -359 506 256 
Q 263 872 263 1534 
Q 263 2503 741 3301 
Q 1219 4100 1988 4444 
L 1988 4313 
Q 1603 4100 1356 3731 
Q 1109 3363 987 2797 
Q 866 2231 866 1616 
Q 866 947 969 400 
Q 1050 -31 1165 -292 
Q 1281 -553 1476 -793 
Q 1672 -1034 1988 -1253 
z
" transform="scale(0.015625)"/>
       <path id="TimesNewRomanPSMT-75" d="M 2709 2863 
L 2709 1128 
Q 2709 631 2732 520 
Q 2756 409 2807 365 
Q 2859 322 2928 322 
Q 3025 322 3147 375 
L 3191 266 
L 2334 -88 
L 2194 -88 
L 2194 519 
Q 1825 119 1631 15 
Q 1438 -88 1222 -88 
Q 981 -88 804 51 
Q 628 191 559 409 
Q 491 628 491 1028 
L 491 2306 
Q 491 2509 447 2587 
Q 403 2666 317 2708 
Q 231 2750 6 2747 
L 6 2863 
L 1009 2863 
L 1009 947 
Q 1009 547 1148 422 
Q 1288 297 1484 297 
Q 1619 297 1789 381 
Q 1959 466 2194 703 
L 2194 2325 
Q 2194 2569 2105 2655 
Q 2016 2741 1734 2747 
L 1734 2863 
L 2709 2863 
z
" transform="scale(0.015625)"/>
       <path id="TimesNewRomanPSMT-6e" d="M 1034 2341 
Q 1538 2947 1994 2947 
Q 2228 2947 2397 2830 
Q 2566 2713 2666 2444 
Q 2734 2256 2734 1869 
L 2734 647 
Q 2734 375 2778 278 
Q 2813 200 2889 156 
Q 2966 113 3172 113 
L 3172 0 
L 1756 0 
L 1756 113 
L 1816 113 
Q 2016 113 2095 173 
Q 2175 234 2206 353 
Q 2219 400 2219 647 
L 2219 1819 
Q 2219 2209 2117 2386 
Q 2016 2563 1775 2563 
Q 1403 2563 1034 2156 
L 1034 647 
Q 1034 356 1069 288 
Q 1113 197 1189 155 
Q 1266 113 1500 113 
L 1500 0 
L 84 0 
L 84 113 
L 147 113 
Q 366 113 442 223 
Q 519 334 519 647 
L 519 1709 
Q 519 2225 495 2337 
Q 472 2450 423 2490 
Q 375 2531 294 2531 
Q 206 2531 84 2484 
L 38 2597 
L 900 2947 
L 1034 2947 
L 1034 2341 
z
" transform="scale(0.015625)"/>
       <path id="TimesNewRomanPSMT-73" d="M 2050 2947 
L 2050 1972 
L 1947 1972 
Q 1828 2431 1642 2597 
Q 1456 2763 1169 2763 
Q 950 2763 815 2647 
Q 681 2531 681 2391 
Q 681 2216 781 2091 
Q 878 1963 1175 1819 
L 1631 1597 
Q 2266 1288 2266 781 
Q 2266 391 1970 151 
Q 1675 -88 1309 -88 
Q 1047 -88 709 6 
Q 606 38 541 38 
Q 469 38 428 -44 
L 325 -44 
L 325 978 
L 428 978 
Q 516 541 762 319 
Q 1009 97 1316 97 
Q 1531 97 1667 223 
Q 1803 350 1803 528 
Q 1803 744 1651 891 
Q 1500 1038 1047 1263 
Q 594 1488 453 1669 
Q 313 1847 313 2119 
Q 313 2472 555 2709 
Q 797 2947 1181 2947 
Q 1350 2947 1591 2875 
Q 1750 2828 1803 2828 
Q 1853 2828 1881 2850 
Q 1909 2872 1947 2947 
L 2050 2947 
z
" transform="scale(0.015625)"/>
       <path id="TimesNewRomanPSMT-3a" d="M 903 2950 
Q 1047 2950 1148 2848 
Q 1250 2747 1250 2603 
Q 1250 2459 1148 2357 
Q 1047 2256 903 2256 
Q 759 2256 657 2357 
Q 556 2459 556 2603 
Q 556 2747 657 2848 
Q 759 2950 903 2950 
z
M 897 609 
Q 1044 609 1145 506 
Q 1247 403 1247 259 
Q 1247 116 1144 14 
Q 1041 -88 897 -88 
Q 753 -88 651 14 
Q 550 116 550 259 
Q 550 403 651 506 
Q 753 609 897 609 
z
" transform="scale(0.015625)"/>
       <path id="DejaVuSans-Oblique-3b3" d="M 1491 2950 
L 1838 788 
L 3456 3500 
L 4066 3500 
L 1972 0 
L 1713 -1331 
L 1138 -1331 
L 1397 0 
L 988 2613 
Q 925 3006 628 3006 
L 475 3006 
L 569 3500 
L 788 3500 
Q 1403 3500 1491 2950 
z
" transform="scale(0.015625)"/>
       <path id="DejaVuSans-2212" d="M 678 2272 
L 4684 2272 
L 4684 1741 
L 678 1741 
L 678 2272 
z
" transform="scale(0.015625)"/>
       <path id="DejaVuSans-31" d="M 794 531 
L 1825 531 
L 1825 4091 
L 703 3866 
L 703 4441 
L 1819 4666 
L 2450 4666 
L 2450 531 
L 3481 531 
L 3481 0 
L 794 0 
L 794 531 
z
" transform="scale(0.015625)"/>
       <path id="TimesNewRomanPSMT-29" d="M 144 4313 
L 144 4444 
Q 619 4209 934 3891 
Q 1381 3434 1625 2820 
Q 1869 2206 1869 1541 
Q 1869 572 1392 -226 
Q 916 -1025 144 -1369 
L 144 -1253 
Q 528 -1038 776 -670 
Q 1025 -303 1145 264 
Q 1266 831 1266 1447 
Q 1266 2113 1163 2663 
Q 1084 3094 967 3353 
Q 850 3613 656 3853 
Q 463 4094 144 4313 
z
" transform="scale(0.015625)"/>
      </defs>
      <use xlink:href="#TimesNewRomanPSMT-74" transform="translate(0 0.684375)"/>
      <use xlink:href="#TimesNewRomanPSMT-69" transform="translate(27.783203 0.684375)"/>
      <use xlink:href="#TimesNewRomanPSMT-6d" transform="translate(55.566406 0.684375)"/>
      <use xlink:href="#TimesNewRomanPSMT-65" transform="translate(133.349609 0.684375)"/>
      <use xlink:href="#TimesNewRomanPSMT-20" transform="translate(177.734375 0.684375)"/>
      <use xlink:href="#TimesNewRomanPSMT-28" transform="translate(202.734375 0.684375)"/>
      <use xlink:href="#TimesNewRomanPSMT-75" transform="translate(236.035156 0.684375)"/>
      <use xlink:href="#TimesNewRomanPSMT-6e" transform="translate(286.035156 0.684375)"/>
      <use xlink:href="#TimesNewRomanPSMT-69" transform="translate(336.035156 0.684375)"/>
      <use xlink:href="#TimesNewRomanPSMT-74" transform="translate(363.818359 0.684375)"/>
      <use xlink:href="#TimesNewRomanPSMT-73" transform="translate(391.601562 0.684375)"/>
      <use xlink:href="#TimesNewRomanPSMT-3a" transform="translate(430.517578 0.684375)"/>
      <use xlink:href="#TimesNewRomanPSMT-20" transform="translate(458.300781 0.684375)"/>
      <use xlink:href="#DejaVuSans-Oblique-3b3" transform="translate(483.300781 0.684375)"/>
      <use xlink:href="#DejaVuSans-2212" transform="translate(546.946615 38.965625) scale(0.7)"/>
      <use xlink:href="#DejaVuSans-31" transform="translate(605.598958 38.965625) scale(0.7)"/>
      <use xlink:href="#TimesNewRomanPSMT-29" transform="translate(652.869466 0.684375)"/>
     </g>
    </g>
   </g>
   <g id="matplotlib.axis_2">
    <g id="ytick_1">
     <g id="line2d_11">
      <defs>
       <path id="m776c1b87fa" d="M 0 0 
L -3.5 0 
" style="stroke: #000000; stroke-width: 0.8"/>
      </defs>
      <g>
       <use xlink:href="#m776c1b87fa" x="57.6" y="307.584" style="stroke: #000000; stroke-width: 0.8"/>
      </g>
     </g>
     <g id="text_12">
      <!-- $\mathdefault{10^{0}}$ -->
      <g transform="translate(33.68 312.900562) scale(0.12 -0.12)">
       <use xlink:href="#TimesNewRomanPSMT-31" transform="translate(0 0.582813)"/>
       <use xlink:href="#TimesNewRomanPSMT-30" transform="translate(50 0.582813)"/>
       <use xlink:href="#TimesNewRomanPSMT-30" transform="translate(101.502813 60.695312) scale(0.7)"/>
      </g>
     </g>
    </g>
    <g id="ytick_2">
     <g id="line2d_12">
      <g>
       <use xlink:href="#m776c1b87fa" x="57.6" y="272.1024" style="stroke: #000000; stroke-width: 0.8"/>
      </g>
     </g>
     <g id="text_13">
      <!-- $\mathdefault{10^{1}}$ -->
      <g transform="translate(33.68 277.418963) scale(0.12 -0.12)">
       <use xlink:href="#TimesNewRomanPSMT-31" transform="translate(0 0.582813)"/>
       <use xlink:href="#TimesNewRomanPSMT-30" transform="translate(50 0.582813)"/>
       <use xlink:href="#TimesNewRomanPSMT-31" transform="translate(101.502813 60.695312) scale(0.7)"/>
      </g>
     </g>
    </g>
    <g id="ytick_3">
     <g id="line2d_13">
      <g>
       <use xlink:href="#m776c1b87fa" x="57.6" y="236.6208" style="stroke: #000000; stroke-width: 0.8"/>
      </g>
     </g>
     <g id="text_14">
      <!-- $\mathdefault{10^{2}}$ -->
      <g transform="translate(33.68 241.937363) scale(0.12 -0.12)">
       <use xlink:href="#TimesNewRomanPSMT-31" transform="translate(0 0.582813)"/>
       <use xlink:href="#TimesNewRomanPSMT-30" transform="translate(50 0.582813)"/>
       <use xlink:href="#TimesNewRomanPSMT-32" transform="translate(101.502813 60.695312) scale(0.7)"/>
      </g>
     </g>
    </g>
    <g id="ytick_4">
     <g id="line2d_14">
      <g>
       <use xlink:href="#m776c1b87fa" x="57.6" y="201.1392" style="stroke: #000000; stroke-width: 0.8"/>
      </g>
     </g>
     <g id="text_15">
      <!-- $\mathdefault{10^{3}}$ -->
      <g transform="translate(33.68 206.455762) scale(0.12 -0.12)">
       <defs>
        <path id="TimesNewRomanPSMT-33" d="M 325 3431 
Q 506 3859 782 4092 
Q 1059 4325 1472 4325 
Q 1981 4325 2253 3994 
Q 2459 3747 2459 3466 
Q 2459 3003 1878 2509 
Q 2269 2356 2469 2072 
Q 2669 1788 2669 1403 
Q 2669 853 2319 450 
Q 1863 -75 997 -75 
Q 569 -75 414 31 
Q 259 138 259 259 
Q 259 350 332 419 
Q 406 488 509 488 
Q 588 488 669 463 
Q 722 447 909 348 
Q 1097 250 1169 231 
Q 1284 197 1416 197 
Q 1734 197 1970 444 
Q 2206 691 2206 1028 
Q 2206 1275 2097 1509 
Q 2016 1684 1919 1775 
Q 1784 1900 1550 2001 
Q 1316 2103 1072 2103 
L 972 2103 
L 972 2197 
Q 1219 2228 1467 2375 
Q 1716 2522 1828 2728 
Q 1941 2934 1941 3181 
Q 1941 3503 1739 3701 
Q 1538 3900 1238 3900 
Q 753 3900 428 3381 
L 325 3431 
z
" transform="scale(0.015625)"/>
       </defs>
       <use xlink:href="#TimesNewRomanPSMT-31" transform="translate(0 0.582813)"/>
       <use xlink:href="#TimesNewRomanPSMT-30" transform="translate(50 0.582813)"/>
       <use xlink:href="#TimesNewRomanPSMT-33" transform="translate(101.502813 60.695312) scale(0.7)"/>
      </g>
     </g>
    </g>
    <g id="ytick_5">
     <g id="line2d_15">
      <g>
       <use xlink:href="#m776c1b87fa" x="57.6" y="165.6576" style="stroke: #000000; stroke-width: 0.8"/>
      </g>
     </g>
     <g id="text_16">
      <!-- $\mathdefault{10^{4}}$ -->
      <g transform="translate(33.68 170.974163) scale(0.12 -0.12)">
       <use xlink:href="#TimesNewRomanPSMT-31" transform="translate(0 0.582813)"/>
       <use xlink:href="#TimesNewRomanPSMT-30" transform="translate(50 0.582813)"/>
       <use xlink:href="#TimesNewRomanPSMT-34" transform="translate(101.502813 60.695312) scale(0.7)"/>
      </g>
     </g>
    </g>
    <g id="ytick_6">
     <g id="line2d_16">
      <g>
       <use xlink:href="#m776c1b87fa" x="57.6" y="130.176" style="stroke: #000000; stroke-width: 0.8"/>
      </g>
     </g>
     <g id="text_17">
      <!-- $\mathdefault{10^{5}}$ -->
      <g transform="translate(33.68 135.432563) scale(0.12 -0.12)">
       <defs>
        <path id="TimesNewRomanPSMT-35" d="M 2778 4238 
L 2534 3706 
L 1259 3706 
L 981 3138 
Q 1809 3016 2294 2522 
Q 2709 2097 2709 1522 
Q 2709 1188 2573 903 
Q 2438 619 2231 419 
Q 2025 219 1772 97 
Q 1413 -75 1034 -75 
Q 653 -75 479 54 
Q 306 184 306 341 
Q 306 428 378 495 
Q 450 563 559 563 
Q 641 563 702 538 
Q 763 513 909 409 
Q 1144 247 1384 247 
Q 1750 247 2026 523 
Q 2303 800 2303 1197 
Q 2303 1581 2056 1914 
Q 1809 2247 1375 2428 
Q 1034 2569 447 2591 
L 1259 4238 
L 2778 4238 
z
" transform="scale(0.015625)"/>
       </defs>
       <use xlink:href="#TimesNewRomanPSMT-31" transform="translate(0 0.534375)"/>
       <use xlink:href="#TimesNewRomanPSMT-30" transform="translate(50 0.534375)"/>
       <use xlink:href="#TimesNewRomanPSMT-35" transform="translate(101.502813 60.646875) scale(0.7)"/>
      </g>
     </g>
    </g>
    <g id="ytick_7">
     <g id="line2d_17">
      <g>
       <use xlink:href="#m776c1b87fa" x="57.6" y="94.6944" style="stroke: #000000; stroke-width: 0.8"/>
      </g>
     </g>
     <g id="text_18">
      <!-- $\mathdefault{10^{6}}$ -->
      <g transform="translate(33.68 100.010963) scale(0.12 -0.12)">
       <use xlink:href="#TimesNewRomanPSMT-31" transform="translate(0 0.582813)"/>
       <use xlink:href="#TimesNewRomanPSMT-30" transform="translate(50 0.582813)"/>
       <use xlink:href="#TimesNewRomanPSMT-36" transform="translate(101.502813 60.695312) scale(0.7)"/>
      </g>
     </g>
    </g>
    <g id="ytick_8">
     <g id="line2d_18">
      <g>
       <use xlink:href="#m776c1b87fa" x="57.6" y="59.2128" style="stroke: #000000; stroke-width: 0.8"/>
      </g>
     </g>
     <g id="text_19">
      <!-- $\mathdefault{10^{7}}$ -->
      <g transform="translate(33.68 64.469362) scale(0.12 -0.12)">
       <defs>
        <path id="TimesNewRomanPSMT-37" d="M 644 4238 
L 2916 4238 
L 2916 4119 
L 1503 -88 
L 1153 -88 
L 2419 3728 
L 1253 3728 
Q 900 3728 750 3644 
Q 488 3500 328 3200 
L 238 3234 
L 644 4238 
z
" transform="scale(0.015625)"/>
       </defs>
       <use xlink:href="#TimesNewRomanPSMT-31" transform="translate(0 0.534375)"/>
       <use xlink:href="#TimesNewRomanPSMT-30" transform="translate(50 0.534375)"/>
       <use xlink:href="#TimesNewRomanPSMT-37" transform="translate(101.502813 60.646875) scale(0.7)"/>
      </g>
     </g>
    </g>
    <g id="ytick_9">
     <g id="line2d_19">
      <defs>
       <path id="m13013c6b22" d="M 0 0 
L -2 0 
" style="stroke: #000000; stroke-width: 0.6"/>
      </defs>
      <g>
       <use xlink:href="#m13013c6b22" x="57.6" y="296.902974" style="stroke: #000000; stroke-width: 0.6"/>
      </g>
     </g>
    </g>
    <g id="ytick_10">
     <g id="line2d_20">
      <g>
       <use xlink:href="#m13013c6b22" x="57.6" y="290.654974" style="stroke: #000000; stroke-width: 0.6"/>
      </g>
     </g>
    </g>
    <g id="ytick_11">
     <g id="line2d_21">
      <g>
       <use xlink:href="#m13013c6b22" x="57.6" y="286.221948" style="stroke: #000000; stroke-width: 0.6"/>
      </g>
     </g>
    </g>
    <g id="ytick_12">
     <g id="line2d_22">
      <g>
       <use xlink:href="#m13013c6b22" x="57.6" y="282.783426" style="stroke: #000000; stroke-width: 0.6"/>
      </g>
     </g>
    </g>
    <g id="ytick_13">
     <g id="line2d_23">
      <g>
       <use xlink:href="#m13013c6b22" x="57.6" y="279.973949" style="stroke: #000000; stroke-width: 0.6"/>
      </g>
     </g>
    </g>
    <g id="ytick_14">
     <g id="line2d_24">
      <g>
       <use xlink:href="#m13013c6b22" x="57.6" y="277.598569" style="stroke: #000000; stroke-width: 0.6"/>
      </g>
     </g>
    </g>
    <g id="ytick_15">
     <g id="line2d_25">
      <g>
       <use xlink:href="#m13013c6b22" x="57.6" y="275.540922" style="stroke: #000000; stroke-width: 0.6"/>
      </g>
     </g>
    </g>
    <g id="ytick_16">
     <g id="line2d_26">
      <g>
       <use xlink:href="#m13013c6b22" x="57.6" y="273.725949" style="stroke: #000000; stroke-width: 0.6"/>
      </g>
     </g>
    </g>
    <g id="ytick_17">
     <g id="line2d_27">
      <g>
       <use xlink:href="#m13013c6b22" x="57.6" y="261.421374" style="stroke: #000000; stroke-width: 0.6"/>
      </g>
     </g>
    </g>
    <g id="ytick_18">
     <g id="line2d_28">
      <g>
       <use xlink:href="#m13013c6b22" x="57.6" y="255.173374" style="stroke: #000000; stroke-width: 0.6"/>
      </g>
     </g>
    </g>
    <g id="ytick_19">
     <g id="line2d_29">
      <g>
       <use xlink:href="#m13013c6b22" x="57.6" y="250.740348" style="stroke: #000000; stroke-width: 0.6"/>
      </g>
     </g>
    </g>
    <g id="ytick_20">
     <g id="line2d_30">
      <g>
       <use xlink:href="#m13013c6b22" x="57.6" y="247.301826" style="stroke: #000000; stroke-width: 0.6"/>
      </g>
     </g>
    </g>
    <g id="ytick_21">
     <g id="line2d_31">
      <g>
       <use xlink:href="#m13013c6b22" x="57.6" y="244.492349" style="stroke: #000000; stroke-width: 0.6"/>
      </g>
     </g>
    </g>
    <g id="ytick_22">
     <g id="line2d_32">
      <g>
       <use xlink:href="#m13013c6b22" x="57.6" y="242.116969" style="stroke: #000000; stroke-width: 0.6"/>
      </g>
     </g>
    </g>
    <g id="ytick_23">
     <g id="line2d_33">
      <g>
       <use xlink:href="#m13013c6b22" x="57.6" y="240.059322" style="stroke: #000000; stroke-width: 0.6"/>
      </g>
     </g>
    </g>
    <g id="ytick_24">
     <g id="line2d_34">
      <g>
       <use xlink:href="#m13013c6b22" x="57.6" y="238.244349" style="stroke: #000000; stroke-width: 0.6"/>
      </g>
     </g>
    </g>
    <g id="ytick_25">
     <g id="line2d_35">
      <g>
       <use xlink:href="#m13013c6b22" x="57.6" y="225.939774" style="stroke: #000000; stroke-width: 0.6"/>
      </g>
     </g>
    </g>
    <g id="ytick_26">
     <g id="line2d_36">
      <g>
       <use xlink:href="#m13013c6b22" x="57.6" y="219.691774" style="stroke: #000000; stroke-width: 0.6"/>
      </g>
     </g>
    </g>
    <g id="ytick_27">
     <g id="line2d_37">
      <g>
       <use xlink:href="#m13013c6b22" x="57.6" y="215.258748" style="stroke: #000000; stroke-width: 0.6"/>
      </g>
     </g>
    </g>
    <g id="ytick_28">
     <g id="line2d_38">
      <g>
       <use xlink:href="#m13013c6b22" x="57.6" y="211.820226" style="stroke: #000000; stroke-width: 0.6"/>
      </g>
     </g>
    </g>
    <g id="ytick_29">
     <g id="line2d_39">
      <g>
       <use xlink:href="#m13013c6b22" x="57.6" y="209.010749" style="stroke: #000000; stroke-width: 0.6"/>
      </g>
     </g>
    </g>
    <g id="ytick_30">
     <g id="line2d_40">
      <g>
       <use xlink:href="#m13013c6b22" x="57.6" y="206.635369" style="stroke: #000000; stroke-width: 0.6"/>
      </g>
     </g>
    </g>
    <g id="ytick_31">
     <g id="line2d_41">
      <g>
       <use xlink:href="#m13013c6b22" x="57.6" y="204.577722" style="stroke: #000000; stroke-width: 0.6"/>
      </g>
     </g>
    </g>
    <g id="ytick_32">
     <g id="line2d_42">
      <g>
       <use xlink:href="#m13013c6b22" x="57.6" y="202.762749" style="stroke: #000000; stroke-width: 0.6"/>
      </g>
     </g>
    </g>
    <g id="ytick_33">
     <g id="line2d_43">
      <g>
       <use xlink:href="#m13013c6b22" x="57.6" y="190.458174" style="stroke: #000000; stroke-width: 0.6"/>
      </g>
     </g>
    </g>
    <g id="ytick_34">
     <g id="line2d_44">
      <g>
       <use xlink:href="#m13013c6b22" x="57.6" y="184.210174" style="stroke: #000000; stroke-width: 0.6"/>
      </g>
     </g>
    </g>
    <g id="ytick_35">
     <g id="line2d_45">
      <g>
       <use xlink:href="#m13013c6b22" x="57.6" y="179.777148" style="stroke: #000000; stroke-width: 0.6"/>
      </g>
     </g>
    </g>
    <g id="ytick_36">
     <g id="line2d_46">
      <g>
       <use xlink:href="#m13013c6b22" x="57.6" y="176.338626" style="stroke: #000000; stroke-width: 0.6"/>
      </g>
     </g>
    </g>
    <g id="ytick_37">
     <g id="line2d_47">
      <g>
       <use xlink:href="#m13013c6b22" x="57.6" y="173.529149" style="stroke: #000000; stroke-width: 0.6"/>
      </g>
     </g>
    </g>
    <g id="ytick_38">
     <g id="line2d_48">
      <g>
       <use xlink:href="#m13013c6b22" x="57.6" y="171.153769" style="stroke: #000000; stroke-width: 0.6"/>
      </g>
     </g>
    </g>
    <g id="ytick_39">
     <g id="line2d_49">
      <g>
       <use xlink:href="#m13013c6b22" x="57.6" y="169.096122" style="stroke: #000000; stroke-width: 0.6"/>
      </g>
     </g>
    </g>
    <g id="ytick_40">
     <g id="line2d_50">
      <g>
       <use xlink:href="#m13013c6b22" x="57.6" y="167.281149" style="stroke: #000000; stroke-width: 0.6"/>
      </g>
     </g>
    </g>
    <g id="ytick_41">
     <g id="line2d_51">
      <g>
       <use xlink:href="#m13013c6b22" x="57.6" y="154.976574" style="stroke: #000000; stroke-width: 0.6"/>
      </g>
     </g>
    </g>
    <g id="ytick_42">
     <g id="line2d_52">
      <g>
       <use xlink:href="#m13013c6b22" x="57.6" y="148.728574" style="stroke: #000000; stroke-width: 0.6"/>
      </g>
     </g>
    </g>
    <g id="ytick_43">
     <g id="line2d_53">
      <g>
       <use xlink:href="#m13013c6b22" x="57.6" y="144.295548" style="stroke: #000000; stroke-width: 0.6"/>
      </g>
     </g>
    </g>
    <g id="ytick_44">
     <g id="line2d_54">
      <g>
       <use xlink:href="#m13013c6b22" x="57.6" y="140.857026" style="stroke: #000000; stroke-width: 0.6"/>
      </g>
     </g>
    </g>
    <g id="ytick_45">
     <g id="line2d_55">
      <g>
       <use xlink:href="#m13013c6b22" x="57.6" y="138.047549" style="stroke: #000000; stroke-width: 0.6"/>
      </g>
     </g>
    </g>
    <g id="ytick_46">
     <g id="line2d_56">
      <g>
       <use xlink:href="#m13013c6b22" x="57.6" y="135.672169" style="stroke: #000000; stroke-width: 0.6"/>
      </g>
     </g>
    </g>
    <g id="ytick_47">
     <g id="line2d_57">
      <g>
       <use xlink:href="#m13013c6b22" x="57.6" y="133.614522" style="stroke: #000000; stroke-width: 0.6"/>
      </g>
     </g>
    </g>
    <g id="ytick_48">
     <g id="line2d_58">
      <g>
       <use xlink:href="#m13013c6b22" x="57.6" y="131.799549" style="stroke: #000000; stroke-width: 0.6"/>
      </g>
     </g>
    </g>
    <g id="ytick_49">
     <g id="line2d_59">
      <g>
       <use xlink:href="#m13013c6b22" x="57.6" y="119.494974" style="stroke: #000000; stroke-width: 0.6"/>
      </g>
     </g>
    </g>
    <g id="ytick_50">
     <g id="line2d_60">
      <g>
       <use xlink:href="#m13013c6b22" x="57.6" y="113.246974" style="stroke: #000000; stroke-width: 0.6"/>
      </g>
     </g>
    </g>
    <g id="ytick_51">
     <g id="line2d_61">
      <g>
       <use xlink:href="#m13013c6b22" x="57.6" y="108.813948" style="stroke: #000000; stroke-width: 0.6"/>
      </g>
     </g>
    </g>
    <g id="ytick_52">
     <g id="line2d_62">
      <g>
       <use xlink:href="#m13013c6b22" x="57.6" y="105.375426" style="stroke: #000000; stroke-width: 0.6"/>
      </g>
     </g>
    </g>
    <g id="ytick_53">
     <g id="line2d_63">
      <g>
       <use xlink:href="#m13013c6b22" x="57.6" y="102.565949" style="stroke: #000000; stroke-width: 0.6"/>
      </g>
     </g>
    </g>
    <g id="ytick_54">
     <g id="line2d_64">
      <g>
       <use xlink:href="#m13013c6b22" x="57.6" y="100.190569" style="stroke: #000000; stroke-width: 0.6"/>
      </g>
     </g>
    </g>
    <g id="ytick_55">
     <g id="line2d_65">
      <g>
       <use xlink:href="#m13013c6b22" x="57.6" y="98.132922" style="stroke: #000000; stroke-width: 0.6"/>
      </g>
     </g>
    </g>
    <g id="ytick_56">
     <g id="line2d_66">
      <g>
       <use xlink:href="#m13013c6b22" x="57.6" y="96.317949" style="stroke: #000000; stroke-width: 0.6"/>
      </g>
     </g>
    </g>
    <g id="ytick_57">
     <g id="line2d_67">
      <g>
       <use xlink:href="#m13013c6b22" x="57.6" y="84.013374" style="stroke: #000000; stroke-width: 0.6"/>
      </g>
     </g>
    </g>
    <g id="ytick_58">
     <g id="line2d_68">
      <g>
       <use xlink:href="#m13013c6b22" x="57.6" y="77.765374" style="stroke: #000000; stroke-width: 0.6"/>
      </g>
     </g>
    </g>
    <g id="ytick_59">
     <g id="line2d_69">
      <g>
       <use xlink:href="#m13013c6b22" x="57.6" y="73.332348" style="stroke: #000000; stroke-width: 0.6"/>
      </g>
     </g>
    </g>
    <g id="ytick_60">
     <g id="line2d_70">
      <g>
       <use xlink:href="#m13013c6b22" x="57.6" y="69.893826" style="stroke: #000000; stroke-width: 0.6"/>
      </g>
     </g>
    </g>
    <g id="ytick_61">
     <g id="line2d_71">
      <g>
       <use xlink:href="#m13013c6b22" x="57.6" y="67.084349" style="stroke: #000000; stroke-width: 0.6"/>
      </g>
     </g>
    </g>
    <g id="ytick_62">
     <g id="line2d_72">
      <g>
       <use xlink:href="#m13013c6b22" x="57.6" y="64.708969" style="stroke: #000000; stroke-width: 0.6"/>
      </g>
     </g>
    </g>
    <g id="ytick_63">
     <g id="line2d_73">
      <g>
       <use xlink:href="#m13013c6b22" x="57.6" y="62.651322" style="stroke: #000000; stroke-width: 0.6"/>
      </g>
     </g>
    </g>
    <g id="ytick_64">
     <g id="line2d_74">
      <g>
       <use xlink:href="#m13013c6b22" x="57.6" y="60.836349" style="stroke: #000000; stroke-width: 0.6"/>
      </g>
     </g>
    </g>
    <g id="ytick_65">
     <g id="line2d_75">
      <g>
       <use xlink:href="#m13013c6b22" x="57.6" y="48.531774" style="stroke: #000000; stroke-width: 0.6"/>
      </g>
     </g>
    </g>
    <g id="ytick_66">
     <g id="line2d_76">
      <g>
       <use xlink:href="#m13013c6b22" x="57.6" y="42.283774" style="stroke: #000000; stroke-width: 0.6"/>
      </g>
     </g>
    </g>
    <g id="text_20">
     <!-- infected number, $N$ -->
     <g transform="translate(27.113125 221.208) rotate(-90) scale(0.12 -0.12)">
      <defs>
       <path id="TimesNewRomanPSMT-66" d="M 1319 2638 
L 1319 756 
Q 1319 356 1406 250 
Q 1522 113 1716 113 
L 1975 113 
L 1975 0 
L 266 0 
L 266 113 
L 394 113 
Q 519 113 622 175 
Q 725 238 764 344 
Q 803 450 803 756 
L 803 2638 
L 247 2638 
L 247 2863 
L 803 2863 
L 803 3050 
Q 803 3478 940 3775 
Q 1078 4072 1361 4255 
Q 1644 4438 1997 4438 
Q 2325 4438 2600 4225 
Q 2781 4084 2781 3909 
Q 2781 3816 2700 3733 
Q 2619 3650 2525 3650 
Q 2453 3650 2373 3701 
Q 2294 3753 2178 3923 
Q 2063 4094 1966 4153 
Q 1869 4213 1750 4213 
Q 1606 4213 1506 4136 
Q 1406 4059 1362 3898 
Q 1319 3738 1319 3069 
L 1319 2863 
L 2056 2863 
L 2056 2638 
L 1319 2638 
z
" transform="scale(0.015625)"/>
       <path id="TimesNewRomanPSMT-63" d="M 2631 1088 
Q 2516 522 2178 217 
Q 1841 -88 1431 -88 
Q 944 -88 581 321 
Q 219 731 219 1428 
Q 219 2103 620 2525 
Q 1022 2947 1584 2947 
Q 2006 2947 2278 2723 
Q 2550 2500 2550 2259 
Q 2550 2141 2473 2067 
Q 2397 1994 2259 1994 
Q 2075 1994 1981 2113 
Q 1928 2178 1911 2362 
Q 1894 2547 1784 2644 
Q 1675 2738 1481 2738 
Q 1169 2738 978 2506 
Q 725 2200 725 1697 
Q 725 1184 976 792 
Q 1228 400 1656 400 
Q 1963 400 2206 609 
Q 2378 753 2541 1131 
L 2631 1088 
z
" transform="scale(0.015625)"/>
       <path id="TimesNewRomanPSMT-64" d="M 2222 322 
Q 2013 103 1813 7 
Q 1613 -88 1381 -88 
Q 913 -88 563 304 
Q 213 697 213 1313 
Q 213 1928 600 2439 
Q 988 2950 1597 2950 
Q 1975 2950 2222 2709 
L 2222 3238 
Q 2222 3728 2198 3840 
Q 2175 3953 2125 3993 
Q 2075 4034 2000 4034 
Q 1919 4034 1784 3984 
L 1744 4094 
L 2597 4444 
L 2738 4444 
L 2738 1134 
Q 2738 631 2761 520 
Q 2784 409 2836 365 
Q 2888 322 2956 322 
Q 3041 322 3181 375 
L 3216 266 
L 2366 -88 
L 2222 -88 
L 2222 322 
z
M 2222 541 
L 2222 2016 
Q 2203 2228 2109 2403 
Q 2016 2578 1861 2667 
Q 1706 2756 1559 2756 
Q 1284 2756 1069 2509 
Q 784 2184 784 1559 
Q 784 928 1059 592 
Q 1334 256 1672 256 
Q 1956 256 2222 541 
z
" transform="scale(0.015625)"/>
       <path id="TimesNewRomanPSMT-62" d="M 984 2369 
Q 1400 2947 1881 2947 
Q 2322 2947 2650 2570 
Q 2978 2194 2978 1541 
Q 2978 778 2472 313 
Q 2038 -88 1503 -88 
Q 1253 -88 995 3 
Q 738 94 469 275 
L 469 3241 
Q 469 3728 445 3840 
Q 422 3953 372 3993 
Q 322 4034 247 4034 
Q 159 4034 28 3984 
L -16 4094 
L 844 4444 
L 984 4444 
L 984 2369 
z
M 984 2169 
L 984 456 
Q 1144 300 1314 220 
Q 1484 141 1663 141 
Q 1947 141 2192 453 
Q 2438 766 2438 1363 
Q 2438 1913 2192 2208 
Q 1947 2503 1634 2503 
Q 1469 2503 1303 2419 
Q 1178 2356 984 2169 
z
" transform="scale(0.015625)"/>
       <path id="TimesNewRomanPSMT-72" d="M 1038 2947 
L 1038 2303 
Q 1397 2947 1775 2947 
Q 1947 2947 2059 2842 
Q 2172 2738 2172 2600 
Q 2172 2478 2090 2393 
Q 2009 2309 1897 2309 
Q 1788 2309 1652 2417 
Q 1516 2525 1450 2525 
Q 1394 2525 1328 2463 
Q 1188 2334 1038 2041 
L 1038 669 
Q 1038 431 1097 309 
Q 1138 225 1241 169 
Q 1344 113 1538 113 
L 1538 0 
L 72 0 
L 72 113 
Q 291 113 397 181 
Q 475 231 506 341 
Q 522 394 522 644 
L 522 1753 
Q 522 2253 501 2348 
Q 481 2444 426 2487 
Q 372 2531 291 2531 
Q 194 2531 72 2484 
L 41 2597 
L 906 2947 
L 1038 2947 
z
" transform="scale(0.015625)"/>
       <path id="TimesNewRomanPSMT-2c" d="M 344 -1066 
L 344 -928 
Q 666 -822 842 -598 
Q 1019 -375 1019 -125 
Q 1019 -66 991 -25 
Q 969 3 947 3 
Q 913 3 797 -59 
Q 741 -88 678 -88 
Q 525 -88 434 3 
Q 344 94 344 253 
Q 344 406 461 515 
Q 578 625 747 625 
Q 953 625 1114 445 
Q 1275 266 1275 -31 
Q 1275 -353 1051 -629 
Q 828 -906 344 -1066 
z
" transform="scale(0.015625)"/>
       <path id="DejaVuSans-Oblique-4e" d="M 1081 4666 
L 1931 4666 
L 3219 666 
L 4000 4666 
L 4616 4666 
L 3706 0 
L 2853 0 
L 1569 4025 
L 788 0 
L 172 0 
L 1081 4666 
z
" transform="scale(0.015625)"/>
      </defs>
      <use xlink:href="#TimesNewRomanPSMT-69" transform="translate(0 0.09375)"/>
      <use xlink:href="#TimesNewRomanPSMT-6e" transform="translate(27.783203 0.09375)"/>
      <use xlink:href="#TimesNewRomanPSMT-66" transform="translate(77.783203 0.09375)"/>
      <use xlink:href="#TimesNewRomanPSMT-65" transform="translate(111.083984 0.09375)"/>
      <use xlink:href="#TimesNewRomanPSMT-63" transform="translate(155.46875 0.09375)"/>
      <use xlink:href="#TimesNewRomanPSMT-74" transform="translate(199.853516 0.09375)"/>
      <use xlink:href="#TimesNewRomanPSMT-65" transform="translate(227.636719 0.09375)"/>
      <use xlink:href="#TimesNewRomanPSMT-64" transform="translate(272.021484 0.09375)"/>
      <use xlink:href="#TimesNewRomanPSMT-20" transform="translate(322.021484 0.09375)"/>
      <use xlink:href="#TimesNewRomanPSMT-6e" transform="translate(347.021484 0.09375)"/>
      <use xlink:href="#TimesNewRomanPSMT-75" transform="translate(397.021484 0.09375)"/>
      <use xlink:href="#TimesNewRomanPSMT-6d" transform="translate(447.021484 0.09375)"/>
      <use xlink:href="#TimesNewRomanPSMT-62" transform="translate(524.804688 0.09375)"/>
      <use xlink:href="#TimesNewRomanPSMT-65" transform="translate(574.804688 0.09375)"/>
      <use xlink:href="#TimesNewRomanPSMT-72" transform="translate(619.189453 0.09375)"/>
      <use xlink:href="#TimesNewRomanPSMT-2c" transform="translate(652.490234 0.09375)"/>
      <use xlink:href="#TimesNewRomanPSMT-20" transform="translate(677.490234 0.09375)"/>
      <use xlink:href="#DejaVuSans-Oblique-4e" transform="translate(702.490234 0.09375)"/>
     </g>
    </g>
   </g>
   <g id="line2d_77">
    <path d="M 57.6 236.6208 
L 58.592 235.949208 
L 59.584 234.161234 
L 60.576 233.234726 
L 61.568 231.022898 
L 62.56 229.815808 
L 63.552 228.118627 
L 65.536 224.073268 
L 66.528 222.390429 
L 67.52 221.165134 
L 68.512 219.72132 
L 69.504 219.318278 
L 70.496 217.911645 
L 71.488 216.1192 
L 73.472 214.655147 
L 75.456 211.954693 
L 76.448 210.786571 
L 77.44 209.376787 
L 79.424 207.767981 
L 80.416 206.165549 
L 81.408 205.543973 
L 82.4 204.648991 
L 85.376 201.234006 
L 88.352 198.435554 
L 90.336 196.01028 
L 91.328 194.791409 
L 92.32 193.831432 
L 94.304 191.608615 
L 96.288 189.570317 
L 101.248 184.226411 
L 102.24 183.121387 
L 103.232 182.234659 
L 106.208 178.743358 
L 108.192 176.535562 
L 109.184 175.573686 
L 114.144 170.058533 
L 115.136 169.048382 
L 124.064 158.646813 
L 127.04 155.392091 
L 132 149.947664 
L 135.968 145.670058 
L 137.952 143.404266 
L 143.904 136.959859 
L 152.832 127.225394 
L 165.728 114.066382 
L 171.68 108.45909 
L 176.64 104.184974 
L 180.608 101.0402 
L 184.576 98.243033 
L 187.552 96.398373 
L 190.528 94.770787 
L 193.504 93.382752 
L 196.48 92.217516 
L 199.456 91.300885 
L 202.432 90.619663 
L 205.408 90.142154 
L 208.384 89.893221 
L 211.36 89.875437 
L 214.336 90.049917 
L 218.304 90.533263 
L 222.272 91.312573 
L 226.24 92.289396 
L 230.208 93.48974 
L 236.16 95.58716 
L 241.12 97.553829 
L 248.064 100.557685 
L 256 104.269241 
L 264.928 108.669641 
L 292.704 123.195993 
L 298.656 126.360699 
L 307.584 131.140237 
L 329.408 142.836639 
L 331.392 143.868476 
L 335.36 145.827662 
L 339.328 147.90758 
L 348.256 152.556485 
L 355.2 156.011523 
L 365.12 161.240099 
L 367.104 162.180708 
L 369.088 163.234861 
L 380.992 169.553271 
L 383.968 170.841395 
L 390.912 174.146467 
L 391.904 174.845585 
L 392.896 175.380542 
L 393.888 175.788551 
L 394.88 176.443529 
L 396.864 177.37702 
L 397.856 178.026909 
L 398.848 178.427408 
L 399.84 179.060969 
L 400.832 179.33985 
L 401.824 179.757734 
L 403.808 180.749466 
L 404.8 181.012666 
L 406.784 181.844738 
L 408.768 182.851468 
L 409.76 183.225837 
L 415.712 186.570826 
L 415.712 186.570826 
" clip-path="url(#p5f327e9ae1)" style="fill: none; stroke: #0000ff; stroke-width: 2; stroke-linecap: square"/>
   </g>
   <g id="line2d_78">
    <path d="M 68.270066 346.6 
L 68.512 337.835738 
L 68.767041 346.6 
M 72.568216 346.6 
L 73.472 327.256165 
L 74.464 329.958911 
L 75.456 338.538915 
L 76.448 327.131277 
L 77.618918 346.6 
M 79.362307 346.6 
L 79.424 345.630373 
L 79.497192 346.6 
M 81.084767 346.6 
L 81.408 340.716849 
L 82.4 332.142654 
L 82.998555 346.6 
M 83.850804 346.6 
L 84.384 335.555951 
L 85.376 321.887557 
L 87.36 300.84565 
L 88.352 298.111521 
L 89.344 298.414712 
L 90.336 300.18162 
L 91.328 295.929047 
L 92.32 292.925327 
L 93.312 292.9556 
L 94.304 301.055756 
L 95.296 299.422881 
L 96.288 293.030068 
L 97.28 295.31173 
L 98.272 295.805153 
L 99.264 283.548518 
L 100.256 282.182573 
L 101.248 291.815973 
L 102.24 291.196435 
L 103.232 287.562808 
L 104.224 288.174438 
L 105.216 287.695012 
L 106.208 293.122639 
L 107.2 289.501523 
L 108.192 282.47479 
L 109.184 276.81927 
L 110.176 272.410194 
L 111.168 269.616623 
L 112.16 269.269518 
L 113.152 267.132107 
L 114.144 264.503076 
L 115.136 265.072975 
L 116.128 267.795214 
L 117.12 263.237473 
L 118.112 259.518297 
L 119.104 257.559106 
L 120.096 257.094195 
L 121.088 257.442707 
L 122.08 255.068247 
L 123.072 253.613314 
L 124.064 250.426904 
L 125.056 248.965851 
L 126.048 250.13696 
L 128.032 248.070633 
L 129.024 248.689013 
L 130.016 248.087031 
L 131.008 247.263357 
L 132 245.696451 
L 132.992 245.68448 
L 133.984 244.221681 
L 134.976 241.699836 
L 135.968 239.953731 
L 136.96 237.79506 
L 139.936 235.094409 
L 140.928 233.344705 
L 142.912 231.918132 
L 143.904 230.004171 
L 145.888 227.25737 
L 146.88 225.559419 
L 147.872 224.161568 
L 148.864 222.971944 
L 150.848 219.507314 
L 151.84 218.735218 
L 155.808 213.042311 
L 159.776 208.807844 
L 163.744 203.046602 
L 164.736 202.041962 
L 165.728 201.417113 
L 166.72 200.214946 
L 168.704 197.472307 
L 170.688 195.030704 
L 172.672 193.055931 
L 175.648 189.448502 
L 176.64 187.93566 
L 179.616 184.127536 
L 181.6 181.558642 
L 183.584 179.312842 
L 197.472 162.838645 
L 198.464 161.781941 
L 201.44 158.226045 
L 219.296 137.900225 
L 227.232 129.345745 
L 233.184 122.957902 
L 242.112 113.886772 
L 246.08 110.088829 
L 250.048 106.500409 
L 255.008 102.334499 
L 258.976 99.313325 
L 262.944 96.661031 
L 265.92 94.891914 
L 268.896 93.381218 
L 271.872 92.107124 
L 274.848 91.073394 
L 277.824 90.293144 
L 280.8 89.737704 
L 283.776 89.422181 
L 286.752 89.314498 
L 290.72 89.488869 
L 293.696 89.835942 
L 297.664 90.539909 
L 301.632 91.460986 
L 306.592 92.95115 
L 311.552 94.664526 
L 317.504 96.966741 
L 325.44 100.430938 
L 333.376 104.203269 
L 345.28 110.097466 
L 369.088 122.497554 
L 390.912 134.244116 
L 396.864 137.535694 
L 402.816 140.808295 
L 405.792 142.358741 
L 412.736 146.125637 
L 415.712 147.676472 
L 415.712 147.676472 
" clip-path="url(#p5f327e9ae1)" style="fill: none; stroke: #008000; stroke-width: 2; stroke-linecap: square"/>
   </g>
   <g id="line2d_79">
    <path d="M 210.368 307.584 
L 210.368 41.472 
" clip-path="url(#p5f327e9ae1)" style="fill: none; stroke-dasharray: 7.4,3.2; stroke-dashoffset: 0; stroke: #0000ff; stroke-width: 2"/>
   </g>
   <g id="line2d_80">
    <path d="M 286.752 307.584 
L 286.752 41.472 
" clip-path="url(#p5f327e9ae1)" style="fill: none; stroke-dasharray: 7.4,3.2; stroke-dashoffset: 0; stroke: #008000; stroke-width: 2"/>
   </g>
   <g id="patch_3">
    <path d="M 57.6 307.584 
L 57.6 41.472 
" style="fill: none; stroke: #000000; stroke-width: 0.8; stroke-linejoin: miter; stroke-linecap: square"/>
   </g>
   <g id="patch_4">
    <path d="M 414.72 307.584 
L 414.72 41.472 
" style="fill: none; stroke: #000000; stroke-width: 0.8; stroke-linejoin: miter; stroke-linecap: square"/>
   </g>
   <g id="patch_5">
    <path d="M 57.6 307.584 
L 414.72 307.584 
" style="fill: none; stroke: #000000; stroke-width: 0.8; stroke-linejoin: miter; stroke-linecap: square"/>
   </g>
   <g id="patch_6">
    <path d="M 57.6 41.472 
L 414.72 41.472 
" style="fill: none; stroke: #000000; stroke-width: 0.8; stroke-linejoin: miter; stroke-linecap: square"/>
   </g>
   <g id="patch_7">
    <path d="M 283.633921 77.881642 
Q 248.561056 77.881642 213.48819 77.881642 
" style="fill: none; stroke: #000000; stroke-linecap: round"/>
    <path d="M 278.833921 75.481642 
L 283.633921 77.881642 
L 278.833921 80.281642 
" style="fill: none; stroke: #000000; stroke-linecap: round"/>
    <path d="M 218.28819 80.281642 
L 213.48819 77.881642 
L 218.28819 75.481642 
" style="fill: none; stroke: #000000; stroke-linecap: round"/>
   </g>
   <g id="text_21">
    <!-- $\Delta T$ -->
    <g transform="translate(240.76 70.010094) scale(0.12 -0.12)">
     <defs>
      <path id="DejaVuSans-394" d="M 2188 4044 
L 906 525 
L 3472 525 
L 2188 4044 
z
M 50 0 
L 1831 4666 
L 2547 4666 
L 4325 0 
L 50 0 
z
" transform="scale(0.015625)"/>
      <path id="DejaVuSans-Oblique-54" d="M 378 4666 
L 4325 4666 
L 4225 4134 
L 2559 4134 
L 1759 0 
L 1125 0 
L 1925 4134 
L 275 4134 
L 378 4666 
z
" transform="scale(0.015625)"/>
     </defs>
     <use xlink:href="#DejaVuSans-394" transform="translate(0 0.09375)"/>
     <use xlink:href="#DejaVuSans-Oblique-54" transform="translate(68.408203 0.09375)"/>
    </g>
   </g>
   <g id="text_22">
    <!-- $T_1$ -->
    <g transform="translate(203.828 332.384574) scale(0.12 -0.12)">
     <use xlink:href="#DejaVuSans-Oblique-54" transform="translate(0 0.09375)"/>
     <use xlink:href="#DejaVuSans-31" transform="translate(61.083984 -16.3125) scale(0.7)"/>
    </g>
   </g>
   <g id="text_23">
    <!-- $T_2$ -->
    <g transform="translate(280.212 332.384574) scale(0.12 -0.12)">
     <defs>
      <path id="DejaVuSans-32" d="M 1228 531 
L 3431 531 
L 3431 0 
L 469 0 
L 469 531 
Q 828 903 1448 1529 
Q 2069 2156 2228 2338 
Q 2531 2678 2651 2914 
Q 2772 3150 2772 3378 
Q 2772 3750 2511 3984 
Q 2250 4219 1831 4219 
Q 1534 4219 1204 4116 
Q 875 4013 500 3803 
L 500 4441 
Q 881 4594 1212 4672 
Q 1544 4750 1819 4750 
Q 2544 4750 2975 4387 
Q 3406 4025 3406 3419 
Q 3406 3131 3298 2873 
Q 3191 2616 2906 2266 
Q 2828 2175 2409 1742 
Q 1991 1309 1228 531 
z
" transform="scale(0.015625)"/>
     </defs>
     <use xlink:href="#DejaVuSans-Oblique-54" transform="translate(0 0.09375)"/>
     <use xlink:href="#DejaVuSans-32" transform="translate(61.083984 -16.3125) scale(0.7)"/>
    </g>
   </g>
   <g id="axes_2">
    <g id="patch_8">
     <path d="M 75.456 299.60064 
L 361.152 299.60064 
L 361.152 179.85024 
L 75.456 179.85024 
z
" style="fill: #ffffff; opacity: 0.9"/>
    </g>
    <g id="matplotlib.axis_3"/>
    <g id="matplotlib.axis_4"/>
    <g id="line2d_81">
     <path d="M 88.442182 294.15744 
L 95.201756 293.612611 
L 100.921396 292.931907 
L 105.861084 292.12735 
L 110.280806 291.193043 
L 114.440544 290.089971 
L 118.340298 288.824533 
L 121.980069 287.411926 
L 125.359856 285.875654 
L 128.739643 284.100925 
L 132.11943 282.066945 
L 135.499217 279.754531 
L 138.61902 277.358351 
L 141.738824 274.700013 
L 145.118611 271.51565 
L 148.498398 268.010217 
L 151.878185 264.185175 
L 155.517956 259.718266 
L 159.41771 254.555392 
L 163.577448 248.662583 
L 168.257153 241.640248 
L 174.49676 231.845487 
L 185.676056 214.240291 
L 190.095777 207.743673 
L 193.735548 202.784688 
L 196.855351 198.89541 
L 199.715171 195.676275 
L 202.315007 193.073482 
L 204.65486 191.01911 
L 206.994713 189.257034 
L 209.074581 187.94923 
L 211.15445 186.894716 
L 213.234319 186.101257 
L 215.054205 185.625793 
L 216.87409 185.357432 
L 218.693975 185.297707 
L 220.513861 185.446959 
L 222.333746 185.804334 
L 224.153631 186.367797 
L 226.2335 187.259944 
L 228.313369 188.41045 
L 230.393238 189.810866 
L 232.733091 191.672292 
L 235.072943 193.820083 
L 237.67278 196.518805 
L 240.5326 199.832879 
L 243.652403 203.812011 
L 247.03219 208.483855 
L 251.191928 214.63516 
L 256.651584 223.144315 
L 270.430716 244.805801 
L 275.110421 251.655174 
L 279.270159 257.355479 
L 283.169913 262.31402 
L 286.809684 266.576573 
L 290.189471 270.205467 
L 293.569258 273.513084 
L 296.949045 276.501809 
L 300.328832 279.179529 
L 303.708619 281.558679 
L 307.088406 283.655286 
L 310.468193 285.488042 
L 313.84798 287.077441 
L 317.487751 288.54163 
L 321.387505 289.85588 
L 325.28726 290.939117 
L 329.706981 291.927347 
L 334.386686 292.741869 
L 339.586359 293.421213 
L 345.565982 293.975636 
L 348.165818 294.15744 
L 348.165818 294.15744 
" clip-path="url(#p0651ce60d3)" style="fill: none; stroke: #0000ff; stroke-width: 2; stroke-linecap: square"/>
    </g>
    <g id="line2d_82">
     <path d="M 88.442182 291.880525 
L 93.901838 290.877171 
L 98.841527 289.749587 
L 103.521232 288.458471 
L 107.940953 287.014248 
L 112.360675 285.327899 
L 116.520413 283.49983 
L 120.680151 281.421216 
L 124.579905 279.232516 
L 128.479659 276.802575 
L 132.639397 273.938737 
L 136.799135 270.79285 
L 140.958873 267.369465 
L 145.378595 263.440898 
L 150.0583 258.979404 
L 155.257972 253.705781 
L 161.497579 247.039037 
L 183.076219 223.634645 
L 187.495941 219.342595 
L 191.395695 215.857144 
L 195.035466 212.911365 
L 198.155269 210.655981 
L 201.275073 208.675549 
L 204.134893 207.12056 
L 206.994713 205.829899 
L 209.594549 204.896411 
L 212.194385 204.1991 
L 214.794221 203.743574 
L 217.394057 203.533513 
L 219.73391 203.555778 
L 222.333746 203.815132 
L 224.933582 204.319372 
L 227.533419 205.064428 
L 230.133255 206.044313 
L 232.733091 207.251205 
L 235.592911 208.829527 
L 238.452731 210.655981 
L 241.572534 212.911365 
L 244.952321 215.636329 
L 248.592092 218.860116 
L 252.75183 222.854348 
L 257.691518 227.93227 
L 264.191109 234.973209 
L 280.830061 253.162624 
L 286.289717 258.723155 
L 291.229405 263.440898 
L 295.649127 267.369465 
L 300.068848 270.997677 
L 304.228586 274.126003 
L 308.388324 276.972204 
L 312.548062 279.538121 
L 316.7078 281.830725 
L 320.867538 283.861208 
L 325.027276 285.644079 
L 329.446998 287.286053 
L 333.866719 288.689941 
L 338.546424 289.942886 
L 343.486113 291.035213 
L 348.165818 291.880525 
L 348.165818 291.880525 
" clip-path="url(#p0651ce60d3)" style="fill: none; stroke: #008000; stroke-width: 2; stroke-linecap: square"/>
    </g>
    <g id="patch_9">
     <path d="M 75.456 299.60064 
L 75.456 179.85024 
" style="fill: none; stroke: #000000; stroke-width: 0.8; stroke-linejoin: miter; stroke-linecap: square"/>
    </g>
    <g id="patch_10">
     <path d="M 361.152 299.60064 
L 361.152 179.85024 
" style="fill: none; stroke: #000000; stroke-width: 0.8; stroke-linejoin: miter; stroke-linecap: square"/>
    </g>
    <g id="patch_11">
     <path d="M 75.456 299.60064 
L 361.152 299.60064 
" style="fill: none; stroke: #000000; stroke-width: 0.8; stroke-linejoin: miter; stroke-linecap: square"/>
    </g>
    <g id="patch_12">
     <path d="M 75.456 179.85024 
L 361.152 179.85024 
" style="fill: none; stroke: #000000; stroke-width: 0.8; stroke-linejoin: miter; stroke-linecap: square"/>
    </g>
    <g id="text_24">
     <!-- $x$ -->
     <g transform="translate(215.304 296.015464) scale(0.1 -0.1)">
      <defs>
       <path id="DejaVuSans-Oblique-78" d="M 3841 3500 
L 2234 1784 
L 3219 0 
L 2559 0 
L 1819 1388 
L 531 0 
L -166 0 
L 1556 1844 
L 641 3500 
L 1300 3500 
L 1972 2234 
L 3144 3500 
L 3841 3500 
z
" transform="scale(0.015625)"/>
      </defs>
      <use xlink:href="#DejaVuSans-Oblique-78" transform="translate(0 0.3125)"/>
     </g>
    </g>
    <g id="text_25">
     <!-- density, $n$ -->
     <g transform="translate(92.1408 259.87544) rotate(-90) scale(0.1 -0.1)">
      <defs>
       <path id="TimesNewRomanPSMT-79" d="M 38 2863 
L 1372 2863 
L 1372 2747 
L 1306 2747 
Q 1166 2747 1095 2686 
Q 1025 2625 1025 2534 
Q 1025 2413 1128 2197 
L 1825 753 
L 2466 2334 
Q 2519 2463 2519 2588 
Q 2519 2644 2497 2672 
Q 2472 2706 2419 2726 
Q 2366 2747 2231 2747 
L 2231 2863 
L 3163 2863 
L 3163 2747 
Q 3047 2734 2984 2696 
Q 2922 2659 2847 2556 
Q 2819 2513 2741 2316 
L 1575 -541 
Q 1406 -956 1132 -1168 
Q 859 -1381 606 -1381 
Q 422 -1381 303 -1275 
Q 184 -1169 184 -1031 
Q 184 -900 270 -820 
Q 356 -741 506 -741 
Q 609 -741 788 -809 
Q 913 -856 944 -856 
Q 1038 -856 1148 -759 
Q 1259 -663 1372 -384 
L 1575 113 
L 547 2272 
Q 500 2369 397 2513 
Q 319 2622 269 2659 
Q 197 2709 38 2747 
L 38 2863 
z
" transform="scale(0.015625)"/>
       <path id="DejaVuSans-Oblique-6e" d="M 3566 2113 
L 3156 0 
L 2578 0 
L 2988 2091 
Q 3016 2238 3031 2350 
Q 3047 2463 3047 2528 
Q 3047 2791 2881 2937 
Q 2716 3084 2419 3084 
Q 1956 3084 1622 2776 
Q 1288 2469 1184 1941 
L 800 0 
L 225 0 
L 903 3500 
L 1478 3500 
L 1363 2950 
Q 1603 3253 1940 3418 
Q 2278 3584 2650 3584 
Q 3113 3584 3367 3334 
Q 3622 3084 3622 2631 
Q 3622 2519 3608 2391 
Q 3594 2263 3566 2113 
z
" transform="scale(0.015625)"/>
      </defs>
      <use xlink:href="#TimesNewRomanPSMT-64" transform="translate(0 0.5625)"/>
      <use xlink:href="#TimesNewRomanPSMT-65" transform="translate(50 0.5625)"/>
      <use xlink:href="#TimesNewRomanPSMT-6e" transform="translate(94.384766 0.5625)"/>
      <use xlink:href="#TimesNewRomanPSMT-73" transform="translate(144.384766 0.5625)"/>
      <use xlink:href="#TimesNewRomanPSMT-69" transform="translate(183.300781 0.5625)"/>
      <use xlink:href="#TimesNewRomanPSMT-74" transform="translate(211.083984 0.5625)"/>
      <use xlink:href="#TimesNewRomanPSMT-79" transform="translate(238.867188 0.5625)"/>
      <use xlink:href="#TimesNewRomanPSMT-2c" transform="translate(288.867188 0.5625)"/>
      <use xlink:href="#TimesNewRomanPSMT-20" transform="translate(313.867188 0.5625)"/>
      <use xlink:href="#DejaVuSans-Oblique-6e" transform="translate(338.867188 0.5625)"/>
     </g>
    </g>
    <g id="legend_1">
     <g id="line2d_83">
      <path d="M 306.912 189.97899 
L 310.912 189.97899 
L 314.912 189.97899 
" style="fill: none; stroke: #0000ff; stroke-width: 2; stroke-linecap: square"/>
     </g>
     <g id="text_26">
      <!-- $n_1(x,T_1)$ -->
      <g transform="translate(321.312 192.77899) scale(0.08 -0.08)">
       <defs>
        <path id="DejaVuSans-28" d="M 1984 4856 
Q 1566 4138 1362 3434 
Q 1159 2731 1159 2009 
Q 1159 1288 1364 580 
Q 1569 -128 1984 -844 
L 1484 -844 
Q 1016 -109 783 600 
Q 550 1309 550 2009 
Q 550 2706 781 3412 
Q 1013 4119 1484 4856 
L 1984 4856 
z
" transform="scale(0.015625)"/>
        <path id="DejaVuSans-2c" d="M 750 794 
L 1409 794 
L 1409 256 
L 897 -744 
L 494 -744 
L 750 256 
L 750 794 
z
" transform="scale(0.015625)"/>
        <path id="DejaVuSans-29" d="M 513 4856 
L 1013 4856 
Q 1481 4119 1714 3412 
Q 1947 2706 1947 2009 
Q 1947 1309 1714 600 
Q 1481 -109 1013 -844 
L 513 -844 
Q 928 -128 1133 580 
Q 1338 1288 1338 2009 
Q 1338 2731 1133 3434 
Q 928 4138 513 4856 
z
" transform="scale(0.015625)"/>
       </defs>
       <use xlink:href="#DejaVuSans-Oblique-6e" transform="translate(0 0.125)"/>
       <use xlink:href="#DejaVuSans-31" transform="translate(63.378906 -16.28125) scale(0.7)"/>
       <use xlink:href="#DejaVuSans-28" transform="translate(110.649414 0.125)"/>
       <use xlink:href="#DejaVuSans-Oblique-78" transform="translate(149.663086 0.125)"/>
       <use xlink:href="#DejaVuSans-2c" transform="translate(208.842773 0.125)"/>
       <use xlink:href="#DejaVuSans-Oblique-54" transform="translate(260.112305 0.125)"/>
       <use xlink:href="#DejaVuSans-31" transform="translate(321.196289 -16.28125) scale(0.7)"/>
       <use xlink:href="#DejaVuSans-29" transform="translate(368.466797 0.125)"/>
      </g>
     </g>
     <g id="line2d_84">
      <path d="M 306.912 201.41899 
L 310.912 201.41899 
L 314.912 201.41899 
" style="fill: none; stroke: #008000; stroke-width: 2; stroke-linecap: square"/>
     </g>
     <g id="text_27">
      <!-- $n_2(x,T_2)$ -->
      <g transform="translate(321.312 204.21899) scale(0.08 -0.08)">
       <use xlink:href="#DejaVuSans-Oblique-6e" transform="translate(0 0.125)"/>
       <use xlink:href="#DejaVuSans-32" transform="translate(63.378906 -16.28125) scale(0.7)"/>
       <use xlink:href="#DejaVuSans-28" transform="translate(110.649414 0.125)"/>
       <use xlink:href="#DejaVuSans-Oblique-78" transform="translate(149.663086 0.125)"/>
       <use xlink:href="#DejaVuSans-2c" transform="translate(208.842773 0.125)"/>
       <use xlink:href="#DejaVuSans-Oblique-54" transform="translate(260.112305 0.125)"/>
       <use xlink:href="#DejaVuSans-32" transform="translate(321.196289 -16.28125) scale(0.7)"/>
       <use xlink:href="#DejaVuSans-29" transform="translate(368.466797 0.125)"/>
      </g>
     </g>
    </g>
   </g>
   <g id="legend_2">
    <g id="line2d_85">
     <path d="M 65.7 52.722 
L 74.7 52.722 
L 83.7 52.722 
" style="fill: none; stroke: #0000ff; stroke-width: 2; stroke-linecap: square"/>
    </g>
    <g id="text_28">
     <!-- deme 1 -->
     <g transform="translate(90.9 55.872) scale(0.09 -0.09)">
      <use xlink:href="#TimesNewRomanPSMT-64"/>
      <use xlink:href="#TimesNewRomanPSMT-65" x="50"/>
      <use xlink:href="#TimesNewRomanPSMT-6d" x="94.384766"/>
      <use xlink:href="#TimesNewRomanPSMT-65" x="172.167969"/>
      <use xlink:href="#TimesNewRomanPSMT-20" x="216.552734"/>
      <use xlink:href="#TimesNewRomanPSMT-31" x="241.552734"/>
     </g>
    </g>
    <g id="line2d_86">
     <path d="M 65.7 65.447156 
L 74.7 65.447156 
L 83.7 65.447156 
" style="fill: none; stroke: #008000; stroke-width: 2; stroke-linecap: square"/>
    </g>
    <g id="text_29">
     <!-- deme 2 -->
     <g transform="translate(90.9 68.597156) scale(0.09 -0.09)">
      <use xlink:href="#TimesNewRomanPSMT-64"/>
      <use xlink:href="#TimesNewRomanPSMT-65" x="50"/>
      <use xlink:href="#TimesNewRomanPSMT-6d" x="94.384766"/>
      <use xlink:href="#TimesNewRomanPSMT-65" x="172.167969"/>
      <use xlink:href="#TimesNewRomanPSMT-20" x="216.552734"/>
      <use xlink:href="#TimesNewRomanPSMT-32" x="241.552734"/>
     </g>
    </g>
   </g>
  </g>
 </g>
 <defs>
  <clipPath id="p5f327e9ae1">
   <rect x="57.6" y="41.472" width="357.12" height="266.112"/>
  </clipPath>
  <clipPath id="p0651ce60d3">
   <rect x="75.456" y="179.85024" width="285.696" height="119.7504"/>
  </clipPath>
 </defs>
</svg>
