<?xml version="1.0" encoding="utf-8" standalone="no"?>
<!DOCTYPE svg PUBLIC "-//W3C//DTD SVG 1.1//EN"
  "http://www.w3.org/Graphics/SVG/1.1/DTD/svg11.dtd">
<svg xmlns:xlink="http://www.w3.org/1999/xlink" width="460.8pt" height="345.6pt" viewBox="0 0 460.8 345.6" xmlns="http://www.w3.org/2000/svg" version="1.1">
 <metadata>
  <rdf:RDF xmlns:dc="http://purl.org/dc/elements/1.1/" xmlns:cc="http://creativecommons.org/ns#" xmlns:rdf="http://www.w3.org/1999/02/22-rdf-syntax-ns#">
   <cc:Work>
    <dc:type rdf:resource="http://purl.org/dc/dcmitype/StillImage"/>
    <dc:date>2024-10-24T02:01:52.652989</dc:date>
    <dc:format>image/svg+xml</dc:format>
    <dc:creator>
     <cc:Agent>
      <dc:title>Matplotlib v3.7.1, https://matplotlib.org/</dc:title>
     </cc:Agent>
    </dc:creator>
   </cc:Work>
  </rdf:RDF>
 </metadata>
 <defs>
  <style type="text/css">*{stroke-linejoin: round; stroke-linecap: butt}</style>
 </defs>
 <g id="figure_1">
  <g id="patch_1">
   <path d="M 0 345.6 
L 460.8 345.6 
L 460.8 0 
L 0 0 
z
" style="fill: #ffffff"/>
  </g>
  <g id="axes_1">
   <g id="patch_2">
    <path d="M 57.6 307.584 
L 414.72 307.584 
L 414.72 41.472 
L 57.6 41.472 
z
" style="fill: #ffffff"/>
   </g>
   <g id="matplotlib.axis_1">
    <g id="xtick_1">
     <g id="line2d_1">
      <defs>
       <path id="md628c89980" d="M 0 0 
L 0 3.5 
" style="stroke: #000000; stroke-width: 0.8"/>
      </defs>
      <g>
       <use xlink:href="#md628c89980" x="73.832727" y="307.584" style="stroke: #000000; stroke-width: 0.8"/>
      </g>
     </g>
     <g id="text_1">
      <!-- 0.021 -->
      <g transform="translate(60.332727 322.9165) scale(0.12 -0.12)">
       <defs>
        <path id="TimesNewRomanPSMT-30" d="M 231 2094 
Q 231 2819 450 3342 
Q 669 3866 1031 4122 
Q 1313 4325 1613 4325 
Q 2100 4325 2488 3828 
Q 2972 3213 2972 2159 
Q 2972 1422 2759 906 
Q 2547 391 2217 158 
Q 1888 -75 1581 -75 
Q 975 -75 572 641 
Q 231 1244 231 2094 
z
M 844 2016 
Q 844 1141 1059 588 
Q 1238 122 1591 122 
Q 1759 122 1940 273 
Q 2122 425 2216 781 
Q 2359 1319 2359 2297 
Q 2359 3022 2209 3506 
Q 2097 3866 1919 4016 
Q 1791 4119 1609 4119 
Q 1397 4119 1231 3928 
Q 1006 3669 925 3112 
Q 844 2556 844 2016 
z
" transform="scale(0.015625)"/>
        <path id="TimesNewRomanPSMT-2e" d="M 800 606 
Q 947 606 1047 504 
Q 1147 403 1147 259 
Q 1147 116 1045 14 
Q 944 -88 800 -88 
Q 656 -88 554 14 
Q 453 116 453 259 
Q 453 406 554 506 
Q 656 606 800 606 
z
" transform="scale(0.015625)"/>
        <path id="TimesNewRomanPSMT-32" d="M 2934 816 
L 2638 0 
L 138 0 
L 138 116 
Q 1241 1122 1691 1759 
Q 2141 2397 2141 2925 
Q 2141 3328 1894 3587 
Q 1647 3847 1303 3847 
Q 991 3847 742 3664 
Q 494 3481 375 3128 
L 259 3128 
Q 338 3706 661 4015 
Q 984 4325 1469 4325 
Q 1984 4325 2329 3994 
Q 2675 3663 2675 3213 
Q 2675 2891 2525 2569 
Q 2294 2063 1775 1497 
Q 997 647 803 472 
L 1909 472 
Q 2247 472 2383 497 
Q 2519 522 2628 598 
Q 2738 675 2819 816 
L 2934 816 
z
" transform="scale(0.015625)"/>
        <path id="TimesNewRomanPSMT-31" d="M 750 3822 
L 1781 4325 
L 1884 4325 
L 1884 747 
Q 1884 391 1914 303 
Q 1944 216 2037 169 
Q 2131 122 2419 116 
L 2419 0 
L 825 0 
L 825 116 
Q 1125 122 1212 167 
Q 1300 213 1334 289 
Q 1369 366 1369 747 
L 1369 3034 
Q 1369 3497 1338 3628 
Q 1316 3728 1258 3775 
Q 1200 3822 1119 3822 
Q 1003 3822 797 3725 
L 750 3822 
z
" transform="scale(0.015625)"/>
       </defs>
       <use xlink:href="#TimesNewRomanPSMT-30"/>
       <use xlink:href="#TimesNewRomanPSMT-2e" x="50"/>
       <use xlink:href="#TimesNewRomanPSMT-30" x="75"/>
       <use xlink:href="#TimesNewRomanPSMT-32" x="125"/>
       <use xlink:href="#TimesNewRomanPSMT-31" x="175"/>
      </g>
     </g>
    </g>
    <g id="xtick_2">
     <g id="line2d_2">
      <g>
       <use xlink:href="#md628c89980" x="182.050909" y="307.584" style="stroke: #000000; stroke-width: 0.8"/>
      </g>
     </g>
     <g id="text_2">
      <!-- 0.024 -->
      <g transform="translate(168.550909 322.9165) scale(0.12 -0.12)">
       <defs>
        <path id="TimesNewRomanPSMT-34" d="M 2978 1563 
L 2978 1119 
L 2409 1119 
L 2409 0 
L 1894 0 
L 1894 1119 
L 100 1119 
L 100 1519 
L 2066 4325 
L 2409 4325 
L 2409 1563 
L 2978 1563 
z
M 1894 1563 
L 1894 3666 
L 406 1563 
L 1894 1563 
z
" transform="scale(0.015625)"/>
       </defs>
       <use xlink:href="#TimesNewRomanPSMT-30"/>
       <use xlink:href="#TimesNewRomanPSMT-2e" x="50"/>
       <use xlink:href="#TimesNewRomanPSMT-30" x="75"/>
       <use xlink:href="#TimesNewRomanPSMT-32" x="125"/>
       <use xlink:href="#TimesNewRomanPSMT-34" x="175"/>
      </g>
     </g>
    </g>
    <g id="xtick_3">
     <g id="line2d_3">
      <g>
       <use xlink:href="#md628c89980" x="290.269091" y="307.584" style="stroke: #000000; stroke-width: 0.8"/>
      </g>
     </g>
     <g id="text_3">
      <!-- 0.028 -->
      <g transform="translate(276.769091 322.9165) scale(0.12 -0.12)">
       <defs>
        <path id="TimesNewRomanPSMT-38" d="M 1228 2134 
Q 725 2547 579 2797 
Q 434 3047 434 3316 
Q 434 3728 753 4026 
Q 1072 4325 1600 4325 
Q 2113 4325 2425 4047 
Q 2738 3769 2738 3413 
Q 2738 3175 2569 2928 
Q 2400 2681 1866 2347 
Q 2416 1922 2594 1678 
Q 2831 1359 2831 1006 
Q 2831 559 2490 242 
Q 2150 -75 1597 -75 
Q 994 -75 656 303 
Q 388 606 388 966 
Q 388 1247 577 1523 
Q 766 1800 1228 2134 
z
M 1719 2469 
Q 2094 2806 2194 3001 
Q 2294 3197 2294 3444 
Q 2294 3772 2109 3958 
Q 1925 4144 1606 4144 
Q 1288 4144 1088 3959 
Q 888 3775 888 3528 
Q 888 3366 970 3203 
Q 1053 3041 1206 2894 
L 1719 2469 
z
M 1375 2016 
Q 1116 1797 991 1539 
Q 866 1281 866 981 
Q 866 578 1086 336 
Q 1306 94 1647 94 
Q 1984 94 2187 284 
Q 2391 475 2391 747 
Q 2391 972 2272 1150 
Q 2050 1481 1375 2016 
z
" transform="scale(0.015625)"/>
       </defs>
       <use xlink:href="#TimesNewRomanPSMT-30"/>
       <use xlink:href="#TimesNewRomanPSMT-2e" x="50"/>
       <use xlink:href="#TimesNewRomanPSMT-30" x="75"/>
       <use xlink:href="#TimesNewRomanPSMT-32" x="125"/>
       <use xlink:href="#TimesNewRomanPSMT-38" x="175"/>
      </g>
     </g>
    </g>
    <g id="xtick_4">
     <g id="line2d_4">
      <g>
       <use xlink:href="#md628c89980" x="398.487273" y="307.584" style="stroke: #000000; stroke-width: 0.8"/>
      </g>
     </g>
     <g id="text_4">
      <!-- 0.032 -->
      <g transform="translate(384.987273 322.9165) scale(0.12 -0.12)">
       <defs>
        <path id="TimesNewRomanPSMT-33" d="M 325 3431 
Q 506 3859 782 4092 
Q 1059 4325 1472 4325 
Q 1981 4325 2253 3994 
Q 2459 3747 2459 3466 
Q 2459 3003 1878 2509 
Q 2269 2356 2469 2072 
Q 2669 1788 2669 1403 
Q 2669 853 2319 450 
Q 1863 -75 997 -75 
Q 569 -75 414 31 
Q 259 138 259 259 
Q 259 350 332 419 
Q 406 488 509 488 
Q 588 488 669 463 
Q 722 447 909 348 
Q 1097 250 1169 231 
Q 1284 197 1416 197 
Q 1734 197 1970 444 
Q 2206 691 2206 1028 
Q 2206 1275 2097 1509 
Q 2016 1684 1919 1775 
Q 1784 1900 1550 2001 
Q 1316 2103 1072 2103 
L 972 2103 
L 972 2197 
Q 1219 2228 1467 2375 
Q 1716 2522 1828 2728 
Q 1941 2934 1941 3181 
Q 1941 3503 1739 3701 
Q 1538 3900 1238 3900 
Q 753 3900 428 3381 
L 325 3431 
z
" transform="scale(0.015625)"/>
       </defs>
       <use xlink:href="#TimesNewRomanPSMT-30"/>
       <use xlink:href="#TimesNewRomanPSMT-2e" x="50"/>
       <use xlink:href="#TimesNewRomanPSMT-30" x="75"/>
       <use xlink:href="#TimesNewRomanPSMT-33" x="125"/>
       <use xlink:href="#TimesNewRomanPSMT-32" x="175"/>
      </g>
     </g>
    </g>
    <g id="text_5">
     <!-- diversity at outbreak peak, $V(T) / r_0^2$ -->
     <g transform="translate(150.96 340.403375) scale(0.12 -0.12)">
      <defs>
       <path id="TimesNewRomanPSMT-64" d="M 2222 322 
Q 2013 103 1813 7 
Q 1613 -88 1381 -88 
Q 913 -88 563 304 
Q 213 697 213 1313 
Q 213 1928 600 2439 
Q 988 2950 1597 2950 
Q 1975 2950 2222 2709 
L 2222 3238 
Q 2222 3728 2198 3840 
Q 2175 3953 2125 3993 
Q 2075 4034 2000 4034 
Q 1919 4034 1784 3984 
L 1744 4094 
L 2597 4444 
L 2738 4444 
L 2738 1134 
Q 2738 631 2761 520 
Q 2784 409 2836 365 
Q 2888 322 2956 322 
Q 3041 322 3181 375 
L 3216 266 
L 2366 -88 
L 2222 -88 
L 2222 322 
z
M 2222 541 
L 2222 2016 
Q 2203 2228 2109 2403 
Q 2016 2578 1861 2667 
Q 1706 2756 1559 2756 
Q 1284 2756 1069 2509 
Q 784 2184 784 1559 
Q 784 928 1059 592 
Q 1334 256 1672 256 
Q 1956 256 2222 541 
z
" transform="scale(0.015625)"/>
       <path id="TimesNewRomanPSMT-69" d="M 928 4444 
Q 1059 4444 1151 4351 
Q 1244 4259 1244 4128 
Q 1244 3997 1151 3903 
Q 1059 3809 928 3809 
Q 797 3809 703 3903 
Q 609 3997 609 4128 
Q 609 4259 701 4351 
Q 794 4444 928 4444 
z
M 1188 2947 
L 1188 647 
Q 1188 378 1227 289 
Q 1266 200 1342 156 
Q 1419 113 1622 113 
L 1622 0 
L 231 0 
L 231 113 
Q 441 113 512 153 
Q 584 194 626 287 
Q 669 381 669 647 
L 669 1750 
Q 669 2216 641 2353 
Q 619 2453 572 2492 
Q 525 2531 444 2531 
Q 356 2531 231 2484 
L 188 2597 
L 1050 2947 
L 1188 2947 
z
" transform="scale(0.015625)"/>
       <path id="TimesNewRomanPSMT-76" d="M 53 2863 
L 1400 2863 
L 1400 2747 
L 1313 2747 
Q 1191 2747 1127 2687 
Q 1063 2628 1063 2528 
Q 1063 2419 1128 2269 
L 1794 688 
L 2463 2328 
Q 2534 2503 2534 2594 
Q 2534 2638 2509 2666 
Q 2475 2713 2422 2730 
Q 2369 2747 2206 2747 
L 2206 2863 
L 3141 2863 
L 3141 2747 
Q 2978 2734 2916 2681 
Q 2806 2588 2719 2369 
L 1703 -88 
L 1575 -88 
L 553 2328 
Q 484 2497 421 2570 
Q 359 2644 263 2694 
Q 209 2722 53 2747 
L 53 2863 
z
" transform="scale(0.015625)"/>
       <path id="TimesNewRomanPSMT-65" d="M 681 1784 
Q 678 1147 991 784 
Q 1303 422 1725 422 
Q 2006 422 2214 576 
Q 2422 731 2563 1106 
L 2659 1044 
Q 2594 616 2278 264 
Q 1963 -88 1488 -88 
Q 972 -88 605 314 
Q 238 716 238 1394 
Q 238 2128 614 2539 
Q 991 2950 1559 2950 
Q 2041 2950 2350 2633 
Q 2659 2316 2659 1784 
L 681 1784 
z
M 681 1966 
L 2006 1966 
Q 1991 2241 1941 2353 
Q 1863 2528 1708 2628 
Q 1553 2728 1384 2728 
Q 1125 2728 920 2526 
Q 716 2325 681 1966 
z
" transform="scale(0.015625)"/>
       <path id="TimesNewRomanPSMT-72" d="M 1038 2947 
L 1038 2303 
Q 1397 2947 1775 2947 
Q 1947 2947 2059 2842 
Q 2172 2738 2172 2600 
Q 2172 2478 2090 2393 
Q 2009 2309 1897 2309 
Q 1788 2309 1652 2417 
Q 1516 2525 1450 2525 
Q 1394 2525 1328 2463 
Q 1188 2334 1038 2041 
L 1038 669 
Q 1038 431 1097 309 
Q 1138 225 1241 169 
Q 1344 113 1538 113 
L 1538 0 
L 72 0 
L 72 113 
Q 291 113 397 181 
Q 475 231 506 341 
Q 522 394 522 644 
L 522 1753 
Q 522 2253 501 2348 
Q 481 2444 426 2487 
Q 372 2531 291 2531 
Q 194 2531 72 2484 
L 41 2597 
L 906 2947 
L 1038 2947 
z
" transform="scale(0.015625)"/>
       <path id="TimesNewRomanPSMT-73" d="M 2050 2947 
L 2050 1972 
L 1947 1972 
Q 1828 2431 1642 2597 
Q 1456 2763 1169 2763 
Q 950 2763 815 2647 
Q 681 2531 681 2391 
Q 681 2216 781 2091 
Q 878 1963 1175 1819 
L 1631 1597 
Q 2266 1288 2266 781 
Q 2266 391 1970 151 
Q 1675 -88 1309 -88 
Q 1047 -88 709 6 
Q 606 38 541 38 
Q 469 38 428 -44 
L 325 -44 
L 325 978 
L 428 978 
Q 516 541 762 319 
Q 1009 97 1316 97 
Q 1531 97 1667 223 
Q 1803 350 1803 528 
Q 1803 744 1651 891 
Q 1500 1038 1047 1263 
Q 594 1488 453 1669 
Q 313 1847 313 2119 
Q 313 2472 555 2709 
Q 797 2947 1181 2947 
Q 1350 2947 1591 2875 
Q 1750 2828 1803 2828 
Q 1853 2828 1881 2850 
Q 1909 2872 1947 2947 
L 2050 2947 
z
" transform="scale(0.015625)"/>
       <path id="TimesNewRomanPSMT-74" d="M 1031 3803 
L 1031 2863 
L 1700 2863 
L 1700 2644 
L 1031 2644 
L 1031 788 
Q 1031 509 1111 412 
Q 1191 316 1316 316 
Q 1419 316 1516 380 
Q 1613 444 1666 569 
L 1788 569 
Q 1678 263 1478 108 
Q 1278 -47 1066 -47 
Q 922 -47 784 33 
Q 647 113 581 261 
Q 516 409 516 719 
L 516 2644 
L 63 2644 
L 63 2747 
Q 234 2816 414 2980 
Q 594 3144 734 3369 
Q 806 3488 934 3803 
L 1031 3803 
z
" transform="scale(0.015625)"/>
       <path id="TimesNewRomanPSMT-79" d="M 38 2863 
L 1372 2863 
L 1372 2747 
L 1306 2747 
Q 1166 2747 1095 2686 
Q 1025 2625 1025 2534 
Q 1025 2413 1128 2197 
L 1825 753 
L 2466 2334 
Q 2519 2463 2519 2588 
Q 2519 2644 2497 2672 
Q 2472 2706 2419 2726 
Q 2366 2747 2231 2747 
L 2231 2863 
L 3163 2863 
L 3163 2747 
Q 3047 2734 2984 2696 
Q 2922 2659 2847 2556 
Q 2819 2513 2741 2316 
L 1575 -541 
Q 1406 -956 1132 -1168 
Q 859 -1381 606 -1381 
Q 422 -1381 303 -1275 
Q 184 -1169 184 -1031 
Q 184 -900 270 -820 
Q 356 -741 506 -741 
Q 609 -741 788 -809 
Q 913 -856 944 -856 
Q 1038 -856 1148 -759 
Q 1259 -663 1372 -384 
L 1575 113 
L 547 2272 
Q 500 2369 397 2513 
Q 319 2622 269 2659 
Q 197 2709 38 2747 
L 38 2863 
z
" transform="scale(0.015625)"/>
       <path id="TimesNewRomanPSMT-20" transform="scale(0.015625)"/>
       <path id="TimesNewRomanPSMT-61" d="M 1822 413 
Q 1381 72 1269 19 
Q 1100 -59 909 -59 
Q 613 -59 420 144 
Q 228 347 228 678 
Q 228 888 322 1041 
Q 450 1253 767 1440 
Q 1084 1628 1822 1897 
L 1822 2009 
Q 1822 2438 1686 2597 
Q 1550 2756 1291 2756 
Q 1094 2756 978 2650 
Q 859 2544 859 2406 
L 866 2225 
Q 866 2081 792 2003 
Q 719 1925 600 1925 
Q 484 1925 411 2006 
Q 338 2088 338 2228 
Q 338 2497 613 2722 
Q 888 2947 1384 2947 
Q 1766 2947 2009 2819 
Q 2194 2722 2281 2516 
Q 2338 2381 2338 1966 
L 2338 994 
Q 2338 584 2353 492 
Q 2369 400 2405 369 
Q 2441 338 2488 338 
Q 2538 338 2575 359 
Q 2641 400 2828 588 
L 2828 413 
Q 2478 -56 2159 -56 
Q 2006 -56 1915 50 
Q 1825 156 1822 413 
z
M 1822 616 
L 1822 1706 
Q 1350 1519 1213 1441 
Q 966 1303 859 1153 
Q 753 1003 753 825 
Q 753 600 887 451 
Q 1022 303 1197 303 
Q 1434 303 1822 616 
z
" transform="scale(0.015625)"/>
       <path id="TimesNewRomanPSMT-6f" d="M 1600 2947 
Q 2250 2947 2644 2453 
Q 2978 2031 2978 1484 
Q 2978 1100 2793 706 
Q 2609 313 2286 112 
Q 1963 -88 1566 -88 
Q 919 -88 538 428 
Q 216 863 216 1403 
Q 216 1797 411 2186 
Q 606 2575 925 2761 
Q 1244 2947 1600 2947 
z
M 1503 2744 
Q 1338 2744 1170 2645 
Q 1003 2547 900 2300 
Q 797 2053 797 1666 
Q 797 1041 1045 587 
Q 1294 134 1700 134 
Q 2003 134 2200 384 
Q 2397 634 2397 1244 
Q 2397 2006 2069 2444 
Q 1847 2744 1503 2744 
z
" transform="scale(0.015625)"/>
       <path id="TimesNewRomanPSMT-75" d="M 2709 2863 
L 2709 1128 
Q 2709 631 2732 520 
Q 2756 409 2807 365 
Q 2859 322 2928 322 
Q 3025 322 3147 375 
L 3191 266 
L 2334 -88 
L 2194 -88 
L 2194 519 
Q 1825 119 1631 15 
Q 1438 -88 1222 -88 
Q 981 -88 804 51 
Q 628 191 559 409 
Q 491 628 491 1028 
L 491 2306 
Q 491 2509 447 2587 
Q 403 2666 317 2708 
Q 231 2750 6 2747 
L 6 2863 
L 1009 2863 
L 1009 947 
Q 1009 547 1148 422 
Q 1288 297 1484 297 
Q 1619 297 1789 381 
Q 1959 466 2194 703 
L 2194 2325 
Q 2194 2569 2105 2655 
Q 2016 2741 1734 2747 
L 1734 2863 
L 2709 2863 
z
" transform="scale(0.015625)"/>
       <path id="TimesNewRomanPSMT-62" d="M 984 2369 
Q 1400 2947 1881 2947 
Q 2322 2947 2650 2570 
Q 2978 2194 2978 1541 
Q 2978 778 2472 313 
Q 2038 -88 1503 -88 
Q 1253 -88 995 3 
Q 738 94 469 275 
L 469 3241 
Q 469 3728 445 3840 
Q 422 3953 372 3993 
Q 322 4034 247 4034 
Q 159 4034 28 3984 
L -16 4094 
L 844 4444 
L 984 4444 
L 984 2369 
z
M 984 2169 
L 984 456 
Q 1144 300 1314 220 
Q 1484 141 1663 141 
Q 1947 141 2192 453 
Q 2438 766 2438 1363 
Q 2438 1913 2192 2208 
Q 1947 2503 1634 2503 
Q 1469 2503 1303 2419 
Q 1178 2356 984 2169 
z
" transform="scale(0.015625)"/>
       <path id="TimesNewRomanPSMT-6b" d="M 1047 4444 
L 1047 1597 
L 1775 2259 
Q 2006 2472 2044 2528 
Q 2069 2566 2069 2603 
Q 2069 2666 2017 2711 
Q 1966 2756 1847 2763 
L 1847 2863 
L 3091 2863 
L 3091 2763 
Q 2834 2756 2664 2684 
Q 2494 2613 2291 2428 
L 1556 1750 
L 2291 822 
Q 2597 438 2703 334 
Q 2853 188 2966 144 
Q 3044 113 3238 113 
L 3238 0 
L 1847 0 
L 1847 113 
Q 1966 116 2008 148 
Q 2050 181 2050 241 
Q 2050 313 1925 472 
L 1047 1594 
L 1047 644 
Q 1047 366 1086 278 
Q 1125 191 1197 153 
Q 1269 116 1509 113 
L 1509 0 
L 53 0 
L 53 113 
Q 272 113 381 166 
Q 447 200 481 272 
Q 528 375 528 628 
L 528 3234 
Q 528 3731 506 3842 
Q 484 3953 434 3995 
Q 384 4038 303 4038 
Q 238 4038 106 3984 
L 53 4094 
L 903 4444 
L 1047 4444 
z
" transform="scale(0.015625)"/>
       <path id="TimesNewRomanPSMT-70" d="M -6 2578 
L 875 2934 
L 994 2934 
L 994 2266 
Q 1216 2644 1439 2795 
Q 1663 2947 1909 2947 
Q 2341 2947 2628 2609 
Q 2981 2197 2981 1534 
Q 2981 794 2556 309 
Q 2206 -88 1675 -88 
Q 1444 -88 1275 -22 
Q 1150 25 994 166 
L 994 -706 
Q 994 -1000 1030 -1079 
Q 1066 -1159 1155 -1206 
Q 1244 -1253 1478 -1253 
L 1478 -1369 
L -22 -1369 
L -22 -1253 
L 56 -1253 
Q 228 -1256 350 -1188 
Q 409 -1153 442 -1076 
Q 475 -1000 475 -688 
L 475 2019 
Q 475 2297 450 2372 
Q 425 2447 370 2484 
Q 316 2522 222 2522 
Q 147 2522 31 2478 
L -6 2578 
z
M 994 2081 
L 994 1013 
Q 994 666 1022 556 
Q 1066 375 1236 237 
Q 1406 100 1666 100 
Q 1978 100 2172 344 
Q 2425 663 2425 1241 
Q 2425 1897 2138 2250 
Q 1938 2494 1663 2494 
Q 1513 2494 1366 2419 
Q 1253 2363 994 2081 
z
" transform="scale(0.015625)"/>
       <path id="TimesNewRomanPSMT-2c" d="M 344 -1066 
L 344 -928 
Q 666 -822 842 -598 
Q 1019 -375 1019 -125 
Q 1019 -66 991 -25 
Q 969 3 947 3 
Q 913 3 797 -59 
Q 741 -88 678 -88 
Q 525 -88 434 3 
Q 344 94 344 253 
Q 344 406 461 515 
Q 578 625 747 625 
Q 953 625 1114 445 
Q 1275 266 1275 -31 
Q 1275 -353 1051 -629 
Q 828 -906 344 -1066 
z
" transform="scale(0.015625)"/>
       <path id="DejaVuSans-Oblique-56" d="M 1319 0 
L 500 4666 
L 1119 4666 
L 1797 653 
L 4063 4666 
L 4750 4666 
L 2053 0 
L 1319 0 
z
" transform="scale(0.015625)"/>
       <path id="DejaVuSans-28" d="M 1984 4856 
Q 1566 4138 1362 3434 
Q 1159 2731 1159 2009 
Q 1159 1288 1364 580 
Q 1569 -128 1984 -844 
L 1484 -844 
Q 1016 -109 783 600 
Q 550 1309 550 2009 
Q 550 2706 781 3412 
Q 1013 4119 1484 4856 
L 1984 4856 
z
" transform="scale(0.015625)"/>
       <path id="DejaVuSans-Oblique-54" d="M 378 4666 
L 4325 4666 
L 4225 4134 
L 2559 4134 
L 1759 0 
L 1125 0 
L 1925 4134 
L 275 4134 
L 378 4666 
z
" transform="scale(0.015625)"/>
       <path id="DejaVuSans-29" d="M 513 4856 
L 1013 4856 
Q 1481 4119 1714 3412 
Q 1947 2706 1947 2009 
Q 1947 1309 1714 600 
Q 1481 -109 1013 -844 
L 513 -844 
Q 928 -128 1133 580 
Q 1338 1288 1338 2009 
Q 1338 2731 1133 3434 
Q 928 4138 513 4856 
z
" transform="scale(0.015625)"/>
       <path id="DejaVuSans-2f" d="M 1625 4666 
L 2156 4666 
L 531 -594 
L 0 -594 
L 1625 4666 
z
" transform="scale(0.015625)"/>
       <path id="DejaVuSans-Oblique-72" d="M 2853 2969 
Q 2766 3016 2653 3041 
Q 2541 3066 2413 3066 
Q 1953 3066 1609 2717 
Q 1266 2369 1153 1784 
L 800 0 
L 225 0 
L 909 3500 
L 1484 3500 
L 1375 2956 
Q 1603 3259 1920 3421 
Q 2238 3584 2597 3584 
Q 2691 3584 2781 3573 
Q 2872 3563 2963 3538 
L 2853 2969 
z
" transform="scale(0.015625)"/>
       <path id="DejaVuSans-32" d="M 1228 531 
L 3431 531 
L 3431 0 
L 469 0 
L 469 531 
Q 828 903 1448 1529 
Q 2069 2156 2228 2338 
Q 2531 2678 2651 2914 
Q 2772 3150 2772 3378 
Q 2772 3750 2511 3984 
Q 2250 4219 1831 4219 
Q 1534 4219 1204 4116 
Q 875 4013 500 3803 
L 500 4441 
Q 881 4594 1212 4672 
Q 1544 4750 1819 4750 
Q 2544 4750 2975 4387 
Q 3406 4025 3406 3419 
Q 3406 3131 3298 2873 
Q 3191 2616 2906 2266 
Q 2828 2175 2409 1742 
Q 1991 1309 1228 531 
z
" transform="scale(0.015625)"/>
       <path id="DejaVuSans-30" d="M 2034 4250 
Q 1547 4250 1301 3770 
Q 1056 3291 1056 2328 
Q 1056 1369 1301 889 
Q 1547 409 2034 409 
Q 2525 409 2770 889 
Q 3016 1369 3016 2328 
Q 3016 3291 2770 3770 
Q 2525 4250 2034 4250 
z
M 2034 4750 
Q 2819 4750 3233 4129 
Q 3647 3509 3647 2328 
Q 3647 1150 3233 529 
Q 2819 -91 2034 -91 
Q 1250 -91 836 529 
Q 422 1150 422 2328 
Q 422 3509 836 4129 
Q 1250 4750 2034 4750 
z
" transform="scale(0.015625)"/>
      </defs>
      <use xlink:href="#TimesNewRomanPSMT-64" transform="translate(0 0.765625)"/>
      <use xlink:href="#TimesNewRomanPSMT-69" transform="translate(50 0.765625)"/>
      <use xlink:href="#TimesNewRomanPSMT-76" transform="translate(77.783203 0.765625)"/>
      <use xlink:href="#TimesNewRomanPSMT-65" transform="translate(127.783203 0.765625)"/>
      <use xlink:href="#TimesNewRomanPSMT-72" transform="translate(172.167969 0.765625)"/>
      <use xlink:href="#TimesNewRomanPSMT-73" transform="translate(205.46875 0.765625)"/>
      <use xlink:href="#TimesNewRomanPSMT-69" transform="translate(244.384766 0.765625)"/>
      <use xlink:href="#TimesNewRomanPSMT-74" transform="translate(272.167969 0.765625)"/>
      <use xlink:href="#TimesNewRomanPSMT-79" transform="translate(299.951172 0.765625)"/>
      <use xlink:href="#TimesNewRomanPSMT-20" transform="translate(349.951172 0.765625)"/>
      <use xlink:href="#TimesNewRomanPSMT-61" transform="translate(374.951172 0.765625)"/>
      <use xlink:href="#TimesNewRomanPSMT-74" transform="translate(419.335938 0.765625)"/>
      <use xlink:href="#TimesNewRomanPSMT-20" transform="translate(447.119141 0.765625)"/>
      <use xlink:href="#TimesNewRomanPSMT-6f" transform="translate(472.119141 0.765625)"/>
      <use xlink:href="#TimesNewRomanPSMT-75" transform="translate(522.119141 0.765625)"/>
      <use xlink:href="#TimesNewRomanPSMT-74" transform="translate(572.119141 0.765625)"/>
      <use xlink:href="#TimesNewRomanPSMT-62" transform="translate(599.902344 0.765625)"/>
      <use xlink:href="#TimesNewRomanPSMT-72" transform="translate(649.902344 0.765625)"/>
      <use xlink:href="#TimesNewRomanPSMT-65" transform="translate(683.203125 0.765625)"/>
      <use xlink:href="#TimesNewRomanPSMT-61" transform="translate(727.587891 0.765625)"/>
      <use xlink:href="#TimesNewRomanPSMT-6b" transform="translate(771.972656 0.765625)"/>
      <use xlink:href="#TimesNewRomanPSMT-20" transform="translate(821.972656 0.765625)"/>
      <use xlink:href="#TimesNewRomanPSMT-70" transform="translate(846.972656 0.765625)"/>
      <use xlink:href="#TimesNewRomanPSMT-65" transform="translate(896.972656 0.765625)"/>
      <use xlink:href="#TimesNewRomanPSMT-61" transform="translate(941.357422 0.765625)"/>
      <use xlink:href="#TimesNewRomanPSMT-6b" transform="translate(985.742188 0.765625)"/>
      <use xlink:href="#TimesNewRomanPSMT-2c" transform="translate(1035.742188 0.765625)"/>
      <use xlink:href="#TimesNewRomanPSMT-20" transform="translate(1060.742188 0.765625)"/>
      <use xlink:href="#DejaVuSans-Oblique-56" transform="translate(1085.742188 0.765625)"/>
      <use xlink:href="#DejaVuSans-28" transform="translate(1154.150391 0.765625)"/>
      <use xlink:href="#DejaVuSans-Oblique-54" transform="translate(1193.164062 0.765625)"/>
      <use xlink:href="#DejaVuSans-29" transform="translate(1254.248047 0.765625)"/>
      <use xlink:href="#DejaVuSans-2f" transform="translate(1293.261719 0.765625)"/>
      <use xlink:href="#DejaVuSans-Oblique-72" transform="translate(1326.953125 0.765625)"/>
      <use xlink:href="#DejaVuSans-32" transform="translate(1372.716302 39.046875) scale(0.7)"/>
      <use xlink:href="#DejaVuSans-30" transform="translate(1368.066406 -26.578125) scale(0.7)"/>
     </g>
    </g>
   </g>
   <g id="matplotlib.axis_2">
    <g id="ytick_1">
     <g id="line2d_5">
      <defs>
       <path id="med9304d892" d="M 0 0 
L -3.5 0 
" style="stroke: #000000; stroke-width: 0.8"/>
      </defs>
      <g>
       <use xlink:href="#med9304d892" x="57.6" y="307.584" style="stroke: #000000; stroke-width: 0.8"/>
      </g>
     </g>
     <g id="text_6">
      <!-- 0.0 -->
      <g transform="translate(35.6 311.75025) scale(0.12 -0.12)">
       <use xlink:href="#TimesNewRomanPSMT-30"/>
       <use xlink:href="#TimesNewRomanPSMT-2e" x="50"/>
       <use xlink:href="#TimesNewRomanPSMT-30" x="75"/>
      </g>
     </g>
    </g>
    <g id="ytick_2">
     <g id="line2d_6">
      <g>
       <use xlink:href="#med9304d892" x="57.6" y="254.3616" style="stroke: #000000; stroke-width: 0.8"/>
      </g>
     </g>
     <g id="text_7">
      <!-- 0.1 -->
      <g transform="translate(35.6 258.52785) scale(0.12 -0.12)">
       <use xlink:href="#TimesNewRomanPSMT-30"/>
       <use xlink:href="#TimesNewRomanPSMT-2e" x="50"/>
       <use xlink:href="#TimesNewRomanPSMT-31" x="75"/>
      </g>
     </g>
    </g>
    <g id="ytick_3">
     <g id="line2d_7">
      <g>
       <use xlink:href="#med9304d892" x="57.6" y="201.1392" style="stroke: #000000; stroke-width: 0.8"/>
      </g>
     </g>
     <g id="text_8">
      <!-- 0.2 -->
      <g transform="translate(35.6 205.30545) scale(0.12 -0.12)">
       <use xlink:href="#TimesNewRomanPSMT-30"/>
       <use xlink:href="#TimesNewRomanPSMT-2e" x="50"/>
       <use xlink:href="#TimesNewRomanPSMT-32" x="75"/>
      </g>
     </g>
    </g>
    <g id="ytick_4">
     <g id="line2d_8">
      <g>
       <use xlink:href="#med9304d892" x="57.6" y="147.9168" style="stroke: #000000; stroke-width: 0.8"/>
      </g>
     </g>
     <g id="text_9">
      <!-- 0.3 -->
      <g transform="translate(35.6 152.08305) scale(0.12 -0.12)">
       <use xlink:href="#TimesNewRomanPSMT-30"/>
       <use xlink:href="#TimesNewRomanPSMT-2e" x="50"/>
       <use xlink:href="#TimesNewRomanPSMT-33" x="75"/>
      </g>
     </g>
    </g>
    <g id="ytick_5">
     <g id="line2d_9">
      <g>
       <use xlink:href="#med9304d892" x="57.6" y="94.6944" style="stroke: #000000; stroke-width: 0.8"/>
      </g>
     </g>
     <g id="text_10">
      <!-- 0.4 -->
      <g transform="translate(35.6 98.86065) scale(0.12 -0.12)">
       <use xlink:href="#TimesNewRomanPSMT-30"/>
       <use xlink:href="#TimesNewRomanPSMT-2e" x="50"/>
       <use xlink:href="#TimesNewRomanPSMT-34" x="75"/>
      </g>
     </g>
    </g>
    <g id="ytick_6">
     <g id="line2d_10">
      <g>
       <use xlink:href="#med9304d892" x="57.6" y="41.472" style="stroke: #000000; stroke-width: 0.8"/>
      </g>
     </g>
     <g id="text_11">
      <!-- 0.5 -->
      <g transform="translate(35.6 45.63825) scale(0.12 -0.12)">
       <defs>
        <path id="TimesNewRomanPSMT-35" d="M 2778 4238 
L 2534 3706 
L 1259 3706 
L 981 3138 
Q 1809 3016 2294 2522 
Q 2709 2097 2709 1522 
Q 2709 1188 2573 903 
Q 2438 619 2231 419 
Q 2025 219 1772 97 
Q 1413 -75 1034 -75 
Q 653 -75 479 54 
Q 306 184 306 341 
Q 306 428 378 495 
Q 450 563 559 563 
Q 641 563 702 538 
Q 763 513 909 409 
Q 1144 247 1384 247 
Q 1750 247 2026 523 
Q 2303 800 2303 1197 
Q 2303 1581 2056 1914 
Q 1809 2247 1375 2428 
Q 1034 2569 447 2591 
L 1259 4238 
L 2778 4238 
z
" transform="scale(0.015625)"/>
       </defs>
       <use xlink:href="#TimesNewRomanPSMT-30"/>
       <use xlink:href="#TimesNewRomanPSMT-2e" x="50"/>
       <use xlink:href="#TimesNewRomanPSMT-35" x="75"/>
      </g>
     </g>
    </g>
    <g id="text_12">
     <!-- escape probability -->
     <g transform="translate(32.010625 218.345812) rotate(-90) scale(0.12 -0.12)">
      <defs>
       <path id="TimesNewRomanPSMT-63" d="M 2631 1088 
Q 2516 522 2178 217 
Q 1841 -88 1431 -88 
Q 944 -88 581 321 
Q 219 731 219 1428 
Q 219 2103 620 2525 
Q 1022 2947 1584 2947 
Q 2006 2947 2278 2723 
Q 2550 2500 2550 2259 
Q 2550 2141 2473 2067 
Q 2397 1994 2259 1994 
Q 2075 1994 1981 2113 
Q 1928 2178 1911 2362 
Q 1894 2547 1784 2644 
Q 1675 2738 1481 2738 
Q 1169 2738 978 2506 
Q 725 2200 725 1697 
Q 725 1184 976 792 
Q 1228 400 1656 400 
Q 1963 400 2206 609 
Q 2378 753 2541 1131 
L 2631 1088 
z
" transform="scale(0.015625)"/>
       <path id="TimesNewRomanPSMT-6c" d="M 1184 4444 
L 1184 647 
Q 1184 378 1223 290 
Q 1263 203 1344 158 
Q 1425 113 1647 113 
L 1647 0 
L 244 0 
L 244 113 
Q 441 113 512 153 
Q 584 194 625 287 
Q 666 381 666 647 
L 666 3247 
Q 666 3731 644 3842 
Q 622 3953 573 3993 
Q 525 4034 450 4034 
Q 369 4034 244 3984 
L 191 4094 
L 1044 4444 
L 1184 4444 
z
" transform="scale(0.015625)"/>
      </defs>
      <use xlink:href="#TimesNewRomanPSMT-65"/>
      <use xlink:href="#TimesNewRomanPSMT-73" x="44.384766"/>
      <use xlink:href="#TimesNewRomanPSMT-63" x="83.300781"/>
      <use xlink:href="#TimesNewRomanPSMT-61" x="127.685547"/>
      <use xlink:href="#TimesNewRomanPSMT-70" x="172.070312"/>
      <use xlink:href="#TimesNewRomanPSMT-65" x="222.070312"/>
      <use xlink:href="#TimesNewRomanPSMT-20" x="266.455078"/>
      <use xlink:href="#TimesNewRomanPSMT-70" x="291.455078"/>
      <use xlink:href="#TimesNewRomanPSMT-72" x="341.455078"/>
      <use xlink:href="#TimesNewRomanPSMT-6f" x="374.755859"/>
      <use xlink:href="#TimesNewRomanPSMT-62" x="424.755859"/>
      <use xlink:href="#TimesNewRomanPSMT-61" x="474.755859"/>
      <use xlink:href="#TimesNewRomanPSMT-62" x="519.140625"/>
      <use xlink:href="#TimesNewRomanPSMT-69" x="569.140625"/>
      <use xlink:href="#TimesNewRomanPSMT-6c" x="596.923828"/>
      <use xlink:href="#TimesNewRomanPSMT-69" x="624.707031"/>
      <use xlink:href="#TimesNewRomanPSMT-74" x="652.490234"/>
      <use xlink:href="#TimesNewRomanPSMT-79" x="680.273438"/>
     </g>
    </g>
   </g>
   <g id="LineCollection_1">
    <path d="M 73.832727 247.0484 
L 73.832727 240.740656 
" clip-path="url(#p54a6f3ede0)" style="fill: none; stroke: #d3d3d3"/>
    <path d="M 136.636602 224.769523 
L 136.636602 217.603085 
" clip-path="url(#p54a6f3ede0)" style="fill: none; stroke: #d3d3d3"/>
    <path d="M 201.281616 198.89923 
L 201.281616 190.96061 
" clip-path="url(#p54a6f3ede0)" style="fill: none; stroke: #d3d3d3"/>
    <path d="M 265.371111 174.521742 
L 265.371111 166.018674 
" clip-path="url(#p54a6f3ede0)" style="fill: none; stroke: #d3d3d3"/>
    <path d="M 331.221796 154.481435 
L 331.221796 145.609957 
" clip-path="url(#p54a6f3ede0)" style="fill: none; stroke: #d3d3d3"/>
    <path d="M 398.487273 112.527667 
L 398.487273 103.117517 
" clip-path="url(#p54a6f3ede0)" style="fill: none; stroke: #d3d3d3"/>
   </g>
   <g id="line2d_11">
    <defs>
     <path id="m649c068f75" d="M 1 0 
L -1 -0 
" style="stroke: #d3d3d3"/>
    </defs>
    <g clip-path="url(#p54a6f3ede0)">
     <use xlink:href="#m649c068f75" x="73.832727" y="247.0484" style="fill: #d3d3d3; stroke: #d3d3d3"/>
     <use xlink:href="#m649c068f75" x="136.636602" y="224.769523" style="fill: #d3d3d3; stroke: #d3d3d3"/>
     <use xlink:href="#m649c068f75" x="201.281616" y="198.89923" style="fill: #d3d3d3; stroke: #d3d3d3"/>
     <use xlink:href="#m649c068f75" x="265.371111" y="174.521742" style="fill: #d3d3d3; stroke: #d3d3d3"/>
     <use xlink:href="#m649c068f75" x="331.221796" y="154.481435" style="fill: #d3d3d3; stroke: #d3d3d3"/>
     <use xlink:href="#m649c068f75" x="398.487273" y="112.527667" style="fill: #d3d3d3; stroke: #d3d3d3"/>
    </g>
   </g>
   <g id="line2d_12">
    <g clip-path="url(#p54a6f3ede0)">
     <use xlink:href="#m649c068f75" x="73.832727" y="240.740656" style="fill: #d3d3d3; stroke: #d3d3d3"/>
     <use xlink:href="#m649c068f75" x="136.636602" y="217.603085" style="fill: #d3d3d3; stroke: #d3d3d3"/>
     <use xlink:href="#m649c068f75" x="201.281616" y="190.96061" style="fill: #d3d3d3; stroke: #d3d3d3"/>
     <use xlink:href="#m649c068f75" x="265.371111" y="166.018674" style="fill: #d3d3d3; stroke: #d3d3d3"/>
     <use xlink:href="#m649c068f75" x="331.221796" y="145.609957" style="fill: #d3d3d3; stroke: #d3d3d3"/>
     <use xlink:href="#m649c068f75" x="398.487273" y="103.117517" style="fill: #d3d3d3; stroke: #d3d3d3"/>
    </g>
   </g>
   <g id="line2d_13">
    <path d="M 73.832727 246.372509 
L 77.112066 245.045286 
L 80.391405 243.718063 
L 83.670744 242.39084 
L 86.950083 241.063617 
L 90.229421 239.736394 
L 93.50876 238.409171 
L 96.788099 237.081949 
L 100.067438 235.754726 
L 103.346777 234.427503 
L 106.626116 233.10028 
L 109.905455 231.773057 
L 113.184793 230.445834 
L 116.464132 229.118611 
L 119.743471 227.791389 
L 123.02281 226.464166 
L 126.302149 225.136943 
L 129.581488 223.80972 
L 132.860826 222.482497 
L 136.140165 221.155274 
L 139.419504 219.828051 
L 142.698843 218.500829 
L 145.978182 217.173606 
L 149.257521 215.846383 
L 152.53686 214.51916 
L 155.816198 213.191937 
L 159.095537 211.864714 
L 162.374876 210.537491 
L 165.654215 209.210268 
L 168.933554 207.883046 
L 172.212893 206.555823 
L 175.492231 205.2286 
L 178.77157 203.901377 
L 182.050909 202.574154 
L 185.330248 201.246931 
L 188.609587 199.919708 
L 191.888926 198.592486 
L 195.168264 197.265263 
L 198.447603 195.93804 
L 201.726942 194.610817 
L 205.006281 193.283594 
L 208.28562 191.956371 
L 211.564959 190.629148 
L 214.844298 189.301926 
L 218.123636 187.974703 
L 221.402975 186.64748 
L 224.682314 185.320257 
L 227.961653 183.993034 
L 231.240992 182.665811 
L 234.520331 181.338588 
L 237.799669 180.011366 
L 241.079008 178.684143 
L 244.358347 177.35692 
L 247.637686 176.029697 
L 250.917025 174.702474 
L 254.196364 173.375251 
L 257.475702 172.048028 
L 260.755041 170.720806 
L 264.03438 169.393583 
L 267.313719 168.06636 
L 270.593058 166.739137 
L 273.872397 165.411914 
L 277.151736 164.084691 
L 280.431074 162.757468 
L 283.710413 161.430246 
L 286.989752 160.103023 
L 290.269091 158.7758 
L 293.54843 157.448577 
L 296.827769 156.121354 
L 300.107107 154.794131 
L 303.386446 153.466908 
L 306.665785 152.139686 
L 309.945124 150.812463 
L 313.224463 149.48524 
L 316.503802 148.158017 
L 319.78314 146.830794 
L 323.062479 145.503571 
L 326.341818 144.176348 
L 329.621157 142.849126 
L 332.900496 141.521903 
L 336.179835 140.19468 
L 339.459174 138.867457 
L 342.738512 137.540234 
L 346.017851 136.213011 
L 349.29719 134.885788 
L 352.576529 133.558566 
L 355.855868 132.231343 
L 359.135207 130.90412 
L 362.414545 129.576897 
L 365.693884 128.249674 
L 368.973223 126.922451 
L 372.252562 125.595228 
L 375.531901 124.268006 
L 378.81124 122.940783 
L 382.090579 121.61356 
L 385.369917 120.286337 
L 388.649256 118.959114 
L 391.928595 117.631891 
L 395.207934 116.304668 
L 398.487273 114.977445 
" clip-path="url(#p54a6f3ede0)" style="fill: none; stroke-dasharray: 5.55,2.4; stroke-dashoffset: 0; stroke: #ff0000; stroke-width: 1.5"/>
   </g>
   <g id="line2d_14">
    <defs>
     <path id="mbad10f6af6" d="M 0 3 
C 0.795609 3 1.55874 2.683901 2.12132 2.12132 
C 2.683901 1.55874 3 0.795609 3 0 
C 3 -0.795609 2.683901 -1.55874 2.12132 -2.12132 
C 1.55874 -2.683901 0.795609 -3 0 -3 
C -0.795609 -3 -1.55874 -2.683901 -2.12132 -2.12132 
C -2.683901 -1.55874 -3 -0.795609 -3 0 
C -3 0.795609 -2.683901 1.55874 -2.12132 2.12132 
C -1.55874 2.683901 -0.795609 3 0 3 
z
" style="stroke: #0000ff"/>
    </defs>
    <g clip-path="url(#p54a6f3ede0)">
     <use xlink:href="#mbad10f6af6" x="73.832727" y="243.894528" style="fill: #0000ff; stroke: #0000ff"/>
     <use xlink:href="#mbad10f6af6" x="136.636602" y="221.186304" style="fill: #0000ff; stroke: #0000ff"/>
     <use xlink:href="#mbad10f6af6" x="201.281616" y="194.92992" style="fill: #0000ff; stroke: #0000ff"/>
     <use xlink:href="#mbad10f6af6" x="265.371111" y="170.270208" style="fill: #0000ff; stroke: #0000ff"/>
     <use xlink:href="#mbad10f6af6" x="331.221796" y="150.045696" style="fill: #0000ff; stroke: #0000ff"/>
     <use xlink:href="#mbad10f6af6" x="398.487273" y="107.822592" style="fill: #0000ff; stroke: #0000ff"/>
    </g>
   </g>
   <g id="patch_3">
    <path d="M 57.6 307.584 
L 57.6 41.472 
" style="fill: none; stroke: #000000; stroke-width: 0.8; stroke-linejoin: miter; stroke-linecap: square"/>
   </g>
   <g id="patch_4">
    <path d="M 414.72 307.584 
L 414.72 41.472 
" style="fill: none; stroke: #000000; stroke-width: 0.8; stroke-linejoin: miter; stroke-linecap: square"/>
   </g>
   <g id="patch_5">
    <path d="M 57.6 307.584 
L 414.72 307.584 
" style="fill: none; stroke: #000000; stroke-width: 0.8; stroke-linejoin: miter; stroke-linecap: square"/>
   </g>
   <g id="patch_6">
    <path d="M 57.6 41.472 
L 414.72 41.472 
" style="fill: none; stroke: #000000; stroke-width: 0.8; stroke-linejoin: miter; stroke-linecap: square"/>
   </g>
   <g id="patch_7">
    <path d="M 364.645028 227.664388 
Q 378.904016 176.78024 393.163004 125.896091 
L 390.996462 125.288972 
Q 392.875059 123.217611 394.753657 121.146249 
Q 395.282329 123.892187 395.811001 126.638125 
L 393.644458 126.031006 
Q 379.38547 176.915155 365.126482 227.799304 
L 364.645028 227.664388 
z
" style="stroke: #000000; stroke-linecap: round"/>
   </g>
   <g id="patch_8">
    <path d="M 139.79503 121.708648 
Q 111.759691 173.864588 83.724352 226.020527 
L 85.706183 227.085819 
Q 83.421906 228.695286 81.137628 230.304753 
Q 81.219871 227.511628 81.302115 224.718504 
L 83.283946 225.783796 
Q 111.319285 173.627856 139.354623 121.471916 
L 139.79503 121.708648 
z
" style="stroke: #000000; stroke-linecap: round"/>
   </g>
   <g id="axes_2">
    <g id="patch_9">
     <path d="M 111.168 147.9168 
L 218.304 147.9168 
L 218.304 68.0832 
L 111.168 68.0832 
z
" style="fill: #ffffff"/>
    </g>
    <g id="matplotlib.axis_3">
     <g id="text_13">
      <!-- $x$ -->
      <g transform="translate(161.136 160.2493) scale(0.12 -0.12)">
       <defs>
        <path id="DejaVuSans-Oblique-78" d="M 3841 3500 
L 2234 1784 
L 3219 0 
L 2559 0 
L 1819 1388 
L 531 0 
L -166 0 
L 1556 1844 
L 641 3500 
L 1300 3500 
L 1972 2234 
L 3144 3500 
L 3841 3500 
z
" transform="scale(0.015625)"/>
       </defs>
       <use xlink:href="#DejaVuSans-Oblique-78" transform="translate(0 0.3125)"/>
      </g>
     </g>
    </g>
    <g id="matplotlib.axis_4">
     <g id="text_14">
      <!-- $n(x,T)$ -->
      <g transform="translate(104.601125 126.78) rotate(-90) scale(0.12 -0.12)">
       <defs>
        <path id="DejaVuSans-Oblique-6e" d="M 3566 2113 
L 3156 0 
L 2578 0 
L 2988 2091 
Q 3016 2238 3031 2350 
Q 3047 2463 3047 2528 
Q 3047 2791 2881 2937 
Q 2716 3084 2419 3084 
Q 1956 3084 1622 2776 
Q 1288 2469 1184 1941 
L 800 0 
L 225 0 
L 903 3500 
L 1478 3500 
L 1363 2950 
Q 1603 3253 1940 3418 
Q 2278 3584 2650 3584 
Q 3113 3584 3367 3334 
Q 3622 3084 3622 2631 
Q 3622 2519 3608 2391 
Q 3594 2263 3566 2113 
z
" transform="scale(0.015625)"/>
        <path id="DejaVuSans-2c" d="M 750 794 
L 1409 794 
L 1409 256 
L 897 -744 
L 494 -744 
L 750 256 
L 750 794 
z
" transform="scale(0.015625)"/>
       </defs>
       <use xlink:href="#DejaVuSans-Oblique-6e" transform="translate(0 0.125)"/>
       <use xlink:href="#DejaVuSans-28" transform="translate(63.378906 0.125)"/>
       <use xlink:href="#DejaVuSans-Oblique-78" transform="translate(102.392578 0.125)"/>
       <use xlink:href="#DejaVuSans-2c" transform="translate(161.572266 0.125)"/>
       <use xlink:href="#DejaVuSans-Oblique-54" transform="translate(212.841797 0.125)"/>
       <use xlink:href="#DejaVuSans-29" transform="translate(273.925781 0.125)"/>
      </g>
     </g>
    </g>
    <g id="line2d_15">
     <path d="M 124.839176 147.9168 
L 125.645173 147.9168 
L 126.451169 147.9168 
L 127.257166 147.9168 
L 128.063162 147.9168 
L 128.869158 147.9168 
L 129.675155 147.9168 
L 130.481151 147.9168 
L 131.287148 147.9168 
L 132.093144 147.9168 
L 132.899141 147.9168 
L 133.705137 147.9168 
L 134.511134 147.9168 
L 135.31713 147.9168 
L 136.123126 147.9168 
L 136.929123 147.9168 
L 137.735119 147.916799 
L 138.541116 147.916798 
L 139.347112 147.916795 
L 140.153109 147.916785 
L 140.959105 147.916759 
L 141.765101 147.916692 
L 142.571098 147.916528 
L 143.377094 147.916137 
L 144.183091 147.915234 
L 144.989087 147.913221 
L 145.795084 147.908888 
L 146.60108 147.899876 
L 147.407077 147.881776 
L 148.213073 147.846678 
L 149.019069 147.780971 
L 149.825066 147.66225 
L 150.631062 147.455274 
L 151.437059 147.107215 
L 152.243055 146.542847 
L 153.049052 145.660875 
L 153.855048 144.333193 
L 154.661045 142.409239 
L 155.467041 139.727601 
L 156.273037 136.136219 
L 157.079034 131.520905 
L 157.88503 125.839462 
L 158.691027 119.155968 
L 159.497023 111.667524 
L 160.30302 103.714955 
L 161.109016 95.770367 
L 161.915012 88.3983 
L 162.721009 82.193025 
L 163.527005 77.700784 
L 164.333002 75.3408 
L 165.138998 75.3408 
L 165.944995 77.700784 
L 166.750991 82.193025 
L 167.556988 88.3983 
L 168.362984 95.770367 
L 169.16898 103.714955 
L 169.974977 111.667524 
L 170.780973 119.155968 
L 171.58697 125.839462 
L 172.392966 131.520905 
L 173.198963 136.136219 
L 174.004959 139.727601 
L 174.810955 142.409239 
L 175.616952 144.333193 
L 176.422948 145.660875 
L 177.228945 146.542847 
L 178.034941 147.107215 
L 178.840938 147.455274 
L 179.646934 147.66225 
L 180.452931 147.780971 
L 181.258927 147.846678 
L 182.064923 147.881776 
L 182.87092 147.899876 
L 183.676916 147.908888 
L 184.482913 147.913221 
L 185.288909 147.915234 
L 186.094906 147.916137 
L 186.900902 147.916528 
L 187.706899 147.916692 
L 188.512895 147.916759 
L 189.318891 147.916785 
L 190.124888 147.916795 
L 190.930884 147.916798 
L 191.736881 147.916799 
L 192.542877 147.9168 
L 193.348874 147.9168 
L 194.15487 147.9168 
L 194.960866 147.9168 
L 195.766863 147.9168 
L 196.572859 147.9168 
L 197.378856 147.9168 
L 198.184852 147.9168 
L 198.990849 147.9168 
L 199.796845 147.9168 
L 200.602842 147.9168 
L 201.408838 147.9168 
L 202.214834 147.9168 
L 203.020831 147.9168 
L 203.826827 147.9168 
L 204.632824 147.9168 
" clip-path="url(#p5fe8bdec9b)" style="fill: none; stroke: #000000; stroke-width: 1.5; stroke-linecap: square"/>
    </g>
    <g id="patch_10">
     <path d="M 111.168 147.9168 
L 111.168 68.0832 
" style="fill: none; stroke: #000000; stroke-width: 0.8; stroke-linejoin: miter; stroke-linecap: square"/>
    </g>
    <g id="patch_11">
     <path d="M 218.304 147.9168 
L 218.304 68.0832 
" style="fill: none; stroke: #000000; stroke-width: 0.8; stroke-linejoin: miter; stroke-linecap: square"/>
    </g>
    <g id="patch_12">
     <path d="M 111.168 147.9168 
L 218.304 147.9168 
" style="fill: none; stroke: #000000; stroke-width: 0.8; stroke-linejoin: miter; stroke-linecap: square"/>
    </g>
    <g id="patch_13">
     <path d="M 111.168 68.0832 
L 218.304 68.0832 
" style="fill: none; stroke: #000000; stroke-width: 0.8; stroke-linejoin: miter; stroke-linecap: square"/>
    </g>
   </g>
   <g id="axes_3">
    <g id="patch_14">
     <path d="M 296.8704 267.6672 
L 404.0064 267.6672 
L 404.0064 187.8336 
L 296.8704 187.8336 
z
" style="fill: #ffffff"/>
    </g>
    <g id="matplotlib.axis_5">
     <g id="text_15">
      <!-- $x$ -->
      <g transform="translate(346.8384 279.9997) scale(0.12 -0.12)">
       <use xlink:href="#DejaVuSans-Oblique-78" transform="translate(0 0.3125)"/>
      </g>
     </g>
    </g>
    <g id="matplotlib.axis_6">
     <g id="text_16">
      <!-- $n(x,T)$ -->
      <g transform="translate(290.303525 246.5304) rotate(-90) scale(0.12 -0.12)">
       <use xlink:href="#DejaVuSans-Oblique-6e" transform="translate(0 0.125)"/>
       <use xlink:href="#DejaVuSans-28" transform="translate(63.378906 0.125)"/>
       <use xlink:href="#DejaVuSans-Oblique-78" transform="translate(102.392578 0.125)"/>
       <use xlink:href="#DejaVuSans-2c" transform="translate(161.572266 0.125)"/>
       <use xlink:href="#DejaVuSans-Oblique-54" transform="translate(212.841797 0.125)"/>
       <use xlink:href="#DejaVuSans-29" transform="translate(273.925781 0.125)"/>
      </g>
     </g>
    </g>
    <g id="line2d_16">
     <path d="M 228.004844 267.6672 
L 230.478249 267.6672 
L 232.951654 267.6672 
L 235.425059 267.6672 
L 237.898464 267.6672 
L 240.37187 267.6672 
L 242.845275 267.6672 
L 245.31868 267.6672 
L 247.792085 267.6672 
L 250.26549 267.6672 
L 252.738895 267.6672 
L 255.212301 267.6672 
L 257.685706 267.6672 
L 260.159111 267.6672 
L 262.632516 267.6672 
L 265.105921 267.6672 
L 267.579327 267.6672 
L 270.052732 267.667199 
L 272.526137 267.667198 
L 274.999542 267.667195 
L 277.472947 267.667187 
L 279.946352 267.667165 
L 282.419758 267.667111 
L 284.893163 267.666984 
L 287.366568 267.66669 
L 289.839973 267.666034 
L 292.313378 267.664622 
L 294.786783 267.661685 
L 297.260189 267.655787 
L 299.733594 267.64435 
L 302.206999 267.622938 
L 304.680404 267.584251 
L 307.153809 267.516805 
L 309.627215 267.403384 
L 312.10062 267.219477 
L 314.574025 266.932073 
L 317.04743 266.499428 
L 319.520835 265.872478 
L 321.99424 264.998626 
L 324.467646 263.82832 
L 326.941051 262.32435 
L 329.414456 260.472966 
L 331.887861 258.295049 
L 334.361266 255.854826 
L 336.834672 253.263361 
L 339.308077 250.674497 
L 341.781482 248.272198 
L 344.254887 246.250115 
L 346.728292 244.78625 
L 349.201697 244.017214 
L 351.675103 244.017214 
L 354.148508 244.78625 
L 356.621913 246.250115 
L 359.095318 248.272198 
L 361.568723 250.674497 
L 364.042128 253.263361 
L 366.515534 255.854826 
L 368.988939 258.295049 
L 371.462344 260.472966 
L 373.935749 262.32435 
L 376.409154 263.82832 
L 378.88256 264.998626 
L 381.355965 265.872478 
L 383.82937 266.499428 
L 386.302775 266.932073 
L 388.77618 267.219477 
L 391.249585 267.403384 
L 393.722991 267.516805 
L 396.196396 267.584251 
L 398.669801 267.622938 
L 401.143206 267.64435 
L 403.616611 267.655787 
L 406.090017 267.661685 
L 408.563422 267.664622 
L 411.036827 267.666034 
L 413.510232 267.66669 
L 415.983637 267.666984 
L 418.457042 267.667111 
L 420.930448 267.667165 
L 423.403853 267.667187 
L 425.877258 267.667195 
L 428.350663 267.667198 
L 430.824068 267.667199 
L 433.297473 267.6672 
L 435.770879 267.6672 
L 438.244284 267.6672 
L 440.717689 267.6672 
L 443.191094 267.6672 
L 445.664499 267.6672 
L 448.137905 267.6672 
L 450.61131 267.6672 
L 453.084715 267.6672 
L 455.55812 267.6672 
L 458.031525 267.6672 
L 460.50493 267.6672 
L 461.8 267.6672 
" clip-path="url(#p03d030cf88)" style="fill: none; stroke: #000000; stroke-width: 1.5; stroke-linecap: square"/>
    </g>
    <g id="patch_15">
     <path d="M 296.8704 267.6672 
L 296.8704 187.8336 
" style="fill: none; stroke: #000000; stroke-width: 0.8; stroke-linejoin: miter; stroke-linecap: square"/>
    </g>
    <g id="patch_16">
     <path d="M 404.0064 267.6672 
L 404.0064 187.8336 
" style="fill: none; stroke: #000000; stroke-width: 0.8; stroke-linejoin: miter; stroke-linecap: square"/>
    </g>
    <g id="patch_17">
     <path d="M 296.8704 267.6672 
L 404.0064 267.6672 
" style="fill: none; stroke: #000000; stroke-width: 0.8; stroke-linejoin: miter; stroke-linecap: square"/>
    </g>
    <g id="patch_18">
     <path d="M 296.8704 187.8336 
L 404.0064 187.8336 
" style="fill: none; stroke: #000000; stroke-width: 0.8; stroke-linejoin: miter; stroke-linecap: square"/>
    </g>
   </g>
   <g id="legend_1">
    <g id="line2d_17">
     <path d="M 332.596406 52.722 
L 341.596406 52.722 
L 350.596406 52.722 
" style="fill: none; stroke-dasharray: 5.55,2.4; stroke-dashoffset: 0; stroke: #ff0000; stroke-width: 1.5"/>
    </g>
    <g id="text_17">
     <!-- slope = 21.10 -->
     <g transform="translate(357.796406 55.872) scale(0.09 -0.09)">
      <defs>
       <path id="TimesNewRomanPSMT-3d" d="M 116 2759 
L 3488 2759 
L 3488 2503 
L 116 2503 
L 116 2759 
z
M 116 1741 
L 3488 1741 
L 3488 1484 
L 116 1484 
L 116 1741 
z
" transform="scale(0.015625)"/>
      </defs>
      <use xlink:href="#TimesNewRomanPSMT-73"/>
      <use xlink:href="#TimesNewRomanPSMT-6c" x="38.916016"/>
      <use xlink:href="#TimesNewRomanPSMT-6f" x="66.699219"/>
      <use xlink:href="#TimesNewRomanPSMT-70" x="116.699219"/>
      <use xlink:href="#TimesNewRomanPSMT-65" x="166.699219"/>
      <use xlink:href="#TimesNewRomanPSMT-20" x="211.083984"/>
      <use xlink:href="#TimesNewRomanPSMT-3d" x="236.083984"/>
      <use xlink:href="#TimesNewRomanPSMT-20" x="292.480469"/>
      <use xlink:href="#TimesNewRomanPSMT-32" x="317.480469"/>
      <use xlink:href="#TimesNewRomanPSMT-31" x="367.480469"/>
      <use xlink:href="#TimesNewRomanPSMT-2e" x="417.480469"/>
      <use xlink:href="#TimesNewRomanPSMT-31" x="442.480469"/>
      <use xlink:href="#TimesNewRomanPSMT-30" x="492.480469"/>
     </g>
    </g>
   </g>
  </g>
 </g>
 <defs>
  <clipPath id="p54a6f3ede0">
   <rect x="57.6" y="41.472" width="357.12" height="266.112"/>
  </clipPath>
  <clipPath id="p5fe8bdec9b">
   <rect x="111.168" y="68.0832" width="107.136" height="79.8336"/>
  </clipPath>
  <clipPath id="p03d030cf88">
   <rect x="296.8704" y="187.8336" width="107.136" height="79.8336"/>
  </clipPath>
 </defs>
</svg>
