<?xml version="1.0" encoding="utf-8" standalone="no"?>
<!DOCTYPE svg PUBLIC "-//W3C//DTD SVG 1.1//EN"
  "http://www.w3.org/Graphics/SVG/1.1/DTD/svg11.dtd">
<svg xmlns:xlink="http://www.w3.org/1999/xlink" width="460.8pt" height="345.6pt" viewBox="0 0 460.8 345.6" xmlns="http://www.w3.org/2000/svg" version="1.1">
 <metadata>
  <rdf:RDF xmlns:dc="http://purl.org/dc/elements/1.1/" xmlns:cc="http://creativecommons.org/ns#" xmlns:rdf="http://www.w3.org/1999/02/22-rdf-syntax-ns#">
   <cc:Work>
    <dc:type rdf:resource="http://purl.org/dc/dcmitype/StillImage"/>
    <dc:date>2024-10-23T17:44:27.554640</dc:date>
    <dc:format>image/svg+xml</dc:format>
    <dc:creator>
     <cc:Agent>
      <dc:title>Matplotlib v3.7.1, https://matplotlib.org/</dc:title>
     </cc:Agent>
    </dc:creator>
   </cc:Work>
  </rdf:RDF>
 </metadata>
 <defs>
  <style type="text/css">*{stroke-linejoin: round; stroke-linecap: butt}</style>
 </defs>
 <g id="figure_1">
  <g id="patch_1">
   <path d="M 0 345.6 
L 460.8 345.6 
L 460.8 0 
L 0 0 
z
" style="fill: #ffffff"/>
  </g>
  <g id="axes_1">
   <g id="patch_2">
    <path d="M 57.6 307.584 
L 414.72 307.584 
L 414.72 41.472 
L 57.6 41.472 
z
" style="fill: #ffffff"/>
   </g>
   <g id="PolyCollection_1">
    <defs>
     <path id="m508e4aecdc" d="M 73.832727 -38.016 
L 73.832727 -38.016944 
L 74.157707 -38.016993 
L 74.482686 -38.017044 
L 74.807666 -38.017097 
L 75.132645 -38.017153 
L 75.457625 -38.017212 
L 75.782604 -38.017273 
L 76.107584 -38.017337 
L 76.432563 -38.017405 
L 76.757543 -38.017476 
L 77.082523 -38.01755 
L 77.407502 -38.017628 
L 77.732482 -38.01771 
L 78.057461 -38.017795 
L 78.382441 -38.017885 
L 78.70742 -38.017979 
L 79.0324 -38.018077 
L 79.357379 -38.01818 
L 79.682359 -38.018288 
L 80.007338 -38.018401 
L 80.332318 -38.018519 
L 80.657297 -38.018643 
L 80.982277 -38.018772 
L 81.307256 -38.018908 
L 81.632236 -38.01905 
L 81.957215 -38.019199 
L 82.282195 -38.019355 
L 82.607174 -38.019517 
L 82.932154 -38.019688 
L 83.257133 -38.019866 
L 83.582113 -38.020052 
L 83.907093 -38.020247 
L 84.232072 -38.020451 
L 84.557052 -38.020665 
L 84.882031 -38.020887 
L 85.207011 -38.021121 
L 85.53199 -38.021364 
L 85.85697 -38.021619 
L 86.181949 -38.021885 
L 86.506929 -38.022163 
L 86.831908 -38.022454 
L 87.156888 -38.022758 
L 87.481867 -38.023075 
L 87.806847 -38.023407 
L 88.131826 -38.023753 
L 88.456806 -38.024115 
L 88.781785 -38.024493 
L 89.106765 -38.024887 
L 89.431744 -38.025299 
L 89.756724 -38.025728 
L 90.081704 -38.026177 
L 90.406683 -38.026645 
L 90.731663 -38.027134 
L 91.056642 -38.027644 
L 91.381622 -38.028176 
L 91.706601 -38.028732 
L 92.031581 -38.029311 
L 92.35656 -38.029915 
L 92.68154 -38.030545 
L 93.006519 -38.031202 
L 93.331499 -38.031888 
L 93.656478 -38.032602 
L 93.981458 -38.033347 
L 94.306437 -38.034123 
L 94.631417 -38.034933 
L 94.956396 -38.035776 
L 95.281376 -38.036655 
L 95.606355 -38.037571 
L 95.931335 -38.038525 
L 96.256314 -38.039519 
L 96.581294 -38.040555 
L 96.906274 -38.041633 
L 97.231253 -38.042757 
L 97.556233 -38.043926 
L 97.881212 -38.045144 
L 98.206192 -38.046412 
L 98.531171 -38.047732 
L 98.856151 -38.049106 
L 99.18113 -38.050536 
L 99.50611 -38.052024 
L 99.831089 -38.053572 
L 100.156069 -38.055183 
L 100.481048 -38.056859 
L 100.806028 -38.058602 
L 101.131007 -38.060416 
L 101.455987 -38.062302 
L 101.780966 -38.064263 
L 102.105946 -38.066302 
L 102.430925 -38.068422 
L 102.755905 -38.070626 
L 103.080885 -38.072917 
L 103.405864 -38.075298 
L 103.730844 -38.077772 
L 104.055823 -38.080343 
L 104.380803 -38.083015 
L 104.705782 -38.08579 
L 105.030762 -38.088673 
L 105.355741 -38.091668 
L 105.680721 -38.094778 
L 106.0057 -38.098008 
L 106.33068 -38.101362 
L 106.655659 -38.104844 
L 106.980639 -38.108458 
L 107.305618 -38.11221 
L 107.630598 -38.116105 
L 107.955577 -38.120146 
L 108.280557 -38.12434 
L 108.605536 -38.128691 
L 108.930516 -38.133206 
L 109.255495 -38.137889 
L 109.580475 -38.142746 
L 109.905455 -38.147784 
L 110.230434 -38.153009 
L 110.555414 -38.158426 
L 110.880393 -38.164042 
L 111.205373 -38.169865 
L 111.530352 -38.175901 
L 111.855332 -38.182156 
L 112.180311 -38.18864 
L 112.505291 -38.195358 
L 112.83027 -38.202319 
L 113.15525 -38.20953 
L 113.480229 -38.217001 
L 113.805209 -38.224739 
L 114.130188 -38.232754 
L 114.455168 -38.241053 
L 114.780147 -38.249647 
L 115.105127 -38.258545 
L 115.430106 -38.267756 
L 115.755086 -38.277291 
L 116.080066 -38.28716 
L 116.405045 -38.297373 
L 116.730025 -38.307942 
L 117.055004 -38.318878 
L 117.379984 -38.330192 
L 117.704963 -38.341895 
L 118.029943 -38.354001 
L 118.354922 -38.366522 
L 118.679902 -38.379469 
L 119.004881 -38.392857 
L 119.329861 -38.4067 
L 119.65484 -38.42101 
L 119.97982 -38.435802 
L 120.304799 -38.451091 
L 120.629779 -38.466891 
L 120.954758 -38.483218 
L 121.279738 -38.500088 
L 121.604717 -38.517517 
L 121.929697 -38.535522 
L 122.254676 -38.554119 
L 122.579656 -38.573325 
L 122.904636 -38.59316 
L 123.229615 -38.61364 
L 123.554595 -38.634785 
L 123.879574 -38.656614 
L 124.204554 -38.679147 
L 124.529533 -38.702403 
L 124.854513 -38.726404 
L 125.179492 -38.751171 
L 125.504472 -38.776724 
L 125.829451 -38.803087 
L 126.154431 -38.830282 
L 126.47941 -38.858332 
L 126.80439 -38.887262 
L 127.129369 -38.917094 
L 127.454349 -38.947854 
L 127.779328 -38.979568 
L 128.104308 -39.012262 
L 128.429287 -39.045961 
L 128.754267 -39.080694 
L 129.079247 -39.116488 
L 129.404226 -39.153371 
L 129.729206 -39.191373 
L 130.054185 -39.230522 
L 130.379165 -39.27085 
L 130.704144 -39.312387 
L 131.029124 -39.355165 
L 131.354103 -39.399216 
L 131.679083 -39.444572 
L 132.004062 -39.491268 
L 132.329042 -39.539338 
L 132.654021 -39.588816 
L 132.979001 -39.639739 
L 133.30398 -39.692142 
L 133.62896 -39.746064 
L 133.953939 -39.801541 
L 134.278919 -39.858612 
L 134.603898 -39.917317 
L 134.928878 -39.977696 
L 135.253857 -40.039789 
L 135.578837 -40.103639 
L 135.903817 -40.169287 
L 136.228796 -40.236777 
L 136.553776 -40.306153 
L 136.878755 -40.37746 
L 137.203735 -40.450743 
L 137.528714 -40.526048 
L 137.853694 -40.603424 
L 138.178673 -40.682917 
L 138.503653 -40.764578 
L 138.828632 -40.848454 
L 139.153612 -40.934598 
L 139.478591 -41.023061 
L 139.803571 -41.113895 
L 140.12855 -41.207152 
L 140.45353 -41.302888 
L 140.778509 -41.401156 
L 141.103489 -41.502013 
L 141.428468 -41.605515 
L 141.753448 -41.71172 
L 142.078428 -41.820686 
L 142.403407 -41.932473 
L 142.728387 -42.04714 
L 143.053366 -42.164748 
L 143.378346 -42.28536 
L 143.703325 -42.409038 
L 144.028305 -42.535846 
L 144.353284 -42.665848 
L 144.678264 -42.79911 
L 145.003243 -42.935699 
L 145.328223 -43.075681 
L 145.653202 -43.219124 
L 145.978182 -43.366098 
L 146.303161 -43.516673 
L 146.628141 -43.670919 
L 146.95312 -43.828907 
L 147.2781 -43.990711 
L 147.603079 -44.156403 
L 147.928059 -44.326058 
L 148.253038 -44.49975 
L 148.578018 -44.677557 
L 148.902998 -44.859553 
L 149.227977 -45.045818 
L 149.552957 -45.236428 
L 149.877936 -45.431464 
L 150.202916 -45.631005 
L 150.527895 -45.835131 
L 150.852875 -46.043926 
L 151.177854 -46.257469 
L 151.502834 -46.475846 
L 151.827813 -46.699138 
L 152.152793 -46.927431 
L 152.477772 -47.16081 
L 152.802752 -47.399361 
L 153.127731 -47.64317 
L 153.452711 -47.892324 
L 153.77769 -48.146911 
L 154.10267 -48.40702 
L 154.427649 -48.672738 
L 154.752629 -48.944157 
L 155.077609 -49.221366 
L 155.402588 -49.504455 
L 155.727568 -49.793516 
L 156.052547 -50.088641 
L 156.377527 -50.38992 
L 156.702506 -50.697448 
L 157.027486 -51.011316 
L 157.352465 -51.331619 
L 157.677445 -51.658449 
L 158.002424 -51.9919 
L 158.327404 -52.332067 
L 158.652383 -52.679045 
L 158.977363 -53.032927 
L 159.302342 -53.393809 
L 159.627322 -53.761786 
L 159.952301 -54.136953 
L 160.277281 -54.519405 
L 160.60226 -54.909237 
L 160.92724 -55.306546 
L 161.252219 -55.711425 
L 161.577199 -56.12397 
L 161.902179 -56.544277 
L 162.227158 -56.97244 
L 162.552138 -57.408554 
L 162.877117 -57.852714 
L 163.202097 -58.305014 
L 163.527076 -58.765547 
L 163.852056 -59.234407 
L 164.177035 -59.711688 
L 164.502015 -60.197482 
L 164.826994 -60.691882 
L 165.151974 -61.194978 
L 165.476953 -61.706862 
L 165.801933 -62.227624 
L 166.126912 -62.757355 
L 166.451892 -63.296142 
L 166.776871 -63.844075 
L 167.101851 -64.401239 
L 167.42683 -64.967722 
L 167.75181 -65.543609 
L 168.07679 -66.128984 
L 168.401769 -66.72393 
L 168.726749 -67.328529 
L 169.051728 -67.942863 
L 169.376708 -68.567011 
L 169.701687 -69.20105 
L 170.026667 -69.845059 
L 170.351646 -70.499113 
L 170.676626 -71.163285 
L 171.001605 -71.837648 
L 171.326585 -72.522273 
L 171.651564 -73.217229 
L 171.976544 -73.922583 
L 172.301523 -74.638401 
L 172.626503 -75.364747 
L 172.951482 -76.101683 
L 173.276462 -76.849267 
L 173.601441 -77.607559 
L 173.926421 -78.376614 
L 174.2514 -79.156484 
L 174.57638 -79.947222 
L 174.90136 -80.748877 
L 175.226339 -81.561494 
L 175.551319 -82.385118 
L 175.876298 -83.21979 
L 176.201278 -84.06555 
L 176.526257 -84.922434 
L 176.851237 -85.790475 
L 177.176216 -86.669705 
L 177.501196 -87.560151 
L 177.826175 -88.461839 
L 178.151155 -89.374791 
L 178.476134 -90.299026 
L 178.801114 -91.234561 
L 179.126093 -92.181408 
L 179.451073 -93.139578 
L 179.776052 -94.109076 
L 180.101032 -95.089907 
L 180.426011 -96.082069 
L 180.750991 -97.085561 
L 181.075971 -98.100373 
L 181.40095 -99.126497 
L 181.72593 -100.163917 
L 182.050909 -101.212615 
L 182.375889 -102.272571 
L 182.700868 -103.343759 
L 183.025848 -104.426149 
L 183.350827 -105.519709 
L 183.675807 -106.624401 
L 184.000786 -107.740185 
L 184.325766 -108.867015 
L 184.650745 -110.004842 
L 184.975725 -111.153613 
L 185.300704 -112.313272 
L 185.625684 -113.483755 
L 185.950663 -114.664997 
L 186.275643 -115.856929 
L 186.600622 -117.059475 
L 186.925602 -118.272557 
L 187.250581 -119.496091 
L 187.575561 -120.72999 
L 187.900541 -121.974161 
L 188.22552 -123.228509 
L 188.5505 -124.492931 
L 188.875479 -125.767322 
L 189.200459 -127.051572 
L 189.525438 -128.345565 
L 189.850418 -129.649182 
L 190.175397 -130.962299 
L 190.500377 -132.284788 
L 190.825356 -133.616513 
L 191.150336 -134.957337 
L 191.475315 -136.307118 
L 191.800295 -137.665707 
L 192.125274 -139.032953 
L 192.450254 -140.408697 
L 192.775233 -141.792778 
L 193.100213 -143.185031 
L 193.425192 -144.585282 
L 193.750172 -145.993357 
L 194.075152 -147.409075 
L 194.400131 -148.83225 
L 194.725111 -150.262693 
L 195.05009 -151.700209 
L 195.37507 -153.144598 
L 195.700049 -154.595656 
L 196.025029 -156.053175 
L 196.350008 -157.516942 
L 196.674988 -158.986739 
L 196.999967 -160.462344 
L 197.324947 -161.943531 
L 197.649926 -163.430067 
L 197.974906 -164.921718 
L 198.299885 -166.418244 
L 198.624865 -167.919401 
L 198.949844 -169.42494 
L 199.274824 -170.934608 
L 199.599803 -172.44815 
L 199.924783 -173.965303 
L 200.249762 -175.485802 
L 200.574742 -177.00938 
L 200.899722 -178.535763 
L 201.224701 -180.064674 
L 201.549681 -181.595833 
L 201.87466 -183.128955 
L 202.19964 -184.663752 
L 202.524619 -186.199934 
L 202.849599 -187.737205 
L 203.174578 -189.275267 
L 203.499558 -190.813817 
L 203.824537 -192.352552 
L 204.149517 -193.891163 
L 204.474496 -195.429339 
L 204.799476 -196.966767 
L 205.124455 -198.503128 
L 205.449435 -200.038104 
L 205.774414 -201.571371 
L 206.099394 -203.102606 
L 206.424373 -204.631481 
L 206.749353 -206.157667 
L 207.074333 -207.68083 
L 207.399312 -209.200639 
L 207.724292 -210.716755 
L 208.049271 -212.228843 
L 208.374251 -213.736561 
L 208.69923 -215.239569 
L 209.02421 -216.737524 
L 209.349189 -218.230082 
L 209.674169 -219.716897 
L 209.999148 -221.197623 
L 210.324128 -222.671912 
L 210.649107 -224.139416 
L 210.974087 -225.599786 
L 211.299066 -227.052672 
L 211.624046 -228.497724 
L 211.949025 -229.934591 
L 212.274005 -231.362922 
L 212.598984 -232.782366 
L 212.923964 -234.192574 
L 213.248943 -235.593194 
L 213.573923 -236.983876 
L 213.898903 -238.36427 
L 214.223882 -239.734029 
L 214.548862 -241.092802 
L 214.873841 -242.440244 
L 215.198821 -243.776009 
L 215.5238 -245.09975 
L 215.84878 -246.411126 
L 216.173759 -247.709794 
L 216.498739 -248.995413 
L 216.823718 -250.267645 
L 217.148698 -251.526155 
L 217.473677 -252.770607 
L 217.798657 -254.000669 
L 218.123636 -255.216013 
L 218.448616 -256.41631 
L 218.773595 -257.601237 
L 219.098575 -258.770471 
L 219.423554 -259.923696 
L 219.748534 -261.060594 
L 220.073514 -262.180855 
L 220.398493 -263.284169 
L 220.723473 -264.370232 
L 221.048452 -265.438742 
L 221.373432 -266.489401 
L 221.698411 -267.521917 
L 222.023391 -268.536 
L 222.34837 -269.531364 
L 222.67335 -270.507729 
L 222.998329 -271.464819 
L 223.323309 -272.402362 
L 223.648288 -273.320092 
L 223.973268 -274.217746 
L 224.298247 -275.095069 
L 224.623227 -275.951807 
L 224.948206 -276.787715 
L 225.273186 -277.602553 
L 225.598165 -278.396083 
L 225.923145 -279.168077 
L 226.248124 -279.91831 
L 226.573104 -280.646565 
L 226.898084 -281.352628 
L 227.223063 -282.036294 
L 227.548043 -282.697363 
L 227.873022 -283.335639 
L 228.198002 -283.950937 
L 228.522981 -284.543075 
L 228.847961 -285.111878 
L 229.17294 -285.657179 
L 229.49792 -286.178816 
L 229.822899 -286.676634 
L 230.147879 -287.150487 
L 230.472858 -287.600232 
L 230.797838 -288.025738 
L 231.122817 -288.426876 
L 231.447797 -288.803528 
L 231.772776 -289.15558 
L 232.097756 -289.482929 
L 232.422735 -289.785475 
L 232.747715 -290.06313 
L 233.072695 -290.315808 
L 233.397674 -290.543435 
L 233.722654 -290.745943 
L 234.047633 -290.923271 
L 234.372613 -291.075365 
L 234.697592 -291.20218 
L 235.022572 -291.303677 
L 235.347551 -291.379827 
L 235.672531 -291.430607 
L 235.99751 -291.456 
L 236.32249 -291.456 
L 236.647469 -291.430607 
L 236.972449 -291.379827 
L 237.297428 -291.303677 
L 237.622408 -291.20218 
L 237.947387 -291.075365 
L 238.272367 -290.923271 
L 238.597346 -290.745943 
L 238.922326 -290.543435 
L 239.247305 -290.315808 
L 239.572285 -290.06313 
L 239.897265 -289.785475 
L 240.222244 -289.482929 
L 240.547224 -289.15558 
L 240.872203 -288.803528 
L 241.197183 -288.426876 
L 241.522162 -288.025738 
L 241.847142 -287.600232 
L 242.172121 -287.150487 
L 242.497101 -286.676634 
L 242.82208 -286.178816 
L 243.14706 -285.657179 
L 243.472039 -285.111878 
L 243.797019 -284.543075 
L 244.121998 -283.950937 
L 244.446978 -283.335639 
L 244.771957 -282.697363 
L 245.096937 -282.036294 
L 245.421916 -281.352628 
L 245.746896 -280.646565 
L 246.071876 -279.91831 
L 246.396855 -279.168077 
L 246.721835 -278.396083 
L 247.046814 -277.602553 
L 247.371794 -276.787715 
L 247.696773 -275.951807 
L 248.021753 -275.095069 
L 248.346732 -274.217746 
L 248.671712 -273.320092 
L 248.996691 -272.402362 
L 249.321671 -271.464819 
L 249.64665 -270.507729 
L 249.97163 -269.531364 
L 250.296609 -268.536 
L 250.621589 -267.521917 
L 250.946568 -266.489401 
L 251.271548 -265.438742 
L 251.596527 -264.370232 
L 251.921507 -263.284169 
L 252.246486 -262.180855 
L 252.571466 -261.060594 
L 252.896446 -259.923696 
L 253.221425 -258.770471 
L 253.546405 -257.601237 
L 253.871384 -256.41631 
L 254.196364 -255.216013 
L 254.521343 -254.000669 
L 254.846323 -252.770607 
L 255.171302 -251.526155 
L 255.496282 -250.267645 
L 255.821261 -248.995413 
L 256.146241 -247.709794 
L 256.47122 -246.411126 
L 256.7962 -245.09975 
L 257.121179 -243.776009 
L 257.446159 -242.440244 
L 257.771138 -241.092802 
L 258.096118 -239.734029 
L 258.421097 -238.36427 
L 258.746077 -236.983876 
L 259.071057 -235.593194 
L 259.396036 -234.192574 
L 259.721016 -232.782366 
L 260.045995 -231.362922 
L 260.370975 -229.934591 
L 260.695954 -228.497724 
L 261.020934 -227.052672 
L 261.345913 -225.599786 
L 261.670893 -224.139416 
L 261.995872 -222.671912 
L 262.320852 -221.197623 
L 262.645831 -219.716897 
L 262.970811 -218.230082 
L 263.29579 -216.737524 
L 263.62077 -215.239569 
L 263.945749 -213.736561 
L 264.270729 -212.228843 
L 264.595708 -210.716755 
L 264.920688 -209.200639 
L 265.245667 -207.68083 
L 265.570647 -206.157667 
L 265.895627 -204.631481 
L 266.220606 -203.102606 
L 266.545586 -201.571371 
L 266.870565 -200.038104 
L 267.195545 -198.503128 
L 267.520524 -196.966767 
L 267.845504 -195.429339 
L 268.170483 -193.891163 
L 268.495463 -192.352552 
L 268.820442 -190.813817 
L 269.145422 -189.275267 
L 269.470401 -187.737205 
L 269.795381 -186.199934 
L 270.12036 -184.663752 
L 270.44534 -183.128955 
L 270.770319 -181.595833 
L 271.095299 -180.064674 
L 271.420278 -178.535763 
L 271.745258 -177.00938 
L 272.070238 -175.485802 
L 272.395217 -173.965303 
L 272.720197 -172.44815 
L 273.045176 -170.934608 
L 273.370156 -169.42494 
L 273.695135 -167.919401 
L 274.020115 -166.418244 
L 274.345094 -164.921718 
L 274.670074 -163.430067 
L 274.995053 -161.943531 
L 275.320033 -160.462344 
L 275.645012 -158.986739 
L 275.969992 -157.516942 
L 276.294971 -156.053175 
L 276.619951 -154.595656 
L 276.94493 -153.144598 
L 277.26991 -151.700209 
L 277.594889 -150.262693 
L 277.919869 -148.83225 
L 278.244848 -147.409075 
L 278.569828 -145.993357 
L 278.894808 -144.585282 
L 279.219787 -143.185031 
L 279.544767 -141.792778 
L 279.869746 -140.408697 
L 280.194726 -139.032953 
L 280.519705 -137.665707 
L 280.844685 -136.307118 
L 281.169664 -134.957337 
L 281.494644 -133.616513 
L 281.819623 -132.284788 
L 282.144603 -130.962299 
L 282.469582 -129.649182 
L 282.794562 -128.345565 
L 283.119541 -127.051572 
L 283.444521 -125.767322 
L 283.7695 -124.492931 
L 284.09448 -123.228509 
L 284.419459 -121.974161 
L 284.744439 -120.72999 
L 285.069419 -119.496091 
L 285.394398 -118.272557 
L 285.719378 -117.059475 
L 286.044357 -115.856929 
L 286.369337 -114.664997 
L 286.694316 -113.483755 
L 287.019296 -112.313272 
L 287.344275 -111.153613 
L 287.669255 -110.004842 
L 287.994234 -108.867015 
L 288.319214 -107.740185 
L 288.644193 -106.624401 
L 288.969173 -105.519709 
L 289.294152 -104.426149 
L 289.619132 -103.343759 
L 289.944111 -102.272571 
L 290.269091 -101.212615 
L 290.59407 -100.163917 
L 290.91905 -99.126497 
L 291.244029 -98.100373 
L 291.569009 -97.085561 
L 291.893989 -96.082069 
L 292.218968 -95.089907 
L 292.543948 -94.109076 
L 292.868927 -93.139578 
L 293.193907 -92.181408 
L 293.518886 -91.234561 
L 293.843866 -90.299026 
L 294.168845 -89.374791 
L 294.493825 -88.461839 
L 294.818804 -87.560151 
L 295.143784 -86.669705 
L 295.468763 -85.790475 
L 295.793743 -84.922434 
L 296.118722 -84.06555 
L 296.443702 -83.21979 
L 296.768681 -82.385118 
L 297.093661 -81.561494 
L 297.41864 -80.748877 
L 297.74362 -79.947222 
L 298.0686 -79.156484 
L 298.393579 -78.376614 
L 298.718559 -77.607559 
L 299.043538 -76.849267 
L 299.368518 -76.101683 
L 299.693497 -75.364747 
L 300.018477 -74.638401 
L 300.343456 -73.922583 
L 300.668436 -73.217229 
L 300.993415 -72.522273 
L 301.318395 -71.837648 
L 301.643374 -71.163285 
L 301.968354 -70.499113 
L 302.293333 -69.845059 
L 302.618313 -69.20105 
L 302.943292 -68.567011 
L 303.268272 -67.942863 
L 303.593251 -67.328529 
L 303.918231 -66.72393 
L 304.24321 -66.128984 
L 304.56819 -65.543609 
L 304.89317 -64.967722 
L 305.218149 -64.401239 
L 305.543129 -63.844075 
L 305.868108 -63.296142 
L 306.193088 -62.757355 
L 306.518067 -62.227624 
L 306.843047 -61.706862 
L 307.168026 -61.194978 
L 307.493006 -60.691882 
L 307.817985 -60.197482 
L 308.142965 -59.711688 
L 308.467944 -59.234407 
L 308.792924 -58.765547 
L 309.117903 -58.305014 
L 309.442883 -57.852714 
L 309.767862 -57.408554 
L 310.092842 -56.97244 
L 310.417821 -56.544277 
L 310.742801 -56.12397 
L 311.067781 -55.711425 
L 311.39276 -55.306546 
L 311.71774 -54.909237 
L 312.042719 -54.519405 
L 312.367699 -54.136953 
L 312.692678 -53.761786 
L 313.017658 -53.393809 
L 313.342637 -53.032927 
L 313.667617 -52.679045 
L 313.992596 -52.332067 
L 314.317576 -51.9919 
L 314.642555 -51.658449 
L 314.967535 -51.331619 
L 315.292514 -51.011316 
L 315.617494 -50.697448 
L 315.942473 -50.38992 
L 316.267453 -50.088641 
L 316.592432 -49.793516 
L 316.917412 -49.504455 
L 317.242391 -49.221366 
L 317.567371 -48.944157 
L 317.892351 -48.672738 
L 318.21733 -48.40702 
L 318.54231 -48.146911 
L 318.867289 -47.892324 
L 319.192269 -47.64317 
L 319.517248 -47.399361 
L 319.842228 -47.16081 
L 320.167207 -46.927431 
L 320.492187 -46.699138 
L 320.817166 -46.475846 
L 321.142146 -46.257469 
L 321.467125 -46.043926 
L 321.792105 -45.835131 
L 322.117084 -45.631005 
L 322.442064 -45.431464 
L 322.767043 -45.236428 
L 323.092023 -45.045818 
L 323.417002 -44.859553 
L 323.741982 -44.677557 
L 324.066962 -44.49975 
L 324.391941 -44.326058 
L 324.716921 -44.156403 
L 325.0419 -43.990711 
L 325.36688 -43.828907 
L 325.691859 -43.670919 
L 326.016839 -43.516673 
L 326.341818 -43.366098 
L 326.666798 -43.219124 
L 326.991777 -43.075681 
L 327.316757 -42.935699 
L 327.641736 -42.79911 
L 327.966716 -42.665848 
L 328.291695 -42.535846 
L 328.616675 -42.409038 
L 328.941654 -42.28536 
L 329.266634 -42.164748 
L 329.591613 -42.04714 
L 329.916593 -41.932473 
L 330.241572 -41.820686 
L 330.566552 -41.71172 
L 330.891532 -41.605515 
L 331.216511 -41.502013 
L 331.541491 -41.401156 
L 331.86647 -41.302888 
L 332.19145 -41.207152 
L 332.516429 -41.113895 
L 332.841409 -41.023061 
L 333.166388 -40.934598 
L 333.491368 -40.848454 
L 333.816347 -40.764578 
L 334.141327 -40.682917 
L 334.466306 -40.603424 
L 334.791286 -40.526048 
L 335.116265 -40.450743 
L 335.441245 -40.37746 
L 335.766224 -40.306153 
L 336.091204 -40.236777 
L 336.416183 -40.169287 
L 336.741163 -40.103639 
L 337.066143 -40.039789 
L 337.391122 -39.977696 
L 337.716102 -39.917317 
L 338.041081 -39.858612 
L 338.366061 -39.801541 
L 338.69104 -39.746064 
L 339.01602 -39.692142 
L 339.340999 -39.639739 
L 339.665979 -39.588816 
L 339.990958 -39.539338 
L 340.315938 -39.491268 
L 340.640917 -39.444572 
L 340.965897 -39.399216 
L 341.290876 -39.355165 
L 341.615856 -39.312387 
L 341.940835 -39.27085 
L 342.265815 -39.230522 
L 342.590794 -39.191373 
L 342.915774 -39.153371 
L 343.240753 -39.116488 
L 343.565733 -39.080694 
L 343.890713 -39.045961 
L 344.215692 -39.012262 
L 344.540672 -38.979568 
L 344.865651 -38.947854 
L 345.190631 -38.917094 
L 345.51561 -38.887262 
L 345.84059 -38.858332 
L 346.165569 -38.830282 
L 346.490549 -38.803087 
L 346.815528 -38.776724 
L 347.140508 -38.751171 
L 347.465487 -38.726404 
L 347.790467 -38.702403 
L 348.115446 -38.679147 
L 348.440426 -38.656614 
L 348.765405 -38.634785 
L 349.090385 -38.61364 
L 349.415364 -38.59316 
L 349.740344 -38.573325 
L 350.065324 -38.554119 
L 350.390303 -38.535522 
L 350.715283 -38.517517 
L 351.040262 -38.500088 
L 351.365242 -38.483218 
L 351.690221 -38.466891 
L 352.015201 -38.451091 
L 352.34018 -38.435802 
L 352.66516 -38.42101 
L 352.990139 -38.4067 
L 353.315119 -38.392857 
L 353.640098 -38.379469 
L 353.965078 -38.366522 
L 354.290057 -38.354001 
L 354.615037 -38.341895 
L 354.940016 -38.330192 
L 355.264996 -38.318878 
L 355.589975 -38.307942 
L 355.914955 -38.297373 
L 356.239934 -38.28716 
L 356.564914 -38.277291 
L 356.889894 -38.267756 
L 357.214873 -38.258545 
L 357.539853 -38.249647 
L 357.864832 -38.241053 
L 358.189812 -38.232754 
L 358.514791 -38.224739 
L 358.839771 -38.217001 
L 359.16475 -38.20953 
L 359.48973 -38.202319 
L 359.814709 -38.195358 
L 360.139689 -38.18864 
L 360.464668 -38.182156 
L 360.789648 -38.175901 
L 361.114627 -38.169865 
L 361.439607 -38.164042 
L 361.764586 -38.158426 
L 362.089566 -38.153009 
L 362.414545 -38.147784 
L 362.739525 -38.142746 
L 363.064505 -38.137889 
L 363.389484 -38.133206 
L 363.714464 -38.128691 
L 364.039443 -38.12434 
L 364.364423 -38.120146 
L 364.689402 -38.116105 
L 365.014382 -38.11221 
L 365.339361 -38.108458 
L 365.664341 -38.104844 
L 365.98932 -38.101362 
L 366.3143 -38.098008 
L 366.639279 -38.094778 
L 366.964259 -38.091668 
L 367.289238 -38.088673 
L 367.614218 -38.08579 
L 367.939197 -38.083015 
L 368.264177 -38.080343 
L 368.589156 -38.077772 
L 368.914136 -38.075298 
L 369.239115 -38.072917 
L 369.564095 -38.070626 
L 369.889075 -38.068422 
L 370.214054 -38.066302 
L 370.539034 -38.064263 
L 370.864013 -38.062302 
L 371.188993 -38.060416 
L 371.513972 -38.058602 
L 371.838952 -38.056859 
L 372.163931 -38.055183 
L 372.488911 -38.053572 
L 372.81389 -38.052024 
L 373.13887 -38.050536 
L 373.463849 -38.049106 
L 373.788829 -38.047732 
L 374.113808 -38.046412 
L 374.438788 -38.045144 
L 374.763767 -38.043926 
L 375.088747 -38.042757 
L 375.413726 -38.041633 
L 375.738706 -38.040555 
L 376.063686 -38.039519 
L 376.388665 -38.038525 
L 376.713645 -38.037571 
L 377.038624 -38.036655 
L 377.363604 -38.035776 
L 377.688583 -38.034933 
L 378.013563 -38.034123 
L 378.338542 -38.033347 
L 378.663522 -38.032602 
L 378.988501 -38.031888 
L 379.313481 -38.031202 
L 379.63846 -38.030545 
L 379.96344 -38.029915 
L 380.288419 -38.029311 
L 380.613399 -38.028732 
L 380.938378 -38.028176 
L 381.263358 -38.027644 
L 381.588337 -38.027134 
L 381.913317 -38.026645 
L 382.238296 -38.026177 
L 382.563276 -38.025728 
L 382.888256 -38.025299 
L 383.213235 -38.024887 
L 383.538215 -38.024493 
L 383.863194 -38.024115 
L 384.188174 -38.023753 
L 384.513153 -38.023407 
L 384.838133 -38.023075 
L 385.163112 -38.022758 
L 385.488092 -38.022454 
L 385.813071 -38.022163 
L 386.138051 -38.021885 
L 386.46303 -38.021619 
L 386.78801 -38.021364 
L 387.112989 -38.021121 
L 387.437969 -38.020887 
L 387.762948 -38.020665 
L 388.087928 -38.020451 
L 388.412907 -38.020247 
L 388.737887 -38.020052 
L 389.062867 -38.019866 
L 389.387846 -38.019688 
L 389.712826 -38.019517 
L 390.037805 -38.019355 
L 390.362785 -38.019199 
L 390.687764 -38.01905 
L 391.012744 -38.018908 
L 391.337723 -38.018772 
L 391.662703 -38.018643 
L 391.987682 -38.018519 
L 392.312662 -38.018401 
L 392.637641 -38.018288 
L 392.962621 -38.01818 
L 393.2876 -38.018077 
L 393.61258 -38.017979 
L 393.937559 -38.017885 
L 394.262539 -38.017795 
L 394.587518 -38.01771 
L 394.912498 -38.017628 
L 395.237477 -38.01755 
L 395.562457 -38.017476 
L 395.887437 -38.017405 
L 396.212416 -38.017337 
L 396.537396 -38.017273 
L 396.862375 -38.017212 
L 397.187355 -38.017153 
L 397.512334 -38.017097 
L 397.837314 -38.017044 
L 398.162293 -38.016993 
L 398.487273 -38.016944 
L 398.487273 -38.016 
L 398.487273 -38.016 
L 398.162293 -38.016 
L 397.837314 -38.016 
L 397.512334 -38.016 
L 397.187355 -38.016 
L 396.862375 -38.016 
L 396.537396 -38.016 
L 396.212416 -38.016 
L 395.887437 -38.016 
L 395.562457 -38.016 
L 395.237477 -38.016 
L 394.912498 -38.016 
L 394.587518 -38.016 
L 394.262539 -38.016 
L 393.937559 -38.016 
L 393.61258 -38.016 
L 393.2876 -38.016 
L 392.962621 -38.016 
L 392.637641 -38.016 
L 392.312662 -38.016 
L 391.987682 -38.016 
L 391.662703 -38.016 
L 391.337723 -38.016 
L 391.012744 -38.016 
L 390.687764 -38.016 
L 390.362785 -38.016 
L 390.037805 -38.016 
L 389.712826 -38.016 
L 389.387846 -38.016 
L 389.062867 -38.016 
L 388.737887 -38.016 
L 388.412907 -38.016 
L 388.087928 -38.016 
L 387.762948 -38.016 
L 387.437969 -38.016 
L 387.112989 -38.016 
L 386.78801 -38.016 
L 386.46303 -38.016 
L 386.138051 -38.016 
L 385.813071 -38.016 
L 385.488092 -38.016 
L 385.163112 -38.016 
L 384.838133 -38.016 
L 384.513153 -38.016 
L 384.188174 -38.016 
L 383.863194 -38.016 
L 383.538215 -38.016 
L 383.213235 -38.016 
L 382.888256 -38.016 
L 382.563276 -38.016 
L 382.238296 -38.016 
L 381.913317 -38.016 
L 381.588337 -38.016 
L 381.263358 -38.016 
L 380.938378 -38.016 
L 380.613399 -38.016 
L 380.288419 -38.016 
L 379.96344 -38.016 
L 379.63846 -38.016 
L 379.313481 -38.016 
L 378.988501 -38.016 
L 378.663522 -38.016 
L 378.338542 -38.016 
L 378.013563 -38.016 
L 377.688583 -38.016 
L 377.363604 -38.016 
L 377.038624 -38.016 
L 376.713645 -38.016 
L 376.388665 -38.016 
L 376.063686 -38.016 
L 375.738706 -38.016 
L 375.413726 -38.016 
L 375.088747 -38.016 
L 374.763767 -38.016 
L 374.438788 -38.016 
L 374.113808 -38.016 
L 373.788829 -38.016 
L 373.463849 -38.016 
L 373.13887 -38.016 
L 372.81389 -38.016 
L 372.488911 -38.016 
L 372.163931 -38.016 
L 371.838952 -38.016 
L 371.513972 -38.016 
L 371.188993 -38.016 
L 370.864013 -38.016 
L 370.539034 -38.016 
L 370.214054 -38.016 
L 369.889075 -38.016 
L 369.564095 -38.016 
L 369.239115 -38.016 
L 368.914136 -38.016 
L 368.589156 -38.016 
L 368.264177 -38.016 
L 367.939197 -38.016 
L 367.614218 -38.016 
L 367.289238 -38.016 
L 366.964259 -38.016 
L 366.639279 -38.016 
L 366.3143 -38.016 
L 365.98932 -38.016 
L 365.664341 -38.016 
L 365.339361 -38.016 
L 365.014382 -38.016 
L 364.689402 -38.016 
L 364.364423 -38.016 
L 364.039443 -38.016 
L 363.714464 -38.016 
L 363.389484 -38.016 
L 363.064505 -38.016 
L 362.739525 -38.016 
L 362.414545 -38.016 
L 362.089566 -38.016 
L 361.764586 -38.016 
L 361.439607 -38.016 
L 361.114627 -38.016 
L 360.789648 -38.016 
L 360.464668 -38.016 
L 360.139689 -38.016 
L 359.814709 -38.016 
L 359.48973 -38.016 
L 359.16475 -38.016 
L 358.839771 -38.016 
L 358.514791 -38.016 
L 358.189812 -38.016 
L 357.864832 -38.016 
L 357.539853 -38.016 
L 357.214873 -38.016 
L 356.889894 -38.016 
L 356.564914 -38.016 
L 356.239934 -38.016 
L 355.914955 -38.016 
L 355.589975 -38.016 
L 355.264996 -38.016 
L 354.940016 -38.016 
L 354.615037 -38.016 
L 354.290057 -38.016 
L 353.965078 -38.016 
L 353.640098 -38.016 
L 353.315119 -38.016 
L 352.990139 -38.016 
L 352.66516 -38.016 
L 352.34018 -38.016 
L 352.015201 -38.016 
L 351.690221 -38.016 
L 351.365242 -38.016 
L 351.040262 -38.016 
L 350.715283 -38.016 
L 350.390303 -38.016 
L 350.065324 -38.016 
L 349.740344 -38.016 
L 349.415364 -38.016 
L 349.090385 -38.016 
L 348.765405 -38.016 
L 348.440426 -38.016 
L 348.115446 -38.016 
L 347.790467 -38.016 
L 347.465487 -38.016 
L 347.140508 -38.016 
L 346.815528 -38.016 
L 346.490549 -38.016 
L 346.165569 -38.016 
L 345.84059 -38.016 
L 345.51561 -38.016 
L 345.190631 -38.016 
L 344.865651 -38.016 
L 344.540672 -38.016 
L 344.215692 -38.016 
L 343.890713 -38.016 
L 343.565733 -38.016 
L 343.240753 -38.016 
L 342.915774 -38.016 
L 342.590794 -38.016 
L 342.265815 -38.016 
L 341.940835 -38.016 
L 341.615856 -38.016 
L 341.290876 -38.016 
L 340.965897 -38.016 
L 340.640917 -38.016 
L 340.315938 -38.016 
L 339.990958 -38.016 
L 339.665979 -38.016 
L 339.340999 -38.016 
L 339.01602 -38.016 
L 338.69104 -38.016 
L 338.366061 -38.016 
L 338.041081 -38.016 
L 337.716102 -38.016 
L 337.391122 -38.016 
L 337.066143 -38.016 
L 336.741163 -38.016 
L 336.416183 -38.016 
L 336.091204 -38.016 
L 335.766224 -38.016 
L 335.441245 -38.016 
L 335.116265 -38.016 
L 334.791286 -38.016 
L 334.466306 -38.016 
L 334.141327 -38.016 
L 333.816347 -38.016 
L 333.491368 -38.016 
L 333.166388 -38.016 
L 332.841409 -38.016 
L 332.516429 -38.016 
L 332.19145 -38.016 
L 331.86647 -38.016 
L 331.541491 -38.016 
L 331.216511 -38.016 
L 330.891532 -38.016 
L 330.566552 -38.016 
L 330.241572 -38.016 
L 329.916593 -38.016 
L 329.591613 -38.016 
L 329.266634 -38.016 
L 328.941654 -38.016 
L 328.616675 -38.016 
L 328.291695 -38.016 
L 327.966716 -38.016 
L 327.641736 -38.016 
L 327.316757 -38.016 
L 326.991777 -38.016 
L 326.666798 -38.016 
L 326.341818 -38.016 
L 326.016839 -38.016 
L 325.691859 -38.016 
L 325.36688 -38.016 
L 325.0419 -38.016 
L 324.716921 -38.016 
L 324.391941 -38.016 
L 324.066962 -38.016 
L 323.741982 -38.016 
L 323.417002 -38.016 
L 323.092023 -38.016 
L 322.767043 -38.016 
L 322.442064 -38.016 
L 322.117084 -38.016 
L 321.792105 -38.016 
L 321.467125 -38.016 
L 321.142146 -38.016 
L 320.817166 -38.016 
L 320.492187 -38.016 
L 320.167207 -38.016 
L 319.842228 -38.016 
L 319.517248 -38.016 
L 319.192269 -38.016 
L 318.867289 -38.016 
L 318.54231 -38.016 
L 318.21733 -38.016 
L 317.892351 -38.016 
L 317.567371 -38.016 
L 317.242391 -38.016 
L 316.917412 -38.016 
L 316.592432 -38.016 
L 316.267453 -38.016 
L 315.942473 -38.016 
L 315.617494 -38.016 
L 315.292514 -38.016 
L 314.967535 -38.016 
L 314.642555 -38.016 
L 314.317576 -38.016 
L 313.992596 -38.016 
L 313.667617 -38.016 
L 313.342637 -38.016 
L 313.017658 -38.016 
L 312.692678 -38.016 
L 312.367699 -38.016 
L 312.042719 -38.016 
L 311.71774 -38.016 
L 311.39276 -38.016 
L 311.067781 -38.016 
L 310.742801 -38.016 
L 310.417821 -38.016 
L 310.092842 -38.016 
L 309.767862 -38.016 
L 309.442883 -38.016 
L 309.117903 -38.016 
L 308.792924 -38.016 
L 308.467944 -38.016 
L 308.142965 -38.016 
L 307.817985 -38.016 
L 307.493006 -38.016 
L 307.168026 -38.016 
L 306.843047 -38.016 
L 306.518067 -38.016 
L 306.193088 -38.016 
L 305.868108 -38.016 
L 305.543129 -38.016 
L 305.218149 -38.016 
L 304.89317 -38.016 
L 304.56819 -38.016 
L 304.24321 -38.016 
L 303.918231 -38.016 
L 303.593251 -38.016 
L 303.268272 -38.016 
L 302.943292 -38.016 
L 302.618313 -38.016 
L 302.293333 -38.016 
L 301.968354 -38.016 
L 301.643374 -38.016 
L 301.318395 -38.016 
L 300.993415 -38.016 
L 300.668436 -38.016 
L 300.343456 -38.016 
L 300.018477 -38.016 
L 299.693497 -38.016 
L 299.368518 -38.016 
L 299.043538 -38.016 
L 298.718559 -38.016 
L 298.393579 -38.016 
L 298.0686 -38.016 
L 297.74362 -38.016 
L 297.41864 -38.016 
L 297.093661 -38.016 
L 296.768681 -38.016 
L 296.443702 -38.016 
L 296.118722 -38.016 
L 295.793743 -38.016 
L 295.468763 -38.016 
L 295.143784 -38.016 
L 294.818804 -38.016 
L 294.493825 -38.016 
L 294.168845 -38.016 
L 293.843866 -38.016 
L 293.518886 -38.016 
L 293.193907 -38.016 
L 292.868927 -38.016 
L 292.543948 -38.016 
L 292.218968 -38.016 
L 291.893989 -38.016 
L 291.569009 -38.016 
L 291.244029 -38.016 
L 290.91905 -38.016 
L 290.59407 -38.016 
L 290.269091 -38.016 
L 289.944111 -38.016 
L 289.619132 -38.016 
L 289.294152 -38.016 
L 288.969173 -38.016 
L 288.644193 -38.016 
L 288.319214 -38.016 
L 287.994234 -38.016 
L 287.669255 -38.016 
L 287.344275 -38.016 
L 287.019296 -38.016 
L 286.694316 -38.016 
L 286.369337 -38.016 
L 286.044357 -38.016 
L 285.719378 -38.016 
L 285.394398 -38.016 
L 285.069419 -38.016 
L 284.744439 -38.016 
L 284.419459 -38.016 
L 284.09448 -38.016 
L 283.7695 -38.016 
L 283.444521 -38.016 
L 283.119541 -38.016 
L 282.794562 -38.016 
L 282.469582 -38.016 
L 282.144603 -38.016 
L 281.819623 -38.016 
L 281.494644 -38.016 
L 281.169664 -38.016 
L 280.844685 -38.016 
L 280.519705 -38.016 
L 280.194726 -38.016 
L 279.869746 -38.016 
L 279.544767 -38.016 
L 279.219787 -38.016 
L 278.894808 -38.016 
L 278.569828 -38.016 
L 278.244848 -38.016 
L 277.919869 -38.016 
L 277.594889 -38.016 
L 277.26991 -38.016 
L 276.94493 -38.016 
L 276.619951 -38.016 
L 276.294971 -38.016 
L 275.969992 -38.016 
L 275.645012 -38.016 
L 275.320033 -38.016 
L 274.995053 -38.016 
L 274.670074 -38.016 
L 274.345094 -38.016 
L 274.020115 -38.016 
L 273.695135 -38.016 
L 273.370156 -38.016 
L 273.045176 -38.016 
L 272.720197 -38.016 
L 272.395217 -38.016 
L 272.070238 -38.016 
L 271.745258 -38.016 
L 271.420278 -38.016 
L 271.095299 -38.016 
L 270.770319 -38.016 
L 270.44534 -38.016 
L 270.12036 -38.016 
L 269.795381 -38.016 
L 269.470401 -38.016 
L 269.145422 -38.016 
L 268.820442 -38.016 
L 268.495463 -38.016 
L 268.170483 -38.016 
L 267.845504 -38.016 
L 267.520524 -38.016 
L 267.195545 -38.016 
L 266.870565 -38.016 
L 266.545586 -38.016 
L 266.220606 -38.016 
L 265.895627 -38.016 
L 265.570647 -38.016 
L 265.245667 -38.016 
L 264.920688 -38.016 
L 264.595708 -38.016 
L 264.270729 -38.016 
L 263.945749 -38.016 
L 263.62077 -38.016 
L 263.29579 -38.016 
L 262.970811 -38.016 
L 262.645831 -38.016 
L 262.320852 -38.016 
L 261.995872 -38.016 
L 261.670893 -38.016 
L 261.345913 -38.016 
L 261.020934 -38.016 
L 260.695954 -38.016 
L 260.370975 -38.016 
L 260.045995 -38.016 
L 259.721016 -38.016 
L 259.396036 -38.016 
L 259.071057 -38.016 
L 258.746077 -38.016 
L 258.421097 -38.016 
L 258.096118 -38.016 
L 257.771138 -38.016 
L 257.446159 -38.016 
L 257.121179 -38.016 
L 256.7962 -38.016 
L 256.47122 -38.016 
L 256.146241 -38.016 
L 255.821261 -38.016 
L 255.496282 -38.016 
L 255.171302 -38.016 
L 254.846323 -38.016 
L 254.521343 -38.016 
L 254.196364 -38.016 
L 253.871384 -38.016 
L 253.546405 -38.016 
L 253.221425 -38.016 
L 252.896446 -38.016 
L 252.571466 -38.016 
L 252.246486 -38.016 
L 251.921507 -38.016 
L 251.596527 -38.016 
L 251.271548 -38.016 
L 250.946568 -38.016 
L 250.621589 -38.016 
L 250.296609 -38.016 
L 249.97163 -38.016 
L 249.64665 -38.016 
L 249.321671 -38.016 
L 248.996691 -38.016 
L 248.671712 -38.016 
L 248.346732 -38.016 
L 248.021753 -38.016 
L 247.696773 -38.016 
L 247.371794 -38.016 
L 247.046814 -38.016 
L 246.721835 -38.016 
L 246.396855 -38.016 
L 246.071876 -38.016 
L 245.746896 -38.016 
L 245.421916 -38.016 
L 245.096937 -38.016 
L 244.771957 -38.016 
L 244.446978 -38.016 
L 244.121998 -38.016 
L 243.797019 -38.016 
L 243.472039 -38.016 
L 243.14706 -38.016 
L 242.82208 -38.016 
L 242.497101 -38.016 
L 242.172121 -38.016 
L 241.847142 -38.016 
L 241.522162 -38.016 
L 241.197183 -38.016 
L 240.872203 -38.016 
L 240.547224 -38.016 
L 240.222244 -38.016 
L 239.897265 -38.016 
L 239.572285 -38.016 
L 239.247305 -38.016 
L 238.922326 -38.016 
L 238.597346 -38.016 
L 238.272367 -38.016 
L 237.947387 -38.016 
L 237.622408 -38.016 
L 237.297428 -38.016 
L 236.972449 -38.016 
L 236.647469 -38.016 
L 236.32249 -38.016 
L 235.99751 -38.016 
L 235.672531 -38.016 
L 235.347551 -38.016 
L 235.022572 -38.016 
L 234.697592 -38.016 
L 234.372613 -38.016 
L 234.047633 -38.016 
L 233.722654 -38.016 
L 233.397674 -38.016 
L 233.072695 -38.016 
L 232.747715 -38.016 
L 232.422735 -38.016 
L 232.097756 -38.016 
L 231.772776 -38.016 
L 231.447797 -38.016 
L 231.122817 -38.016 
L 230.797838 -38.016 
L 230.472858 -38.016 
L 230.147879 -38.016 
L 229.822899 -38.016 
L 229.49792 -38.016 
L 229.17294 -38.016 
L 228.847961 -38.016 
L 228.522981 -38.016 
L 228.198002 -38.016 
L 227.873022 -38.016 
L 227.548043 -38.016 
L 227.223063 -38.016 
L 226.898084 -38.016 
L 226.573104 -38.016 
L 226.248124 -38.016 
L 225.923145 -38.016 
L 225.598165 -38.016 
L 225.273186 -38.016 
L 224.948206 -38.016 
L 224.623227 -38.016 
L 224.298247 -38.016 
L 223.973268 -38.016 
L 223.648288 -38.016 
L 223.323309 -38.016 
L 222.998329 -38.016 
L 222.67335 -38.016 
L 222.34837 -38.016 
L 222.023391 -38.016 
L 221.698411 -38.016 
L 221.373432 -38.016 
L 221.048452 -38.016 
L 220.723473 -38.016 
L 220.398493 -38.016 
L 220.073514 -38.016 
L 219.748534 -38.016 
L 219.423554 -38.016 
L 219.098575 -38.016 
L 218.773595 -38.016 
L 218.448616 -38.016 
L 218.123636 -38.016 
L 217.798657 -38.016 
L 217.473677 -38.016 
L 217.148698 -38.016 
L 216.823718 -38.016 
L 216.498739 -38.016 
L 216.173759 -38.016 
L 215.84878 -38.016 
L 215.5238 -38.016 
L 215.198821 -38.016 
L 214.873841 -38.016 
L 214.548862 -38.016 
L 214.223882 -38.016 
L 213.898903 -38.016 
L 213.573923 -38.016 
L 213.248943 -38.016 
L 212.923964 -38.016 
L 212.598984 -38.016 
L 212.274005 -38.016 
L 211.949025 -38.016 
L 211.624046 -38.016 
L 211.299066 -38.016 
L 210.974087 -38.016 
L 210.649107 -38.016 
L 210.324128 -38.016 
L 209.999148 -38.016 
L 209.674169 -38.016 
L 209.349189 -38.016 
L 209.02421 -38.016 
L 208.69923 -38.016 
L 208.374251 -38.016 
L 208.049271 -38.016 
L 207.724292 -38.016 
L 207.399312 -38.016 
L 207.074333 -38.016 
L 206.749353 -38.016 
L 206.424373 -38.016 
L 206.099394 -38.016 
L 205.774414 -38.016 
L 205.449435 -38.016 
L 205.124455 -38.016 
L 204.799476 -38.016 
L 204.474496 -38.016 
L 204.149517 -38.016 
L 203.824537 -38.016 
L 203.499558 -38.016 
L 203.174578 -38.016 
L 202.849599 -38.016 
L 202.524619 -38.016 
L 202.19964 -38.016 
L 201.87466 -38.016 
L 201.549681 -38.016 
L 201.224701 -38.016 
L 200.899722 -38.016 
L 200.574742 -38.016 
L 200.249762 -38.016 
L 199.924783 -38.016 
L 199.599803 -38.016 
L 199.274824 -38.016 
L 198.949844 -38.016 
L 198.624865 -38.016 
L 198.299885 -38.016 
L 197.974906 -38.016 
L 197.649926 -38.016 
L 197.324947 -38.016 
L 196.999967 -38.016 
L 196.674988 -38.016 
L 196.350008 -38.016 
L 196.025029 -38.016 
L 195.700049 -38.016 
L 195.37507 -38.016 
L 195.05009 -38.016 
L 194.725111 -38.016 
L 194.400131 -38.016 
L 194.075152 -38.016 
L 193.750172 -38.016 
L 193.425192 -38.016 
L 193.100213 -38.016 
L 192.775233 -38.016 
L 192.450254 -38.016 
L 192.125274 -38.016 
L 191.800295 -38.016 
L 191.475315 -38.016 
L 191.150336 -38.016 
L 190.825356 -38.016 
L 190.500377 -38.016 
L 190.175397 -38.016 
L 189.850418 -38.016 
L 189.525438 -38.016 
L 189.200459 -38.016 
L 188.875479 -38.016 
L 188.5505 -38.016 
L 188.22552 -38.016 
L 187.900541 -38.016 
L 187.575561 -38.016 
L 187.250581 -38.016 
L 186.925602 -38.016 
L 186.600622 -38.016 
L 186.275643 -38.016 
L 185.950663 -38.016 
L 185.625684 -38.016 
L 185.300704 -38.016 
L 184.975725 -38.016 
L 184.650745 -38.016 
L 184.325766 -38.016 
L 184.000786 -38.016 
L 183.675807 -38.016 
L 183.350827 -38.016 
L 183.025848 -38.016 
L 182.700868 -38.016 
L 182.375889 -38.016 
L 182.050909 -38.016 
L 181.72593 -38.016 
L 181.40095 -38.016 
L 181.075971 -38.016 
L 180.750991 -38.016 
L 180.426011 -38.016 
L 180.101032 -38.016 
L 179.776052 -38.016 
L 179.451073 -38.016 
L 179.126093 -38.016 
L 178.801114 -38.016 
L 178.476134 -38.016 
L 178.151155 -38.016 
L 177.826175 -38.016 
L 177.501196 -38.016 
L 177.176216 -38.016 
L 176.851237 -38.016 
L 176.526257 -38.016 
L 176.201278 -38.016 
L 175.876298 -38.016 
L 175.551319 -38.016 
L 175.226339 -38.016 
L 174.90136 -38.016 
L 174.57638 -38.016 
L 174.2514 -38.016 
L 173.926421 -38.016 
L 173.601441 -38.016 
L 173.276462 -38.016 
L 172.951482 -38.016 
L 172.626503 -38.016 
L 172.301523 -38.016 
L 171.976544 -38.016 
L 171.651564 -38.016 
L 171.326585 -38.016 
L 171.001605 -38.016 
L 170.676626 -38.016 
L 170.351646 -38.016 
L 170.026667 -38.016 
L 169.701687 -38.016 
L 169.376708 -38.016 
L 169.051728 -38.016 
L 168.726749 -38.016 
L 168.401769 -38.016 
L 168.07679 -38.016 
L 167.75181 -38.016 
L 167.42683 -38.016 
L 167.101851 -38.016 
L 166.776871 -38.016 
L 166.451892 -38.016 
L 166.126912 -38.016 
L 165.801933 -38.016 
L 165.476953 -38.016 
L 165.151974 -38.016 
L 164.826994 -38.016 
L 164.502015 -38.016 
L 164.177035 -38.016 
L 163.852056 -38.016 
L 163.527076 -38.016 
L 163.202097 -38.016 
L 162.877117 -38.016 
L 162.552138 -38.016 
L 162.227158 -38.016 
L 161.902179 -38.016 
L 161.577199 -38.016 
L 161.252219 -38.016 
L 160.92724 -38.016 
L 160.60226 -38.016 
L 160.277281 -38.016 
L 159.952301 -38.016 
L 159.627322 -38.016 
L 159.302342 -38.016 
L 158.977363 -38.016 
L 158.652383 -38.016 
L 158.327404 -38.016 
L 158.002424 -38.016 
L 157.677445 -38.016 
L 157.352465 -38.016 
L 157.027486 -38.016 
L 156.702506 -38.016 
L 156.377527 -38.016 
L 156.052547 -38.016 
L 155.727568 -38.016 
L 155.402588 -38.016 
L 155.077609 -38.016 
L 154.752629 -38.016 
L 154.427649 -38.016 
L 154.10267 -38.016 
L 153.77769 -38.016 
L 153.452711 -38.016 
L 153.127731 -38.016 
L 152.802752 -38.016 
L 152.477772 -38.016 
L 152.152793 -38.016 
L 151.827813 -38.016 
L 151.502834 -38.016 
L 151.177854 -38.016 
L 150.852875 -38.016 
L 150.527895 -38.016 
L 150.202916 -38.016 
L 149.877936 -38.016 
L 149.552957 -38.016 
L 149.227977 -38.016 
L 148.902998 -38.016 
L 148.578018 -38.016 
L 148.253038 -38.016 
L 147.928059 -38.016 
L 147.603079 -38.016 
L 147.2781 -38.016 
L 146.95312 -38.016 
L 146.628141 -38.016 
L 146.303161 -38.016 
L 145.978182 -38.016 
L 145.653202 -38.016 
L 145.328223 -38.016 
L 145.003243 -38.016 
L 144.678264 -38.016 
L 144.353284 -38.016 
L 144.028305 -38.016 
L 143.703325 -38.016 
L 143.378346 -38.016 
L 143.053366 -38.016 
L 142.728387 -38.016 
L 142.403407 -38.016 
L 142.078428 -38.016 
L 141.753448 -38.016 
L 141.428468 -38.016 
L 141.103489 -38.016 
L 140.778509 -38.016 
L 140.45353 -38.016 
L 140.12855 -38.016 
L 139.803571 -38.016 
L 139.478591 -38.016 
L 139.153612 -38.016 
L 138.828632 -38.016 
L 138.503653 -38.016 
L 138.178673 -38.016 
L 137.853694 -38.016 
L 137.528714 -38.016 
L 137.203735 -38.016 
L 136.878755 -38.016 
L 136.553776 -38.016 
L 136.228796 -38.016 
L 135.903817 -38.016 
L 135.578837 -38.016 
L 135.253857 -38.016 
L 134.928878 -38.016 
L 134.603898 -38.016 
L 134.278919 -38.016 
L 133.953939 -38.016 
L 133.62896 -38.016 
L 133.30398 -38.016 
L 132.979001 -38.016 
L 132.654021 -38.016 
L 132.329042 -38.016 
L 132.004062 -38.016 
L 131.679083 -38.016 
L 131.354103 -38.016 
L 131.029124 -38.016 
L 130.704144 -38.016 
L 130.379165 -38.016 
L 130.054185 -38.016 
L 129.729206 -38.016 
L 129.404226 -38.016 
L 129.079247 -38.016 
L 128.754267 -38.016 
L 128.429287 -38.016 
L 128.104308 -38.016 
L 127.779328 -38.016 
L 127.454349 -38.016 
L 127.129369 -38.016 
L 126.80439 -38.016 
L 126.47941 -38.016 
L 126.154431 -38.016 
L 125.829451 -38.016 
L 125.504472 -38.016 
L 125.179492 -38.016 
L 124.854513 -38.016 
L 124.529533 -38.016 
L 124.204554 -38.016 
L 123.879574 -38.016 
L 123.554595 -38.016 
L 123.229615 -38.016 
L 122.904636 -38.016 
L 122.579656 -38.016 
L 122.254676 -38.016 
L 121.929697 -38.016 
L 121.604717 -38.016 
L 121.279738 -38.016 
L 120.954758 -38.016 
L 120.629779 -38.016 
L 120.304799 -38.016 
L 119.97982 -38.016 
L 119.65484 -38.016 
L 119.329861 -38.016 
L 119.004881 -38.016 
L 118.679902 -38.016 
L 118.354922 -38.016 
L 118.029943 -38.016 
L 117.704963 -38.016 
L 117.379984 -38.016 
L 117.055004 -38.016 
L 116.730025 -38.016 
L 116.405045 -38.016 
L 116.080066 -38.016 
L 115.755086 -38.016 
L 115.430106 -38.016 
L 115.105127 -38.016 
L 114.780147 -38.016 
L 114.455168 -38.016 
L 114.130188 -38.016 
L 113.805209 -38.016 
L 113.480229 -38.016 
L 113.15525 -38.016 
L 112.83027 -38.016 
L 112.505291 -38.016 
L 112.180311 -38.016 
L 111.855332 -38.016 
L 111.530352 -38.016 
L 111.205373 -38.016 
L 110.880393 -38.016 
L 110.555414 -38.016 
L 110.230434 -38.016 
L 109.905455 -38.016 
L 109.580475 -38.016 
L 109.255495 -38.016 
L 108.930516 -38.016 
L 108.605536 -38.016 
L 108.280557 -38.016 
L 107.955577 -38.016 
L 107.630598 -38.016 
L 107.305618 -38.016 
L 106.980639 -38.016 
L 106.655659 -38.016 
L 106.33068 -38.016 
L 106.0057 -38.016 
L 105.680721 -38.016 
L 105.355741 -38.016 
L 105.030762 -38.016 
L 104.705782 -38.016 
L 104.380803 -38.016 
L 104.055823 -38.016 
L 103.730844 -38.016 
L 103.405864 -38.016 
L 103.080885 -38.016 
L 102.755905 -38.016 
L 102.430925 -38.016 
L 102.105946 -38.016 
L 101.780966 -38.016 
L 101.455987 -38.016 
L 101.131007 -38.016 
L 100.806028 -38.016 
L 100.481048 -38.016 
L 100.156069 -38.016 
L 99.831089 -38.016 
L 99.50611 -38.016 
L 99.18113 -38.016 
L 98.856151 -38.016 
L 98.531171 -38.016 
L 98.206192 -38.016 
L 97.881212 -38.016 
L 97.556233 -38.016 
L 97.231253 -38.016 
L 96.906274 -38.016 
L 96.581294 -38.016 
L 96.256314 -38.016 
L 95.931335 -38.016 
L 95.606355 -38.016 
L 95.281376 -38.016 
L 94.956396 -38.016 
L 94.631417 -38.016 
L 94.306437 -38.016 
L 93.981458 -38.016 
L 93.656478 -38.016 
L 93.331499 -38.016 
L 93.006519 -38.016 
L 92.68154 -38.016 
L 92.35656 -38.016 
L 92.031581 -38.016 
L 91.706601 -38.016 
L 91.381622 -38.016 
L 91.056642 -38.016 
L 90.731663 -38.016 
L 90.406683 -38.016 
L 90.081704 -38.016 
L 89.756724 -38.016 
L 89.431744 -38.016 
L 89.106765 -38.016 
L 88.781785 -38.016 
L 88.456806 -38.016 
L 88.131826 -38.016 
L 87.806847 -38.016 
L 87.481867 -38.016 
L 87.156888 -38.016 
L 86.831908 -38.016 
L 86.506929 -38.016 
L 86.181949 -38.016 
L 85.85697 -38.016 
L 85.53199 -38.016 
L 85.207011 -38.016 
L 84.882031 -38.016 
L 84.557052 -38.016 
L 84.232072 -38.016 
L 83.907093 -38.016 
L 83.582113 -38.016 
L 83.257133 -38.016 
L 82.932154 -38.016 
L 82.607174 -38.016 
L 82.282195 -38.016 
L 81.957215 -38.016 
L 81.632236 -38.016 
L 81.307256 -38.016 
L 80.982277 -38.016 
L 80.657297 -38.016 
L 80.332318 -38.016 
L 80.007338 -38.016 
L 79.682359 -38.016 
L 79.357379 -38.016 
L 79.0324 -38.016 
L 78.70742 -38.016 
L 78.382441 -38.016 
L 78.057461 -38.016 
L 77.732482 -38.016 
L 77.407502 -38.016 
L 77.082523 -38.016 
L 76.757543 -38.016 
L 76.432563 -38.016 
L 76.107584 -38.016 
L 75.782604 -38.016 
L 75.457625 -38.016 
L 75.132645 -38.016 
L 74.807666 -38.016 
L 74.482686 -38.016 
L 74.157707 -38.016 
L 73.832727 -38.016 
z
" style="stroke: #0000ff; stroke-opacity: 0.1"/>
    </defs>
    <g clip-path="url(#p59ebfdcc59)">
     <use xlink:href="#m508e4aecdc" x="0" y="345.6" style="fill: #0000ff; fill-opacity: 0.1; stroke: #0000ff; stroke-opacity: 0.1"/>
    </g>
   </g>
   <g id="matplotlib.axis_1">
    <g id="text_1">
     <!-- antigenic coordinate, $x$ -->
     <g transform="translate(180.78 319.984) scale(0.12 -0.12)">
      <defs>
       <path id="TimesNewRomanPSMT-61" d="M 1822 413 
Q 1381 72 1269 19 
Q 1100 -59 909 -59 
Q 613 -59 420 144 
Q 228 347 228 678 
Q 228 888 322 1041 
Q 450 1253 767 1440 
Q 1084 1628 1822 1897 
L 1822 2009 
Q 1822 2438 1686 2597 
Q 1550 2756 1291 2756 
Q 1094 2756 978 2650 
Q 859 2544 859 2406 
L 866 2225 
Q 866 2081 792 2003 
Q 719 1925 600 1925 
Q 484 1925 411 2006 
Q 338 2088 338 2228 
Q 338 2497 613 2722 
Q 888 2947 1384 2947 
Q 1766 2947 2009 2819 
Q 2194 2722 2281 2516 
Q 2338 2381 2338 1966 
L 2338 994 
Q 2338 584 2353 492 
Q 2369 400 2405 369 
Q 2441 338 2488 338 
Q 2538 338 2575 359 
Q 2641 400 2828 588 
L 2828 413 
Q 2478 -56 2159 -56 
Q 2006 -56 1915 50 
Q 1825 156 1822 413 
z
M 1822 616 
L 1822 1706 
Q 1350 1519 1213 1441 
Q 966 1303 859 1153 
Q 753 1003 753 825 
Q 753 600 887 451 
Q 1022 303 1197 303 
Q 1434 303 1822 616 
z
" transform="scale(0.015625)"/>
       <path id="TimesNewRomanPSMT-6e" d="M 1034 2341 
Q 1538 2947 1994 2947 
Q 2228 2947 2397 2830 
Q 2566 2713 2666 2444 
Q 2734 2256 2734 1869 
L 2734 647 
Q 2734 375 2778 278 
Q 2813 200 2889 156 
Q 2966 113 3172 113 
L 3172 0 
L 1756 0 
L 1756 113 
L 1816 113 
Q 2016 113 2095 173 
Q 2175 234 2206 353 
Q 2219 400 2219 647 
L 2219 1819 
Q 2219 2209 2117 2386 
Q 2016 2563 1775 2563 
Q 1403 2563 1034 2156 
L 1034 647 
Q 1034 356 1069 288 
Q 1113 197 1189 155 
Q 1266 113 1500 113 
L 1500 0 
L 84 0 
L 84 113 
L 147 113 
Q 366 113 442 223 
Q 519 334 519 647 
L 519 1709 
Q 519 2225 495 2337 
Q 472 2450 423 2490 
Q 375 2531 294 2531 
Q 206 2531 84 2484 
L 38 2597 
L 900 2947 
L 1034 2947 
L 1034 2341 
z
" transform="scale(0.015625)"/>
       <path id="TimesNewRomanPSMT-74" d="M 1031 3803 
L 1031 2863 
L 1700 2863 
L 1700 2644 
L 1031 2644 
L 1031 788 
Q 1031 509 1111 412 
Q 1191 316 1316 316 
Q 1419 316 1516 380 
Q 1613 444 1666 569 
L 1788 569 
Q 1678 263 1478 108 
Q 1278 -47 1066 -47 
Q 922 -47 784 33 
Q 647 113 581 261 
Q 516 409 516 719 
L 516 2644 
L 63 2644 
L 63 2747 
Q 234 2816 414 2980 
Q 594 3144 734 3369 
Q 806 3488 934 3803 
L 1031 3803 
z
" transform="scale(0.015625)"/>
       <path id="TimesNewRomanPSMT-69" d="M 928 4444 
Q 1059 4444 1151 4351 
Q 1244 4259 1244 4128 
Q 1244 3997 1151 3903 
Q 1059 3809 928 3809 
Q 797 3809 703 3903 
Q 609 3997 609 4128 
Q 609 4259 701 4351 
Q 794 4444 928 4444 
z
M 1188 2947 
L 1188 647 
Q 1188 378 1227 289 
Q 1266 200 1342 156 
Q 1419 113 1622 113 
L 1622 0 
L 231 0 
L 231 113 
Q 441 113 512 153 
Q 584 194 626 287 
Q 669 381 669 647 
L 669 1750 
Q 669 2216 641 2353 
Q 619 2453 572 2492 
Q 525 2531 444 2531 
Q 356 2531 231 2484 
L 188 2597 
L 1050 2947 
L 1188 2947 
z
" transform="scale(0.015625)"/>
       <path id="TimesNewRomanPSMT-67" d="M 966 1044 
Q 703 1172 562 1401 
Q 422 1631 422 1909 
Q 422 2334 742 2640 
Q 1063 2947 1563 2947 
Q 1972 2947 2272 2747 
L 2878 2747 
Q 3013 2747 3034 2739 
Q 3056 2731 3066 2713 
Q 3084 2684 3084 2613 
Q 3084 2531 3069 2500 
Q 3059 2484 3036 2475 
Q 3013 2466 2878 2466 
L 2506 2466 
Q 2681 2241 2681 1891 
Q 2681 1491 2375 1206 
Q 2069 922 1553 922 
Q 1341 922 1119 984 
Q 981 866 932 777 
Q 884 688 884 625 
Q 884 572 936 522 
Q 988 472 1138 450 
Q 1225 438 1575 428 
Q 2219 413 2409 384 
Q 2700 344 2873 169 
Q 3047 -6 3047 -263 
Q 3047 -616 2716 -925 
Q 2228 -1381 1444 -1381 
Q 841 -1381 425 -1109 
Q 191 -953 191 -784 
Q 191 -709 225 -634 
Q 278 -519 444 -313 
Q 466 -284 763 25 
Q 600 122 533 198 
Q 466 275 466 372 
Q 466 481 555 628 
Q 644 775 966 1044 
z
M 1509 2797 
Q 1278 2797 1122 2612 
Q 966 2428 966 2047 
Q 966 1553 1178 1281 
Q 1341 1075 1591 1075 
Q 1828 1075 1981 1253 
Q 2134 1431 2134 1813 
Q 2134 2309 1919 2591 
Q 1759 2797 1509 2797 
z
M 934 0 
Q 788 -159 713 -296 
Q 638 -434 638 -550 
Q 638 -700 819 -813 
Q 1131 -1006 1722 -1006 
Q 2284 -1006 2551 -807 
Q 2819 -609 2819 -384 
Q 2819 -222 2659 -153 
Q 2497 -84 2016 -72 
Q 1313 -53 934 0 
z
" transform="scale(0.015625)"/>
       <path id="TimesNewRomanPSMT-65" d="M 681 1784 
Q 678 1147 991 784 
Q 1303 422 1725 422 
Q 2006 422 2214 576 
Q 2422 731 2563 1106 
L 2659 1044 
Q 2594 616 2278 264 
Q 1963 -88 1488 -88 
Q 972 -88 605 314 
Q 238 716 238 1394 
Q 238 2128 614 2539 
Q 991 2950 1559 2950 
Q 2041 2950 2350 2633 
Q 2659 2316 2659 1784 
L 681 1784 
z
M 681 1966 
L 2006 1966 
Q 1991 2241 1941 2353 
Q 1863 2528 1708 2628 
Q 1553 2728 1384 2728 
Q 1125 2728 920 2526 
Q 716 2325 681 1966 
z
" transform="scale(0.015625)"/>
       <path id="TimesNewRomanPSMT-63" d="M 2631 1088 
Q 2516 522 2178 217 
Q 1841 -88 1431 -88 
Q 944 -88 581 321 
Q 219 731 219 1428 
Q 219 2103 620 2525 
Q 1022 2947 1584 2947 
Q 2006 2947 2278 2723 
Q 2550 2500 2550 2259 
Q 2550 2141 2473 2067 
Q 2397 1994 2259 1994 
Q 2075 1994 1981 2113 
Q 1928 2178 1911 2362 
Q 1894 2547 1784 2644 
Q 1675 2738 1481 2738 
Q 1169 2738 978 2506 
Q 725 2200 725 1697 
Q 725 1184 976 792 
Q 1228 400 1656 400 
Q 1963 400 2206 609 
Q 2378 753 2541 1131 
L 2631 1088 
z
" transform="scale(0.015625)"/>
       <path id="TimesNewRomanPSMT-20" transform="scale(0.015625)"/>
       <path id="TimesNewRomanPSMT-6f" d="M 1600 2947 
Q 2250 2947 2644 2453 
Q 2978 2031 2978 1484 
Q 2978 1100 2793 706 
Q 2609 313 2286 112 
Q 1963 -88 1566 -88 
Q 919 -88 538 428 
Q 216 863 216 1403 
Q 216 1797 411 2186 
Q 606 2575 925 2761 
Q 1244 2947 1600 2947 
z
M 1503 2744 
Q 1338 2744 1170 2645 
Q 1003 2547 900 2300 
Q 797 2053 797 1666 
Q 797 1041 1045 587 
Q 1294 134 1700 134 
Q 2003 134 2200 384 
Q 2397 634 2397 1244 
Q 2397 2006 2069 2444 
Q 1847 2744 1503 2744 
z
" transform="scale(0.015625)"/>
       <path id="TimesNewRomanPSMT-72" d="M 1038 2947 
L 1038 2303 
Q 1397 2947 1775 2947 
Q 1947 2947 2059 2842 
Q 2172 2738 2172 2600 
Q 2172 2478 2090 2393 
Q 2009 2309 1897 2309 
Q 1788 2309 1652 2417 
Q 1516 2525 1450 2525 
Q 1394 2525 1328 2463 
Q 1188 2334 1038 2041 
L 1038 669 
Q 1038 431 1097 309 
Q 1138 225 1241 169 
Q 1344 113 1538 113 
L 1538 0 
L 72 0 
L 72 113 
Q 291 113 397 181 
Q 475 231 506 341 
Q 522 394 522 644 
L 522 1753 
Q 522 2253 501 2348 
Q 481 2444 426 2487 
Q 372 2531 291 2531 
Q 194 2531 72 2484 
L 41 2597 
L 906 2947 
L 1038 2947 
z
" transform="scale(0.015625)"/>
       <path id="TimesNewRomanPSMT-64" d="M 2222 322 
Q 2013 103 1813 7 
Q 1613 -88 1381 -88 
Q 913 -88 563 304 
Q 213 697 213 1313 
Q 213 1928 600 2439 
Q 988 2950 1597 2950 
Q 1975 2950 2222 2709 
L 2222 3238 
Q 2222 3728 2198 3840 
Q 2175 3953 2125 3993 
Q 2075 4034 2000 4034 
Q 1919 4034 1784 3984 
L 1744 4094 
L 2597 4444 
L 2738 4444 
L 2738 1134 
Q 2738 631 2761 520 
Q 2784 409 2836 365 
Q 2888 322 2956 322 
Q 3041 322 3181 375 
L 3216 266 
L 2366 -88 
L 2222 -88 
L 2222 322 
z
M 2222 541 
L 2222 2016 
Q 2203 2228 2109 2403 
Q 2016 2578 1861 2667 
Q 1706 2756 1559 2756 
Q 1284 2756 1069 2509 
Q 784 2184 784 1559 
Q 784 928 1059 592 
Q 1334 256 1672 256 
Q 1956 256 2222 541 
z
" transform="scale(0.015625)"/>
       <path id="TimesNewRomanPSMT-2c" d="M 344 -1066 
L 344 -928 
Q 666 -822 842 -598 
Q 1019 -375 1019 -125 
Q 1019 -66 991 -25 
Q 969 3 947 3 
Q 913 3 797 -59 
Q 741 -88 678 -88 
Q 525 -88 434 3 
Q 344 94 344 253 
Q 344 406 461 515 
Q 578 625 747 625 
Q 953 625 1114 445 
Q 1275 266 1275 -31 
Q 1275 -353 1051 -629 
Q 828 -906 344 -1066 
z
" transform="scale(0.015625)"/>
       <path id="DejaVuSans-Oblique-78" d="M 3841 3500 
L 2234 1784 
L 3219 0 
L 2559 0 
L 1819 1388 
L 531 0 
L -166 0 
L 1556 1844 
L 641 3500 
L 1300 3500 
L 1972 2234 
L 3144 3500 
L 3841 3500 
z
" transform="scale(0.015625)"/>
      </defs>
      <use xlink:href="#TimesNewRomanPSMT-61" transform="translate(0 0.5625)"/>
      <use xlink:href="#TimesNewRomanPSMT-6e" transform="translate(44.384766 0.5625)"/>
      <use xlink:href="#TimesNewRomanPSMT-74" transform="translate(94.384766 0.5625)"/>
      <use xlink:href="#TimesNewRomanPSMT-69" transform="translate(122.167969 0.5625)"/>
      <use xlink:href="#TimesNewRomanPSMT-67" transform="translate(149.951172 0.5625)"/>
      <use xlink:href="#TimesNewRomanPSMT-65" transform="translate(199.951172 0.5625)"/>
      <use xlink:href="#TimesNewRomanPSMT-6e" transform="translate(244.335938 0.5625)"/>
      <use xlink:href="#TimesNewRomanPSMT-69" transform="translate(294.335938 0.5625)"/>
      <use xlink:href="#TimesNewRomanPSMT-63" transform="translate(322.119141 0.5625)"/>
      <use xlink:href="#TimesNewRomanPSMT-20" transform="translate(366.503906 0.5625)"/>
      <use xlink:href="#TimesNewRomanPSMT-63" transform="translate(391.503906 0.5625)"/>
      <use xlink:href="#TimesNewRomanPSMT-6f" transform="translate(435.888672 0.5625)"/>
      <use xlink:href="#TimesNewRomanPSMT-6f" transform="translate(485.888672 0.5625)"/>
      <use xlink:href="#TimesNewRomanPSMT-72" transform="translate(535.888672 0.5625)"/>
      <use xlink:href="#TimesNewRomanPSMT-64" transform="translate(569.189453 0.5625)"/>
      <use xlink:href="#TimesNewRomanPSMT-69" transform="translate(619.189453 0.5625)"/>
      <use xlink:href="#TimesNewRomanPSMT-6e" transform="translate(646.972656 0.5625)"/>
      <use xlink:href="#TimesNewRomanPSMT-61" transform="translate(696.972656 0.5625)"/>
      <use xlink:href="#TimesNewRomanPSMT-74" transform="translate(741.357422 0.5625)"/>
      <use xlink:href="#TimesNewRomanPSMT-65" transform="translate(769.140625 0.5625)"/>
      <use xlink:href="#TimesNewRomanPSMT-2c" transform="translate(813.525391 0.5625)"/>
      <use xlink:href="#TimesNewRomanPSMT-20" transform="translate(838.525391 0.5625)"/>
      <use xlink:href="#DejaVuSans-Oblique-78" transform="translate(863.525391 0.5625)"/>
     </g>
    </g>
   </g>
   <g id="matplotlib.axis_2">
    <g id="text_2">
     <!-- infected number density $n(x,t)$ -->
     <g transform="translate(50.96 251.508) rotate(-90) scale(0.12 -0.12)">
      <defs>
       <path id="TimesNewRomanPSMT-66" d="M 1319 2638 
L 1319 756 
Q 1319 356 1406 250 
Q 1522 113 1716 113 
L 1975 113 
L 1975 0 
L 266 0 
L 266 113 
L 394 113 
Q 519 113 622 175 
Q 725 238 764 344 
Q 803 450 803 756 
L 803 2638 
L 247 2638 
L 247 2863 
L 803 2863 
L 803 3050 
Q 803 3478 940 3775 
Q 1078 4072 1361 4255 
Q 1644 4438 1997 4438 
Q 2325 4438 2600 4225 
Q 2781 4084 2781 3909 
Q 2781 3816 2700 3733 
Q 2619 3650 2525 3650 
Q 2453 3650 2373 3701 
Q 2294 3753 2178 3923 
Q 2063 4094 1966 4153 
Q 1869 4213 1750 4213 
Q 1606 4213 1506 4136 
Q 1406 4059 1362 3898 
Q 1319 3738 1319 3069 
L 1319 2863 
L 2056 2863 
L 2056 2638 
L 1319 2638 
z
" transform="scale(0.015625)"/>
       <path id="TimesNewRomanPSMT-75" d="M 2709 2863 
L 2709 1128 
Q 2709 631 2732 520 
Q 2756 409 2807 365 
Q 2859 322 2928 322 
Q 3025 322 3147 375 
L 3191 266 
L 2334 -88 
L 2194 -88 
L 2194 519 
Q 1825 119 1631 15 
Q 1438 -88 1222 -88 
Q 981 -88 804 51 
Q 628 191 559 409 
Q 491 628 491 1028 
L 491 2306 
Q 491 2509 447 2587 
Q 403 2666 317 2708 
Q 231 2750 6 2747 
L 6 2863 
L 1009 2863 
L 1009 947 
Q 1009 547 1148 422 
Q 1288 297 1484 297 
Q 1619 297 1789 381 
Q 1959 466 2194 703 
L 2194 2325 
Q 2194 2569 2105 2655 
Q 2016 2741 1734 2747 
L 1734 2863 
L 2709 2863 
z
" transform="scale(0.015625)"/>
       <path id="TimesNewRomanPSMT-6d" d="M 1050 2338 
Q 1363 2650 1419 2697 
Q 1559 2816 1721 2881 
Q 1884 2947 2044 2947 
Q 2313 2947 2506 2790 
Q 2700 2634 2766 2338 
Q 3088 2713 3309 2830 
Q 3531 2947 3766 2947 
Q 3994 2947 4170 2830 
Q 4347 2713 4450 2447 
Q 4519 2266 4519 1878 
L 4519 647 
Q 4519 378 4559 278 
Q 4591 209 4675 161 
Q 4759 113 4950 113 
L 4950 0 
L 3538 0 
L 3538 113 
L 3597 113 
Q 3781 113 3884 184 
Q 3956 234 3988 344 
Q 4000 397 4000 647 
L 4000 1878 
Q 4000 2228 3916 2372 
Q 3794 2572 3525 2572 
Q 3359 2572 3192 2489 
Q 3025 2406 2788 2181 
L 2781 2147 
L 2788 2013 
L 2788 647 
Q 2788 353 2820 281 
Q 2853 209 2943 161 
Q 3034 113 3253 113 
L 3253 0 
L 1806 0 
L 1806 113 
Q 2044 113 2133 169 
Q 2222 225 2256 338 
Q 2272 391 2272 647 
L 2272 1878 
Q 2272 2228 2169 2381 
Q 2031 2581 1784 2581 
Q 1616 2581 1450 2491 
Q 1191 2353 1050 2181 
L 1050 647 
Q 1050 366 1089 281 
Q 1128 197 1204 155 
Q 1281 113 1516 113 
L 1516 0 
L 100 0 
L 100 113 
Q 297 113 375 155 
Q 453 197 493 289 
Q 534 381 534 647 
L 534 1741 
Q 534 2213 506 2350 
Q 484 2453 437 2492 
Q 391 2531 309 2531 
Q 222 2531 100 2484 
L 53 2597 
L 916 2947 
L 1050 2947 
L 1050 2338 
z
" transform="scale(0.015625)"/>
       <path id="TimesNewRomanPSMT-62" d="M 984 2369 
Q 1400 2947 1881 2947 
Q 2322 2947 2650 2570 
Q 2978 2194 2978 1541 
Q 2978 778 2472 313 
Q 2038 -88 1503 -88 
Q 1253 -88 995 3 
Q 738 94 469 275 
L 469 3241 
Q 469 3728 445 3840 
Q 422 3953 372 3993 
Q 322 4034 247 4034 
Q 159 4034 28 3984 
L -16 4094 
L 844 4444 
L 984 4444 
L 984 2369 
z
M 984 2169 
L 984 456 
Q 1144 300 1314 220 
Q 1484 141 1663 141 
Q 1947 141 2192 453 
Q 2438 766 2438 1363 
Q 2438 1913 2192 2208 
Q 1947 2503 1634 2503 
Q 1469 2503 1303 2419 
Q 1178 2356 984 2169 
z
" transform="scale(0.015625)"/>
       <path id="TimesNewRomanPSMT-73" d="M 2050 2947 
L 2050 1972 
L 1947 1972 
Q 1828 2431 1642 2597 
Q 1456 2763 1169 2763 
Q 950 2763 815 2647 
Q 681 2531 681 2391 
Q 681 2216 781 2091 
Q 878 1963 1175 1819 
L 1631 1597 
Q 2266 1288 2266 781 
Q 2266 391 1970 151 
Q 1675 -88 1309 -88 
Q 1047 -88 709 6 
Q 606 38 541 38 
Q 469 38 428 -44 
L 325 -44 
L 325 978 
L 428 978 
Q 516 541 762 319 
Q 1009 97 1316 97 
Q 1531 97 1667 223 
Q 1803 350 1803 528 
Q 1803 744 1651 891 
Q 1500 1038 1047 1263 
Q 594 1488 453 1669 
Q 313 1847 313 2119 
Q 313 2472 555 2709 
Q 797 2947 1181 2947 
Q 1350 2947 1591 2875 
Q 1750 2828 1803 2828 
Q 1853 2828 1881 2850 
Q 1909 2872 1947 2947 
L 2050 2947 
z
" transform="scale(0.015625)"/>
       <path id="TimesNewRomanPSMT-79" d="M 38 2863 
L 1372 2863 
L 1372 2747 
L 1306 2747 
Q 1166 2747 1095 2686 
Q 1025 2625 1025 2534 
Q 1025 2413 1128 2197 
L 1825 753 
L 2466 2334 
Q 2519 2463 2519 2588 
Q 2519 2644 2497 2672 
Q 2472 2706 2419 2726 
Q 2366 2747 2231 2747 
L 2231 2863 
L 3163 2863 
L 3163 2747 
Q 3047 2734 2984 2696 
Q 2922 2659 2847 2556 
Q 2819 2513 2741 2316 
L 1575 -541 
Q 1406 -956 1132 -1168 
Q 859 -1381 606 -1381 
Q 422 -1381 303 -1275 
Q 184 -1169 184 -1031 
Q 184 -900 270 -820 
Q 356 -741 506 -741 
Q 609 -741 788 -809 
Q 913 -856 944 -856 
Q 1038 -856 1148 -759 
Q 1259 -663 1372 -384 
L 1575 113 
L 547 2272 
Q 500 2369 397 2513 
Q 319 2622 269 2659 
Q 197 2709 38 2747 
L 38 2863 
z
" transform="scale(0.015625)"/>
       <path id="DejaVuSans-Oblique-6e" d="M 3566 2113 
L 3156 0 
L 2578 0 
L 2988 2091 
Q 3016 2238 3031 2350 
Q 3047 2463 3047 2528 
Q 3047 2791 2881 2937 
Q 2716 3084 2419 3084 
Q 1956 3084 1622 2776 
Q 1288 2469 1184 1941 
L 800 0 
L 225 0 
L 903 3500 
L 1478 3500 
L 1363 2950 
Q 1603 3253 1940 3418 
Q 2278 3584 2650 3584 
Q 3113 3584 3367 3334 
Q 3622 3084 3622 2631 
Q 3622 2519 3608 2391 
Q 3594 2263 3566 2113 
z
" transform="scale(0.015625)"/>
       <path id="DejaVuSans-28" d="M 1984 4856 
Q 1566 4138 1362 3434 
Q 1159 2731 1159 2009 
Q 1159 1288 1364 580 
Q 1569 -128 1984 -844 
L 1484 -844 
Q 1016 -109 783 600 
Q 550 1309 550 2009 
Q 550 2706 781 3412 
Q 1013 4119 1484 4856 
L 1984 4856 
z
" transform="scale(0.015625)"/>
       <path id="DejaVuSans-2c" d="M 750 794 
L 1409 794 
L 1409 256 
L 897 -744 
L 494 -744 
L 750 256 
L 750 794 
z
" transform="scale(0.015625)"/>
       <path id="DejaVuSans-Oblique-74" d="M 2706 3500 
L 2619 3053 
L 1472 3053 
L 1100 1153 
Q 1081 1047 1072 975 
Q 1063 903 1063 863 
Q 1063 663 1183 572 
Q 1303 481 1569 481 
L 2150 481 
L 2053 0 
L 1503 0 
Q 991 0 739 200 
Q 488 400 488 806 
Q 488 878 497 964 
Q 506 1050 525 1153 
L 897 3053 
L 409 3053 
L 500 3500 
L 978 3500 
L 1172 4494 
L 1747 4494 
L 1556 3500 
L 2706 3500 
z
" transform="scale(0.015625)"/>
       <path id="DejaVuSans-29" d="M 513 4856 
L 1013 4856 
Q 1481 4119 1714 3412 
Q 1947 2706 1947 2009 
Q 1947 1309 1714 600 
Q 1481 -109 1013 -844 
L 513 -844 
Q 928 -128 1133 580 
Q 1338 1288 1338 2009 
Q 1338 2731 1133 3434 
Q 928 4138 513 4856 
z
" transform="scale(0.015625)"/>
      </defs>
      <use xlink:href="#TimesNewRomanPSMT-69" transform="translate(0 0.125)"/>
      <use xlink:href="#TimesNewRomanPSMT-6e" transform="translate(27.783203 0.125)"/>
      <use xlink:href="#TimesNewRomanPSMT-66" transform="translate(77.783203 0.125)"/>
      <use xlink:href="#TimesNewRomanPSMT-65" transform="translate(111.083984 0.125)"/>
      <use xlink:href="#TimesNewRomanPSMT-63" transform="translate(155.46875 0.125)"/>
      <use xlink:href="#TimesNewRomanPSMT-74" transform="translate(199.853516 0.125)"/>
      <use xlink:href="#TimesNewRomanPSMT-65" transform="translate(227.636719 0.125)"/>
      <use xlink:href="#TimesNewRomanPSMT-64" transform="translate(272.021484 0.125)"/>
      <use xlink:href="#TimesNewRomanPSMT-20" transform="translate(322.021484 0.125)"/>
      <use xlink:href="#TimesNewRomanPSMT-6e" transform="translate(347.021484 0.125)"/>
      <use xlink:href="#TimesNewRomanPSMT-75" transform="translate(397.021484 0.125)"/>
      <use xlink:href="#TimesNewRomanPSMT-6d" transform="translate(447.021484 0.125)"/>
      <use xlink:href="#TimesNewRomanPSMT-62" transform="translate(524.804688 0.125)"/>
      <use xlink:href="#TimesNewRomanPSMT-65" transform="translate(574.804688 0.125)"/>
      <use xlink:href="#TimesNewRomanPSMT-72" transform="translate(619.189453 0.125)"/>
      <use xlink:href="#TimesNewRomanPSMT-20" transform="translate(652.490234 0.125)"/>
      <use xlink:href="#TimesNewRomanPSMT-64" transform="translate(677.490234 0.125)"/>
      <use xlink:href="#TimesNewRomanPSMT-65" transform="translate(727.490234 0.125)"/>
      <use xlink:href="#TimesNewRomanPSMT-6e" transform="translate(771.875 0.125)"/>
      <use xlink:href="#TimesNewRomanPSMT-73" transform="translate(821.875 0.125)"/>
      <use xlink:href="#TimesNewRomanPSMT-69" transform="translate(860.791016 0.125)"/>
      <use xlink:href="#TimesNewRomanPSMT-74" transform="translate(888.574219 0.125)"/>
      <use xlink:href="#TimesNewRomanPSMT-79" transform="translate(916.357422 0.125)"/>
      <use xlink:href="#TimesNewRomanPSMT-20" transform="translate(966.357422 0.125)"/>
      <use xlink:href="#DejaVuSans-Oblique-6e" transform="translate(991.357422 0.125)"/>
      <use xlink:href="#DejaVuSans-28" transform="translate(1054.736328 0.125)"/>
      <use xlink:href="#DejaVuSans-Oblique-78" transform="translate(1093.75 0.125)"/>
      <use xlink:href="#DejaVuSans-2c" transform="translate(1152.929688 0.125)"/>
      <use xlink:href="#DejaVuSans-Oblique-74" transform="translate(1204.199219 0.125)"/>
      <use xlink:href="#DejaVuSans-29" transform="translate(1243.408203 0.125)"/>
     </g>
    </g>
   </g>
   <g id="line2d_1">
    <path d="M 73.832727 307.583056 
L 108.930516 307.466794 
L 118.679902 307.220531 
L 125.179492 306.848829 
L 130.379165 306.32915 
L 134.603898 305.682683 
L 138.178673 304.917083 
L 141.428468 303.994485 
L 144.353284 302.934152 
L 146.95312 301.771093 
L 149.552957 300.363572 
L 151.827813 298.900862 
L 154.10267 297.19298 
L 156.377527 295.21008 
L 158.652383 292.920955 
L 160.92724 290.293454 
L 163.202097 287.294986 
L 165.476953 283.893138 
L 167.75181 280.056391 
L 170.026667 275.754941 
L 172.301523 270.961599 
L 174.57638 265.652778 
L 176.851237 259.809525 
L 179.451073 252.460422 
L 182.050909 244.387385 
L 184.650745 235.595158 
L 187.575561 224.87001 
L 190.500377 213.315212 
L 193.750172 199.606643 
L 197.649926 182.169933 
L 203.174578 156.324733 
L 210.649107 121.460584 
L 214.223882 105.865971 
L 217.148698 94.073845 
L 219.748534 84.539406 
L 222.023391 77.064 
L 223.973268 71.382254 
L 225.923145 66.431923 
L 227.548043 62.902637 
L 229.17294 59.942821 
L 230.472858 57.999768 
L 231.772776 56.44442 
L 233.072695 55.284192 
L 234.047633 54.676729 
L 235.022572 54.296323 
L 235.99751 54.144 
L 236.972449 54.220173 
L 237.947387 54.524635 
L 238.922326 55.056565 
L 239.897265 55.814525 
L 241.197183 57.173124 
L 242.497101 58.923366 
L 243.797019 61.056925 
L 245.421916 64.247372 
L 247.046814 67.997447 
L 248.671712 72.279908 
L 250.621589 78.078083 
L 252.571466 84.539406 
L 254.846323 92.829393 
L 257.446159 103.159756 
L 260.695954 117.102276 
L 264.595708 134.883245 
L 278.569828 199.606643 
L 282.144603 214.637701 
L 285.394398 227.327443 
L 288.319214 237.859815 
L 290.91905 246.473503 
L 293.518886 254.365439 
L 296.118722 261.53445 
L 298.718559 267.992441 
L 300.993415 273.077727 
L 303.268272 277.657137 
L 305.543129 281.755925 
L 307.817985 285.402518 
L 310.092842 288.62756 
L 312.367699 291.463047 
L 314.642555 293.941551 
L 316.917412 296.095545 
L 319.192269 297.95683 
L 321.467125 299.556074 
L 324.066962 301.10025 
L 326.666798 302.380876 
L 329.591613 303.55286 
L 332.516429 304.486105 
L 335.766224 305.293847 
L 339.340999 305.960261 
L 343.565733 306.519306 
L 348.765405 306.965215 
L 355.264996 307.281122 
L 364.364423 307.479854 
L 380.613399 307.571268 
L 398.487273 307.583056 
L 398.487273 307.583056 
" clip-path="url(#p59ebfdcc59)" style="fill: none; stroke: #0000ff; stroke-width: 2; stroke-linecap: square"/>
   </g>
   <g id="patch_3">
    <path d="M 57.6 307.584 
L 57.6 41.472 
" style="fill: none; stroke: #000000; stroke-width: 0.8; stroke-linejoin: miter; stroke-linecap: square"/>
   </g>
   <g id="patch_4">
    <path d="M 414.72 307.584 
L 414.72 41.472 
" style="fill: none; stroke: #000000; stroke-width: 0.8; stroke-linejoin: miter; stroke-linecap: square"/>
   </g>
   <g id="patch_5">
    <path d="M 57.6 307.584 
L 414.72 307.584 
" style="fill: none; stroke: #000000; stroke-width: 0.8; stroke-linejoin: miter; stroke-linecap: square"/>
   </g>
   <g id="patch_6">
    <path d="M 57.6 41.472 
L 414.72 41.472 
" style="fill: none; stroke: #000000; stroke-width: 0.8; stroke-linejoin: miter; stroke-linecap: square"/>
   </g>
   <g id="patch_7">
    <path d="M 271.265337 180.864 
Q 236.161056 180.864 201.056776 180.864 
" style="fill: none; stroke: #000000; stroke-linecap: round"/>
    <path d="M 266.465337 178.464 
L 271.265337 180.864 
L 266.465337 183.264 
" style="fill: none; stroke: #000000; stroke-linecap: round"/>
    <path d="M 205.856776 183.264 
L 201.056776 180.864 
L 205.856776 178.464 
" style="fill: none; stroke: #000000; stroke-linecap: round"/>
   </g>
   <g id="text_3">
    <!-- $\sqrt{V(t)}$ -->
    <g transform="translate(219.36 199.993125) scale(0.12 -0.12)">
     <defs>
      <path id="STIXSizeOneSym-Regular-221a" d="M 6970 9933 
L 3373 -1888 
L 3104 -1888 
L 1626 2918 
Q 1555 3149 1465 3251 
Q 1376 3354 1229 3354 
Q 1011 3354 794 3181 
L 717 3309 
L 1766 4115 
L 1926 4115 
L 3379 -602 
L 3405 -602 
L 6605 9933 
L 6970 9933 
z
" transform="scale(0.015625)"/>
      <path id="DejaVuSans-Oblique-56" d="M 1319 0 
L 500 4666 
L 1119 4666 
L 1797 653 
L 4063 4666 
L 4750 4666 
L 2053 0 
L 1319 0 
z
" transform="scale(0.015625)"/>
     </defs>
     <use xlink:href="#STIXSizeOneSym-Regular-221a" transform="translate(0 6.921875) scale(0.651383)"/>
     <use xlink:href="#DejaVuSans-Oblique-56" transform="translate(81.337112 0.875)"/>
     <use xlink:href="#DejaVuSans-28" transform="translate(149.745316 0.875)"/>
     <use xlink:href="#DejaVuSans-Oblique-74" transform="translate(188.758987 0.875)"/>
     <use xlink:href="#DejaVuSans-29" transform="translate(227.967972 0.875)"/>
     <path d="M 68.837112 101.5 
L 68.837112 107.75 
L 279.481644 107.75 
L 279.481644 101.5 
L 68.837112 101.5 
z
"/>
    </g>
   </g>
   <g id="text_4">
    <!-- area = $N(t)$ -->
    <g transform="translate(208.26 284.2365) scale(0.12 -0.12)">
     <defs>
      <path id="TimesNewRomanPSMT-3d" d="M 116 2759 
L 3488 2759 
L 3488 2503 
L 116 2503 
L 116 2759 
z
M 116 1741 
L 3488 1741 
L 3488 1484 
L 116 1484 
L 116 1741 
z
" transform="scale(0.015625)"/>
      <path id="DejaVuSans-Oblique-4e" d="M 1081 4666 
L 1931 4666 
L 3219 666 
L 4000 4666 
L 4616 4666 
L 3706 0 
L 2853 0 
L 1569 4025 
L 788 0 
L 172 0 
L 1081 4666 
z
" transform="scale(0.015625)"/>
     </defs>
     <use xlink:href="#TimesNewRomanPSMT-61" transform="translate(0 0.125)"/>
     <use xlink:href="#TimesNewRomanPSMT-72" transform="translate(44.384766 0.125)"/>
     <use xlink:href="#TimesNewRomanPSMT-65" transform="translate(77.685547 0.125)"/>
     <use xlink:href="#TimesNewRomanPSMT-61" transform="translate(122.070312 0.125)"/>
     <use xlink:href="#TimesNewRomanPSMT-20" transform="translate(166.455078 0.125)"/>
     <use xlink:href="#TimesNewRomanPSMT-3d" transform="translate(191.455078 0.125)"/>
     <use xlink:href="#TimesNewRomanPSMT-20" transform="translate(247.851562 0.125)"/>
     <use xlink:href="#DejaVuSans-Oblique-4e" transform="translate(272.851562 0.125)"/>
     <use xlink:href="#DejaVuSans-28" transform="translate(347.65625 0.125)"/>
     <use xlink:href="#DejaVuSans-Oblique-74" transform="translate(386.669922 0.125)"/>
     <use xlink:href="#DejaVuSans-29" transform="translate(425.878906 0.125)"/>
    </g>
   </g>
  </g>
 </g>
 <defs>
  <clipPath id="p59ebfdcc59">
   <rect x="57.6" y="41.472" width="357.12" height="266.112"/>
  </clipPath>
 </defs>
</svg>
