<?xml version="1.0" encoding="utf-8" standalone="no"?>
<!DOCTYPE svg PUBLIC "-//W3C//DTD SVG 1.1//EN"
  "http://www.w3.org/Graphics/SVG/1.1/DTD/svg11.dtd">
<svg xmlns:xlink="http://www.w3.org/1999/xlink" width="612pt" height="216pt" viewBox="0 0 612 216" xmlns="http://www.w3.org/2000/svg" version="1.1">
 <metadata>
  <rdf:RDF xmlns:dc="http://purl.org/dc/elements/1.1/" xmlns:cc="http://creativecommons.org/ns#" xmlns:rdf="http://www.w3.org/1999/02/22-rdf-syntax-ns#">
   <cc:Work>
    <dc:type rdf:resource="http://purl.org/dc/dcmitype/StillImage"/>
    <dc:date>2024-10-01T16:57:10.050550</dc:date>
    <dc:format>image/svg+xml</dc:format>
    <dc:creator>
     <cc:Agent>
      <dc:title>Matplotlib v3.7.1, https://matplotlib.org/</dc:title>
     </cc:Agent>
    </dc:creator>
   </cc:Work>
  </rdf:RDF>
 </metadata>
 <defs>
  <style type="text/css">*{stroke-linejoin: round; stroke-linecap: butt}</style>
 </defs>
 <g id="figure_1">
  <g id="patch_1">
   <path d="M 0 216 
L 612 216 
L 612 0 
L 0 0 
z
" style="fill: #ffffff"/>
  </g>
  <g id="axes_1">
   <g id="patch_2">
    <path d="M 37.46 174.4585 
L 196.238482 174.4585 
L 196.238482 19.836 
L 37.46 19.836 
z
" style="fill: #ffffff"/>
   </g>
   <g id="PathCollection_1">
    <defs>
     <path id="m693c14eecc" d="M 0 3 
C 0.795609 3 1.55874 2.683901 2.12132 2.12132 
C 2.683901 1.55874 3 0.795609 3 0 
C 3 -0.795609 2.683901 -1.55874 2.12132 -2.12132 
C 1.55874 -2.683901 0.795609 -3 0 -3 
C -0.795609 -3 -1.55874 -2.683901 -2.12132 -2.12132 
C -2.683901 -1.55874 -3 -0.795609 -3 0 
C -3 0.795609 -2.683901 1.55874 -2.12132 2.12132 
C -1.55874 2.683901 -0.795609 3 0 3 
z
" style="stroke: #8b4513"/>
    </defs>
    <g clip-path="url(#pd383068ca1)">
     <use xlink:href="#m693c14eecc" x="61.02267" y="149.409655" style="fill: #8b4513; stroke: #8b4513"/>
     <use xlink:href="#m693c14eecc" x="72.804005" y="150.116501" style="fill: #8b4513; stroke: #8b4513"/>
     <use xlink:href="#m693c14eecc" x="84.58534" y="148.459831" style="fill: #8b4513; stroke: #8b4513"/>
     <use xlink:href="#m693c14eecc" x="96.366676" y="136.178387" style="fill: #8b4513; stroke: #8b4513"/>
     <use xlink:href="#m693c14eecc" x="108.148011" y="85.373851" style="fill: #8b4513; stroke: #8b4513"/>
     <use xlink:href="#m693c14eecc" x="119.929346" y="68.07822" style="fill: #8b4513; stroke: #8b4513"/>
     <use xlink:href="#m693c14eecc" x="131.710681" y="73.313296" style="fill: #8b4513; stroke: #8b4513"/>
     <use xlink:href="#m693c14eecc" x="143.492016" y="91.293684" style="fill: #8b4513; stroke: #8b4513"/>
     <use xlink:href="#m693c14eecc" x="155.273351" y="110.599408" style="fill: #8b4513; stroke: #8b4513"/>
     <use xlink:href="#m693c14eecc" x="167.054686" y="119.920935" style="fill: #8b4513; stroke: #8b4513"/>
     <use xlink:href="#m693c14eecc" x="178.836021" y="121.621783" style="fill: #8b4513; stroke: #8b4513"/>
     <use xlink:href="#m693c14eecc" x="190.617356" y="120.84867" style="fill: #8b4513; stroke: #8b4513"/>
    </g>
   </g>
   <g id="PathCollection_2">
    <defs>
     <path id="ma981610263" d="M -0 3 
L 3 -3 
L -3 -3 
z
" style="stroke: #006400"/>
    </defs>
    <g clip-path="url(#pd383068ca1)">
     <use xlink:href="#ma981610263" x="61.02267" y="149.409655" style="fill: #006400; stroke: #006400"/>
     <use xlink:href="#ma981610263" x="72.804005" y="150.116501" style="fill: #006400; stroke: #006400"/>
     <use xlink:href="#ma981610263" x="84.58534" y="148.592365" style="fill: #006400; stroke: #006400"/>
     <use xlink:href="#ma981610263" x="96.366676" y="135.029763" style="fill: #006400; stroke: #006400"/>
     <use xlink:href="#ma981610263" x="108.148011" y="84.799539" style="fill: #006400; stroke: #006400"/>
     <use xlink:href="#ma981610263" x="119.929346" y="66.399461" style="fill: #006400; stroke: #006400"/>
     <use xlink:href="#ma981610263" x="131.710681" y="73.688808" style="fill: #006400; stroke: #006400"/>
     <use xlink:href="#ma981610263" x="143.492016" y="93.657199" style="fill: #006400; stroke: #006400"/>
     <use xlink:href="#ma981610263" x="155.273351" y="114.244081" style="fill: #006400; stroke: #006400"/>
     <use xlink:href="#ma981610263" x="167.054686" y="121.445071" style="fill: #006400; stroke: #006400"/>
    </g>
   </g>
   <g id="PolyCollection_1">
    <defs>
     <path id="mabf90600f8" d="M 37.46 -65.72523 
L 37.46 -64.36301 
L 196.238482 -64.36301 
L 196.238482 -65.72523 
L 196.238482 -65.72523 
L 37.46 -65.72523 
z
" style="stroke: #4169e1; stroke-opacity: 0.3"/>
    </defs>
    <g clip-path="url(#pd383068ca1)">
     <use xlink:href="#mabf90600f8" x="0" y="216" style="fill: #4169e1; fill-opacity: 0.3; stroke: #4169e1; stroke-opacity: 0.3"/>
    </g>
   </g>
   <g id="PolyCollection_2">
    <defs>
     <path id="m524781afcb" d="M 37.46 -95.231624 
L 37.46 -93.348099 
L 196.238482 -93.348099 
L 196.238482 -95.231624 
L 196.238482 -95.231624 
L 37.46 -95.231624 
z
" style="stroke: #ff8c00; stroke-opacity: 0.3"/>
    </defs>
    <g clip-path="url(#pd383068ca1)">
     <use xlink:href="#m524781afcb" x="0" y="216" style="fill: #ff8c00; fill-opacity: 0.3; stroke: #ff8c00; stroke-opacity: 0.3"/>
    </g>
   </g>
   <g id="matplotlib.axis_1">
    <g id="xtick_1">
     <g id="line2d_1">
      <defs>
       <path id="mb90c816b48" d="M 0 0 
L 0 3.5 
" style="stroke: #000000; stroke-width: 0.8"/>
      </defs>
      <g>
       <use xlink:href="#mb90c816b48" x="37.46" y="174.4585" style="stroke: #000000; stroke-width: 0.8"/>
      </g>
     </g>
     <g id="text_1">
      <!-- $\mathdefault{10^{-12}}$ -->
      <g transform="translate(24.5 192.091625) scale(0.12 -0.12)">
       <defs>
        <path id="TimesNewRomanPSMT-31" d="M 750 3822 
L 1781 4325 
L 1884 4325 
L 1884 747 
Q 1884 391 1914 303 
Q 1944 216 2037 169 
Q 2131 122 2419 116 
L 2419 0 
L 825 0 
L 825 116 
Q 1125 122 1212 167 
Q 1300 213 1334 289 
Q 1369 366 1369 747 
L 1369 3034 
Q 1369 3497 1338 3628 
Q 1316 3728 1258 3775 
Q 1200 3822 1119 3822 
Q 1003 3822 797 3725 
L 750 3822 
z
" transform="scale(0.015625)"/>
        <path id="TimesNewRomanPSMT-30" d="M 231 2094 
Q 231 2819 450 3342 
Q 669 3866 1031 4122 
Q 1313 4325 1613 4325 
Q 2100 4325 2488 3828 
Q 2972 3213 2972 2159 
Q 2972 1422 2759 906 
Q 2547 391 2217 158 
Q 1888 -75 1581 -75 
Q 975 -75 572 641 
Q 231 1244 231 2094 
z
M 844 2016 
Q 844 1141 1059 588 
Q 1238 122 1591 122 
Q 1759 122 1940 273 
Q 2122 425 2216 781 
Q 2359 1319 2359 2297 
Q 2359 3022 2209 3506 
Q 2097 3866 1919 4016 
Q 1791 4119 1609 4119 
Q 1397 4119 1231 3928 
Q 1006 3669 925 3112 
Q 844 2556 844 2016 
z
" transform="scale(0.015625)"/>
        <path id="TimesNewRomanPSMT-2212" d="M 3484 2000 
L 116 2000 
L 116 2256 
L 3484 2256 
L 3484 2000 
z
" transform="scale(0.015625)"/>
        <path id="TimesNewRomanPSMT-32" d="M 2934 816 
L 2638 0 
L 138 0 
L 138 116 
Q 1241 1122 1691 1759 
Q 2141 2397 2141 2925 
Q 2141 3328 1894 3587 
Q 1647 3847 1303 3847 
Q 991 3847 742 3664 
Q 494 3481 375 3128 
L 259 3128 
Q 338 3706 661 4015 
Q 984 4325 1469 4325 
Q 1984 4325 2329 3994 
Q 2675 3663 2675 3213 
Q 2675 2891 2525 2569 
Q 2294 2063 1775 1497 
Q 997 647 803 472 
L 1909 472 
Q 2247 472 2383 497 
Q 2519 522 2628 598 
Q 2738 675 2819 816 
L 2934 816 
z
" transform="scale(0.015625)"/>
       </defs>
       <use xlink:href="#TimesNewRomanPSMT-31" transform="translate(0 0.582813)"/>
       <use xlink:href="#TimesNewRomanPSMT-30" transform="translate(50 0.582813)"/>
       <use xlink:href="#TimesNewRomanPSMT-2212" transform="translate(101.502813 60.695312) scale(0.7)"/>
       <use xlink:href="#TimesNewRomanPSMT-31" transform="translate(140.980352 60.695312) scale(0.7)"/>
       <use xlink:href="#TimesNewRomanPSMT-32" transform="translate(175.980352 60.695312) scale(0.7)"/>
      </g>
     </g>
    </g>
    <g id="xtick_2">
     <g id="line2d_2">
      <g>
       <use xlink:href="#mb90c816b48" x="84.58534" y="174.4585" style="stroke: #000000; stroke-width: 0.8"/>
      </g>
     </g>
     <g id="text_2">
      <!-- $\mathdefault{10^{-8}}$ -->
      <g transform="translate(73.72534 192.091625) scale(0.12 -0.12)">
       <defs>
        <path id="TimesNewRomanPSMT-38" d="M 1228 2134 
Q 725 2547 579 2797 
Q 434 3047 434 3316 
Q 434 3728 753 4026 
Q 1072 4325 1600 4325 
Q 2113 4325 2425 4047 
Q 2738 3769 2738 3413 
Q 2738 3175 2569 2928 
Q 2400 2681 1866 2347 
Q 2416 1922 2594 1678 
Q 2831 1359 2831 1006 
Q 2831 559 2490 242 
Q 2150 -75 1597 -75 
Q 994 -75 656 303 
Q 388 606 388 966 
Q 388 1247 577 1523 
Q 766 1800 1228 2134 
z
M 1719 2469 
Q 2094 2806 2194 3001 
Q 2294 3197 2294 3444 
Q 2294 3772 2109 3958 
Q 1925 4144 1606 4144 
Q 1288 4144 1088 3959 
Q 888 3775 888 3528 
Q 888 3366 970 3203 
Q 1053 3041 1206 2894 
L 1719 2469 
z
M 1375 2016 
Q 1116 1797 991 1539 
Q 866 1281 866 981 
Q 866 578 1086 336 
Q 1306 94 1647 94 
Q 1984 94 2187 284 
Q 2391 475 2391 747 
Q 2391 972 2272 1150 
Q 2050 1481 1375 2016 
z
" transform="scale(0.015625)"/>
       </defs>
       <use xlink:href="#TimesNewRomanPSMT-31" transform="translate(0 0.582813)"/>
       <use xlink:href="#TimesNewRomanPSMT-30" transform="translate(50 0.582813)"/>
       <use xlink:href="#TimesNewRomanPSMT-2212" transform="translate(101.502813 60.695312) scale(0.7)"/>
       <use xlink:href="#TimesNewRomanPSMT-38" transform="translate(140.980352 60.695312) scale(0.7)"/>
      </g>
     </g>
    </g>
    <g id="xtick_3">
     <g id="line2d_3">
      <g>
       <use xlink:href="#mb90c816b48" x="131.710681" y="174.4585" style="stroke: #000000; stroke-width: 0.8"/>
      </g>
     </g>
     <g id="text_3">
      <!-- $\mathdefault{10^{-4}}$ -->
      <g transform="translate(120.850681 192.091625) scale(0.12 -0.12)">
       <defs>
        <path id="TimesNewRomanPSMT-34" d="M 2978 1563 
L 2978 1119 
L 2409 1119 
L 2409 0 
L 1894 0 
L 1894 1119 
L 100 1119 
L 100 1519 
L 2066 4325 
L 2409 4325 
L 2409 1563 
L 2978 1563 
z
M 1894 1563 
L 1894 3666 
L 406 1563 
L 1894 1563 
z
" transform="scale(0.015625)"/>
       </defs>
       <use xlink:href="#TimesNewRomanPSMT-31" transform="translate(0 0.582813)"/>
       <use xlink:href="#TimesNewRomanPSMT-30" transform="translate(50 0.582813)"/>
       <use xlink:href="#TimesNewRomanPSMT-2212" transform="translate(101.502813 60.695312) scale(0.7)"/>
       <use xlink:href="#TimesNewRomanPSMT-34" transform="translate(140.980352 60.695312) scale(0.7)"/>
      </g>
     </g>
    </g>
    <g id="xtick_4">
     <g id="line2d_4">
      <g>
       <use xlink:href="#mb90c816b48" x="178.836021" y="174.4585" style="stroke: #000000; stroke-width: 0.8"/>
      </g>
     </g>
     <g id="text_4">
      <!-- $\mathdefault{10^{0}}$ -->
      <g transform="translate(170.376021 192.091625) scale(0.12 -0.12)">
       <use xlink:href="#TimesNewRomanPSMT-31" transform="translate(0 0.582813)"/>
       <use xlink:href="#TimesNewRomanPSMT-30" transform="translate(50 0.582813)"/>
       <use xlink:href="#TimesNewRomanPSMT-30" transform="translate(101.502813 60.695312) scale(0.7)"/>
      </g>
     </g>
    </g>
    <g id="text_5">
     <!-- migration rate, $k / \gamma$ -->
     <g transform="translate(70.949241 207.7785) scale(0.12 -0.12)">
      <defs>
       <path id="TimesNewRomanPSMT-6d" d="M 1050 2338 
Q 1363 2650 1419 2697 
Q 1559 2816 1721 2881 
Q 1884 2947 2044 2947 
Q 2313 2947 2506 2790 
Q 2700 2634 2766 2338 
Q 3088 2713 3309 2830 
Q 3531 2947 3766 2947 
Q 3994 2947 4170 2830 
Q 4347 2713 4450 2447 
Q 4519 2266 4519 1878 
L 4519 647 
Q 4519 378 4559 278 
Q 4591 209 4675 161 
Q 4759 113 4950 113 
L 4950 0 
L 3538 0 
L 3538 113 
L 3597 113 
Q 3781 113 3884 184 
Q 3956 234 3988 344 
Q 4000 397 4000 647 
L 4000 1878 
Q 4000 2228 3916 2372 
Q 3794 2572 3525 2572 
Q 3359 2572 3192 2489 
Q 3025 2406 2788 2181 
L 2781 2147 
L 2788 2013 
L 2788 647 
Q 2788 353 2820 281 
Q 2853 209 2943 161 
Q 3034 113 3253 113 
L 3253 0 
L 1806 0 
L 1806 113 
Q 2044 113 2133 169 
Q 2222 225 2256 338 
Q 2272 391 2272 647 
L 2272 1878 
Q 2272 2228 2169 2381 
Q 2031 2581 1784 2581 
Q 1616 2581 1450 2491 
Q 1191 2353 1050 2181 
L 1050 647 
Q 1050 366 1089 281 
Q 1128 197 1204 155 
Q 1281 113 1516 113 
L 1516 0 
L 100 0 
L 100 113 
Q 297 113 375 155 
Q 453 197 493 289 
Q 534 381 534 647 
L 534 1741 
Q 534 2213 506 2350 
Q 484 2453 437 2492 
Q 391 2531 309 2531 
Q 222 2531 100 2484 
L 53 2597 
L 916 2947 
L 1050 2947 
L 1050 2338 
z
" transform="scale(0.015625)"/>
       <path id="TimesNewRomanPSMT-69" d="M 928 4444 
Q 1059 4444 1151 4351 
Q 1244 4259 1244 4128 
Q 1244 3997 1151 3903 
Q 1059 3809 928 3809 
Q 797 3809 703 3903 
Q 609 3997 609 4128 
Q 609 4259 701 4351 
Q 794 4444 928 4444 
z
M 1188 2947 
L 1188 647 
Q 1188 378 1227 289 
Q 1266 200 1342 156 
Q 1419 113 1622 113 
L 1622 0 
L 231 0 
L 231 113 
Q 441 113 512 153 
Q 584 194 626 287 
Q 669 381 669 647 
L 669 1750 
Q 669 2216 641 2353 
Q 619 2453 572 2492 
Q 525 2531 444 2531 
Q 356 2531 231 2484 
L 188 2597 
L 1050 2947 
L 1188 2947 
z
" transform="scale(0.015625)"/>
       <path id="TimesNewRomanPSMT-67" d="M 966 1044 
Q 703 1172 562 1401 
Q 422 1631 422 1909 
Q 422 2334 742 2640 
Q 1063 2947 1563 2947 
Q 1972 2947 2272 2747 
L 2878 2747 
Q 3013 2747 3034 2739 
Q 3056 2731 3066 2713 
Q 3084 2684 3084 2613 
Q 3084 2531 3069 2500 
Q 3059 2484 3036 2475 
Q 3013 2466 2878 2466 
L 2506 2466 
Q 2681 2241 2681 1891 
Q 2681 1491 2375 1206 
Q 2069 922 1553 922 
Q 1341 922 1119 984 
Q 981 866 932 777 
Q 884 688 884 625 
Q 884 572 936 522 
Q 988 472 1138 450 
Q 1225 438 1575 428 
Q 2219 413 2409 384 
Q 2700 344 2873 169 
Q 3047 -6 3047 -263 
Q 3047 -616 2716 -925 
Q 2228 -1381 1444 -1381 
Q 841 -1381 425 -1109 
Q 191 -953 191 -784 
Q 191 -709 225 -634 
Q 278 -519 444 -313 
Q 466 -284 763 25 
Q 600 122 533 198 
Q 466 275 466 372 
Q 466 481 555 628 
Q 644 775 966 1044 
z
M 1509 2797 
Q 1278 2797 1122 2612 
Q 966 2428 966 2047 
Q 966 1553 1178 1281 
Q 1341 1075 1591 1075 
Q 1828 1075 1981 1253 
Q 2134 1431 2134 1813 
Q 2134 2309 1919 2591 
Q 1759 2797 1509 2797 
z
M 934 0 
Q 788 -159 713 -296 
Q 638 -434 638 -550 
Q 638 -700 819 -813 
Q 1131 -1006 1722 -1006 
Q 2284 -1006 2551 -807 
Q 2819 -609 2819 -384 
Q 2819 -222 2659 -153 
Q 2497 -84 2016 -72 
Q 1313 -53 934 0 
z
" transform="scale(0.015625)"/>
       <path id="TimesNewRomanPSMT-72" d="M 1038 2947 
L 1038 2303 
Q 1397 2947 1775 2947 
Q 1947 2947 2059 2842 
Q 2172 2738 2172 2600 
Q 2172 2478 2090 2393 
Q 2009 2309 1897 2309 
Q 1788 2309 1652 2417 
Q 1516 2525 1450 2525 
Q 1394 2525 1328 2463 
Q 1188 2334 1038 2041 
L 1038 669 
Q 1038 431 1097 309 
Q 1138 225 1241 169 
Q 1344 113 1538 113 
L 1538 0 
L 72 0 
L 72 113 
Q 291 113 397 181 
Q 475 231 506 341 
Q 522 394 522 644 
L 522 1753 
Q 522 2253 501 2348 
Q 481 2444 426 2487 
Q 372 2531 291 2531 
Q 194 2531 72 2484 
L 41 2597 
L 906 2947 
L 1038 2947 
z
" transform="scale(0.015625)"/>
       <path id="TimesNewRomanPSMT-61" d="M 1822 413 
Q 1381 72 1269 19 
Q 1100 -59 909 -59 
Q 613 -59 420 144 
Q 228 347 228 678 
Q 228 888 322 1041 
Q 450 1253 767 1440 
Q 1084 1628 1822 1897 
L 1822 2009 
Q 1822 2438 1686 2597 
Q 1550 2756 1291 2756 
Q 1094 2756 978 2650 
Q 859 2544 859 2406 
L 866 2225 
Q 866 2081 792 2003 
Q 719 1925 600 1925 
Q 484 1925 411 2006 
Q 338 2088 338 2228 
Q 338 2497 613 2722 
Q 888 2947 1384 2947 
Q 1766 2947 2009 2819 
Q 2194 2722 2281 2516 
Q 2338 2381 2338 1966 
L 2338 994 
Q 2338 584 2353 492 
Q 2369 400 2405 369 
Q 2441 338 2488 338 
Q 2538 338 2575 359 
Q 2641 400 2828 588 
L 2828 413 
Q 2478 -56 2159 -56 
Q 2006 -56 1915 50 
Q 1825 156 1822 413 
z
M 1822 616 
L 1822 1706 
Q 1350 1519 1213 1441 
Q 966 1303 859 1153 
Q 753 1003 753 825 
Q 753 600 887 451 
Q 1022 303 1197 303 
Q 1434 303 1822 616 
z
" transform="scale(0.015625)"/>
       <path id="TimesNewRomanPSMT-74" d="M 1031 3803 
L 1031 2863 
L 1700 2863 
L 1700 2644 
L 1031 2644 
L 1031 788 
Q 1031 509 1111 412 
Q 1191 316 1316 316 
Q 1419 316 1516 380 
Q 1613 444 1666 569 
L 1788 569 
Q 1678 263 1478 108 
Q 1278 -47 1066 -47 
Q 922 -47 784 33 
Q 647 113 581 261 
Q 516 409 516 719 
L 516 2644 
L 63 2644 
L 63 2747 
Q 234 2816 414 2980 
Q 594 3144 734 3369 
Q 806 3488 934 3803 
L 1031 3803 
z
" transform="scale(0.015625)"/>
       <path id="TimesNewRomanPSMT-6f" d="M 1600 2947 
Q 2250 2947 2644 2453 
Q 2978 2031 2978 1484 
Q 2978 1100 2793 706 
Q 2609 313 2286 112 
Q 1963 -88 1566 -88 
Q 919 -88 538 428 
Q 216 863 216 1403 
Q 216 1797 411 2186 
Q 606 2575 925 2761 
Q 1244 2947 1600 2947 
z
M 1503 2744 
Q 1338 2744 1170 2645 
Q 1003 2547 900 2300 
Q 797 2053 797 1666 
Q 797 1041 1045 587 
Q 1294 134 1700 134 
Q 2003 134 2200 384 
Q 2397 634 2397 1244 
Q 2397 2006 2069 2444 
Q 1847 2744 1503 2744 
z
" transform="scale(0.015625)"/>
       <path id="TimesNewRomanPSMT-6e" d="M 1034 2341 
Q 1538 2947 1994 2947 
Q 2228 2947 2397 2830 
Q 2566 2713 2666 2444 
Q 2734 2256 2734 1869 
L 2734 647 
Q 2734 375 2778 278 
Q 2813 200 2889 156 
Q 2966 113 3172 113 
L 3172 0 
L 1756 0 
L 1756 113 
L 1816 113 
Q 2016 113 2095 173 
Q 2175 234 2206 353 
Q 2219 400 2219 647 
L 2219 1819 
Q 2219 2209 2117 2386 
Q 2016 2563 1775 2563 
Q 1403 2563 1034 2156 
L 1034 647 
Q 1034 356 1069 288 
Q 1113 197 1189 155 
Q 1266 113 1500 113 
L 1500 0 
L 84 0 
L 84 113 
L 147 113 
Q 366 113 442 223 
Q 519 334 519 647 
L 519 1709 
Q 519 2225 495 2337 
Q 472 2450 423 2490 
Q 375 2531 294 2531 
Q 206 2531 84 2484 
L 38 2597 
L 900 2947 
L 1034 2947 
L 1034 2341 
z
" transform="scale(0.015625)"/>
       <path id="TimesNewRomanPSMT-20" transform="scale(0.015625)"/>
       <path id="TimesNewRomanPSMT-65" d="M 681 1784 
Q 678 1147 991 784 
Q 1303 422 1725 422 
Q 2006 422 2214 576 
Q 2422 731 2563 1106 
L 2659 1044 
Q 2594 616 2278 264 
Q 1963 -88 1488 -88 
Q 972 -88 605 314 
Q 238 716 238 1394 
Q 238 2128 614 2539 
Q 991 2950 1559 2950 
Q 2041 2950 2350 2633 
Q 2659 2316 2659 1784 
L 681 1784 
z
M 681 1966 
L 2006 1966 
Q 1991 2241 1941 2353 
Q 1863 2528 1708 2628 
Q 1553 2728 1384 2728 
Q 1125 2728 920 2526 
Q 716 2325 681 1966 
z
" transform="scale(0.015625)"/>
       <path id="TimesNewRomanPSMT-2c" d="M 344 -1066 
L 344 -928 
Q 666 -822 842 -598 
Q 1019 -375 1019 -125 
Q 1019 -66 991 -25 
Q 969 3 947 3 
Q 913 3 797 -59 
Q 741 -88 678 -88 
Q 525 -88 434 3 
Q 344 94 344 253 
Q 344 406 461 515 
Q 578 625 747 625 
Q 953 625 1114 445 
Q 1275 266 1275 -31 
Q 1275 -353 1051 -629 
Q 828 -906 344 -1066 
z
" transform="scale(0.015625)"/>
       <path id="DejaVuSans-Oblique-6b" d="M 1172 4863 
L 1747 4863 
L 1197 2028 
L 3169 3500 
L 3916 3500 
L 1716 1825 
L 3322 0 
L 2625 0 
L 1131 1709 
L 800 0 
L 225 0 
L 1172 4863 
z
" transform="scale(0.015625)"/>
       <path id="DejaVuSans-2f" d="M 1625 4666 
L 2156 4666 
L 531 -594 
L 0 -594 
L 1625 4666 
z
" transform="scale(0.015625)"/>
       <path id="DejaVuSans-Oblique-3b3" d="M 1491 2950 
L 1838 788 
L 3456 3500 
L 4066 3500 
L 1972 0 
L 1713 -1331 
L 1138 -1331 
L 1397 0 
L 988 2613 
Q 925 3006 628 3006 
L 475 3006 
L 569 3500 
L 788 3500 
Q 1403 3500 1491 2950 
z
" transform="scale(0.015625)"/>
      </defs>
      <use xlink:href="#TimesNewRomanPSMT-6d" transform="translate(0 0.015625)"/>
      <use xlink:href="#TimesNewRomanPSMT-69" transform="translate(77.783203 0.015625)"/>
      <use xlink:href="#TimesNewRomanPSMT-67" transform="translate(105.566406 0.015625)"/>
      <use xlink:href="#TimesNewRomanPSMT-72" transform="translate(155.566406 0.015625)"/>
      <use xlink:href="#TimesNewRomanPSMT-61" transform="translate(188.867188 0.015625)"/>
      <use xlink:href="#TimesNewRomanPSMT-74" transform="translate(233.251953 0.015625)"/>
      <use xlink:href="#TimesNewRomanPSMT-69" transform="translate(261.035156 0.015625)"/>
      <use xlink:href="#TimesNewRomanPSMT-6f" transform="translate(288.818359 0.015625)"/>
      <use xlink:href="#TimesNewRomanPSMT-6e" transform="translate(338.818359 0.015625)"/>
      <use xlink:href="#TimesNewRomanPSMT-20" transform="translate(388.818359 0.015625)"/>
      <use xlink:href="#TimesNewRomanPSMT-72" transform="translate(413.818359 0.015625)"/>
      <use xlink:href="#TimesNewRomanPSMT-61" transform="translate(447.119141 0.015625)"/>
      <use xlink:href="#TimesNewRomanPSMT-74" transform="translate(491.503906 0.015625)"/>
      <use xlink:href="#TimesNewRomanPSMT-65" transform="translate(519.287109 0.015625)"/>
      <use xlink:href="#TimesNewRomanPSMT-2c" transform="translate(563.671875 0.015625)"/>
      <use xlink:href="#TimesNewRomanPSMT-20" transform="translate(588.671875 0.015625)"/>
      <use xlink:href="#DejaVuSans-Oblique-6b" transform="translate(613.671875 0.015625)"/>
      <use xlink:href="#DejaVuSans-2f" transform="translate(671.582031 0.015625)"/>
      <use xlink:href="#DejaVuSans-Oblique-3b3" transform="translate(705.273438 0.015625)"/>
     </g>
    </g>
   </g>
   <g id="matplotlib.axis_2">
    <g id="ytick_1">
     <g id="line2d_5">
      <defs>
       <path id="m676a87d0f1" d="M 0 0 
L -3.5 0 
" style="stroke: #000000; stroke-width: 0.8"/>
      </defs>
      <g>
       <use xlink:href="#m676a87d0f1" x="37.46" y="174.4585" style="stroke: #000000; stroke-width: 0.8"/>
      </g>
     </g>
     <g id="text_6">
      <!-- 0.0 -->
      <g transform="translate(15.46 178.62475) scale(0.12 -0.12)">
       <defs>
        <path id="TimesNewRomanPSMT-2e" d="M 800 606 
Q 947 606 1047 504 
Q 1147 403 1147 259 
Q 1147 116 1045 14 
Q 944 -88 800 -88 
Q 656 -88 554 14 
Q 453 116 453 259 
Q 453 406 554 506 
Q 656 606 800 606 
z
" transform="scale(0.015625)"/>
       </defs>
       <use xlink:href="#TimesNewRomanPSMT-30"/>
       <use xlink:href="#TimesNewRomanPSMT-2e" x="50"/>
       <use xlink:href="#TimesNewRomanPSMT-30" x="75"/>
      </g>
     </g>
    </g>
    <g id="ytick_2">
     <g id="line2d_6">
      <g>
       <use xlink:href="#m676a87d0f1" x="37.46" y="130.280643" style="stroke: #000000; stroke-width: 0.8"/>
      </g>
     </g>
     <g id="text_7">
      <!-- 0.2 -->
      <g transform="translate(15.46 134.446893) scale(0.12 -0.12)">
       <use xlink:href="#TimesNewRomanPSMT-30"/>
       <use xlink:href="#TimesNewRomanPSMT-2e" x="50"/>
       <use xlink:href="#TimesNewRomanPSMT-32" x="75"/>
      </g>
     </g>
    </g>
    <g id="ytick_3">
     <g id="line2d_7">
      <g>
       <use xlink:href="#m676a87d0f1" x="37.46" y="86.102786" style="stroke: #000000; stroke-width: 0.8"/>
      </g>
     </g>
     <g id="text_8">
      <!-- 0.4 -->
      <g transform="translate(15.46 90.269036) scale(0.12 -0.12)">
       <use xlink:href="#TimesNewRomanPSMT-30"/>
       <use xlink:href="#TimesNewRomanPSMT-2e" x="50"/>
       <use xlink:href="#TimesNewRomanPSMT-34" x="75"/>
      </g>
     </g>
    </g>
    <g id="ytick_4">
     <g id="line2d_8">
      <g>
       <use xlink:href="#m676a87d0f1" x="37.46" y="41.924929" style="stroke: #000000; stroke-width: 0.8"/>
      </g>
     </g>
     <g id="text_9">
      <!-- 0.6 -->
      <g transform="translate(15.46 46.091179) scale(0.12 -0.12)">
       <defs>
        <path id="TimesNewRomanPSMT-36" d="M 2869 4325 
L 2869 4209 
Q 2456 4169 2195 4045 
Q 1934 3922 1679 3669 
Q 1425 3416 1258 3105 
Q 1091 2794 978 2366 
Q 1428 2675 1881 2675 
Q 2316 2675 2634 2325 
Q 2953 1975 2953 1425 
Q 2953 894 2631 456 
Q 2244 -75 1606 -75 
Q 1172 -75 869 213 
Q 275 772 275 1663 
Q 275 2231 503 2743 
Q 731 3256 1154 3653 
Q 1578 4050 1965 4187 
Q 2353 4325 2688 4325 
L 2869 4325 
z
M 925 2138 
Q 869 1716 869 1456 
Q 869 1156 980 804 
Q 1091 453 1309 247 
Q 1469 100 1697 100 
Q 1969 100 2183 356 
Q 2397 613 2397 1088 
Q 2397 1622 2184 2012 
Q 1972 2403 1581 2403 
Q 1463 2403 1327 2353 
Q 1191 2303 925 2138 
z
" transform="scale(0.015625)"/>
       </defs>
       <use xlink:href="#TimesNewRomanPSMT-30"/>
       <use xlink:href="#TimesNewRomanPSMT-2e" x="50"/>
       <use xlink:href="#TimesNewRomanPSMT-36" x="75"/>
      </g>
     </g>
    </g>
    <g id="text_10">
     <!-- escape probability -->
     <g transform="translate(8.870625 140.965063) rotate(-90) scale(0.12 -0.12)">
      <defs>
       <path id="TimesNewRomanPSMT-73" d="M 2050 2947 
L 2050 1972 
L 1947 1972 
Q 1828 2431 1642 2597 
Q 1456 2763 1169 2763 
Q 950 2763 815 2647 
Q 681 2531 681 2391 
Q 681 2216 781 2091 
Q 878 1963 1175 1819 
L 1631 1597 
Q 2266 1288 2266 781 
Q 2266 391 1970 151 
Q 1675 -88 1309 -88 
Q 1047 -88 709 6 
Q 606 38 541 38 
Q 469 38 428 -44 
L 325 -44 
L 325 978 
L 428 978 
Q 516 541 762 319 
Q 1009 97 1316 97 
Q 1531 97 1667 223 
Q 1803 350 1803 528 
Q 1803 744 1651 891 
Q 1500 1038 1047 1263 
Q 594 1488 453 1669 
Q 313 1847 313 2119 
Q 313 2472 555 2709 
Q 797 2947 1181 2947 
Q 1350 2947 1591 2875 
Q 1750 2828 1803 2828 
Q 1853 2828 1881 2850 
Q 1909 2872 1947 2947 
L 2050 2947 
z
" transform="scale(0.015625)"/>
       <path id="TimesNewRomanPSMT-63" d="M 2631 1088 
Q 2516 522 2178 217 
Q 1841 -88 1431 -88 
Q 944 -88 581 321 
Q 219 731 219 1428 
Q 219 2103 620 2525 
Q 1022 2947 1584 2947 
Q 2006 2947 2278 2723 
Q 2550 2500 2550 2259 
Q 2550 2141 2473 2067 
Q 2397 1994 2259 1994 
Q 2075 1994 1981 2113 
Q 1928 2178 1911 2362 
Q 1894 2547 1784 2644 
Q 1675 2738 1481 2738 
Q 1169 2738 978 2506 
Q 725 2200 725 1697 
Q 725 1184 976 792 
Q 1228 400 1656 400 
Q 1963 400 2206 609 
Q 2378 753 2541 1131 
L 2631 1088 
z
" transform="scale(0.015625)"/>
       <path id="TimesNewRomanPSMT-70" d="M -6 2578 
L 875 2934 
L 994 2934 
L 994 2266 
Q 1216 2644 1439 2795 
Q 1663 2947 1909 2947 
Q 2341 2947 2628 2609 
Q 2981 2197 2981 1534 
Q 2981 794 2556 309 
Q 2206 -88 1675 -88 
Q 1444 -88 1275 -22 
Q 1150 25 994 166 
L 994 -706 
Q 994 -1000 1030 -1079 
Q 1066 -1159 1155 -1206 
Q 1244 -1253 1478 -1253 
L 1478 -1369 
L -22 -1369 
L -22 -1253 
L 56 -1253 
Q 228 -1256 350 -1188 
Q 409 -1153 442 -1076 
Q 475 -1000 475 -688 
L 475 2019 
Q 475 2297 450 2372 
Q 425 2447 370 2484 
Q 316 2522 222 2522 
Q 147 2522 31 2478 
L -6 2578 
z
M 994 2081 
L 994 1013 
Q 994 666 1022 556 
Q 1066 375 1236 237 
Q 1406 100 1666 100 
Q 1978 100 2172 344 
Q 2425 663 2425 1241 
Q 2425 1897 2138 2250 
Q 1938 2494 1663 2494 
Q 1513 2494 1366 2419 
Q 1253 2363 994 2081 
z
" transform="scale(0.015625)"/>
       <path id="TimesNewRomanPSMT-62" d="M 984 2369 
Q 1400 2947 1881 2947 
Q 2322 2947 2650 2570 
Q 2978 2194 2978 1541 
Q 2978 778 2472 313 
Q 2038 -88 1503 -88 
Q 1253 -88 995 3 
Q 738 94 469 275 
L 469 3241 
Q 469 3728 445 3840 
Q 422 3953 372 3993 
Q 322 4034 247 4034 
Q 159 4034 28 3984 
L -16 4094 
L 844 4444 
L 984 4444 
L 984 2369 
z
M 984 2169 
L 984 456 
Q 1144 300 1314 220 
Q 1484 141 1663 141 
Q 1947 141 2192 453 
Q 2438 766 2438 1363 
Q 2438 1913 2192 2208 
Q 1947 2503 1634 2503 
Q 1469 2503 1303 2419 
Q 1178 2356 984 2169 
z
" transform="scale(0.015625)"/>
       <path id="TimesNewRomanPSMT-6c" d="M 1184 4444 
L 1184 647 
Q 1184 378 1223 290 
Q 1263 203 1344 158 
Q 1425 113 1647 113 
L 1647 0 
L 244 0 
L 244 113 
Q 441 113 512 153 
Q 584 194 625 287 
Q 666 381 666 647 
L 666 3247 
Q 666 3731 644 3842 
Q 622 3953 573 3993 
Q 525 4034 450 4034 
Q 369 4034 244 3984 
L 191 4094 
L 1044 4444 
L 1184 4444 
z
" transform="scale(0.015625)"/>
       <path id="TimesNewRomanPSMT-79" d="M 38 2863 
L 1372 2863 
L 1372 2747 
L 1306 2747 
Q 1166 2747 1095 2686 
Q 1025 2625 1025 2534 
Q 1025 2413 1128 2197 
L 1825 753 
L 2466 2334 
Q 2519 2463 2519 2588 
Q 2519 2644 2497 2672 
Q 2472 2706 2419 2726 
Q 2366 2747 2231 2747 
L 2231 2863 
L 3163 2863 
L 3163 2747 
Q 3047 2734 2984 2696 
Q 2922 2659 2847 2556 
Q 2819 2513 2741 2316 
L 1575 -541 
Q 1406 -956 1132 -1168 
Q 859 -1381 606 -1381 
Q 422 -1381 303 -1275 
Q 184 -1169 184 -1031 
Q 184 -900 270 -820 
Q 356 -741 506 -741 
Q 609 -741 788 -809 
Q 913 -856 944 -856 
Q 1038 -856 1148 -759 
Q 1259 -663 1372 -384 
L 1575 113 
L 547 2272 
Q 500 2369 397 2513 
Q 319 2622 269 2659 
Q 197 2709 38 2747 
L 38 2863 
z
" transform="scale(0.015625)"/>
      </defs>
      <use xlink:href="#TimesNewRomanPSMT-65"/>
      <use xlink:href="#TimesNewRomanPSMT-73" x="44.384766"/>
      <use xlink:href="#TimesNewRomanPSMT-63" x="83.300781"/>
      <use xlink:href="#TimesNewRomanPSMT-61" x="127.685547"/>
      <use xlink:href="#TimesNewRomanPSMT-70" x="172.070312"/>
      <use xlink:href="#TimesNewRomanPSMT-65" x="222.070312"/>
      <use xlink:href="#TimesNewRomanPSMT-20" x="266.455078"/>
      <use xlink:href="#TimesNewRomanPSMT-70" x="291.455078"/>
      <use xlink:href="#TimesNewRomanPSMT-72" x="341.455078"/>
      <use xlink:href="#TimesNewRomanPSMT-6f" x="374.755859"/>
      <use xlink:href="#TimesNewRomanPSMT-62" x="424.755859"/>
      <use xlink:href="#TimesNewRomanPSMT-61" x="474.755859"/>
      <use xlink:href="#TimesNewRomanPSMT-62" x="519.140625"/>
      <use xlink:href="#TimesNewRomanPSMT-69" x="569.140625"/>
      <use xlink:href="#TimesNewRomanPSMT-6c" x="596.923828"/>
      <use xlink:href="#TimesNewRomanPSMT-69" x="624.707031"/>
      <use xlink:href="#TimesNewRomanPSMT-74" x="652.490234"/>
      <use xlink:href="#TimesNewRomanPSMT-79" x="680.273438"/>
     </g>
    </g>
   </g>
   <g id="line2d_9">
    <path d="M 37.46 150.95588 
L 196.238482 150.95588 
" clip-path="url(#pd383068ca1)" style="fill: none; stroke-dasharray: 5.55,2.4; stroke-dashoffset: 0; stroke: #4169e1; stroke-width: 1.5"/>
   </g>
   <g id="line2d_10">
    <path d="M 37.46 121.710139 
L 196.238482 121.710139 
" clip-path="url(#pd383068ca1)" style="fill: none; stroke-dasharray: 5.55,2.4; stroke-dashoffset: 0; stroke: #ff8c00; stroke-width: 1.5"/>
   </g>
   <g id="line2d_11">
    <path d="M 61.02267 150.945264 
L 72.804005 150.830778 
L 84.58534 149.19625 
L 96.366676 135.799047 
L 108.148011 81.760229 
L 119.929346 67.787016 
L 131.710681 78.579548 
L 143.492016 93.9342 
L 155.273351 110.694964 
L 167.054686 126.437836 
L 178.836021 129.959692 
L 190.617356 129.953939 
" clip-path="url(#pd383068ca1)" style="fill: none; stroke-dasharray: 5.55,2.4; stroke-dashoffset: 0; stroke: #000000; stroke-width: 1.5"/>
   </g>
   <g id="patch_3">
    <path d="M 37.46 174.4585 
L 37.46 19.836 
" style="fill: none; stroke: #000000; stroke-width: 0.8; stroke-linejoin: miter; stroke-linecap: square"/>
   </g>
   <g id="patch_4">
    <path d="M 196.238482 174.4585 
L 196.238482 19.836 
" style="fill: none; stroke: #000000; stroke-width: 0.8; stroke-linejoin: miter; stroke-linecap: square"/>
   </g>
   <g id="patch_5">
    <path d="M 37.46 174.4585 
L 196.238482 174.4585 
" style="fill: none; stroke: #000000; stroke-width: 0.8; stroke-linejoin: miter; stroke-linecap: square"/>
   </g>
   <g id="patch_6">
    <path d="M 37.46 19.836 
L 196.238482 19.836 
" style="fill: none; stroke: #000000; stroke-width: 0.8; stroke-linejoin: miter; stroke-linecap: square"/>
   </g>
   <g id="text_11">
    <!-- (a) -->
    <g transform="translate(34.28443 9.538) scale(0.12 -0.12)">
     <defs>
      <path id="TimesNewRomanPSMT-28" d="M 1988 -1253 
L 1988 -1369 
Q 1516 -1131 1200 -813 
Q 750 -359 506 256 
Q 263 872 263 1534 
Q 263 2503 741 3301 
Q 1219 4100 1988 4444 
L 1988 4313 
Q 1603 4100 1356 3731 
Q 1109 3363 987 2797 
Q 866 2231 866 1616 
Q 866 947 969 400 
Q 1050 -31 1165 -292 
Q 1281 -553 1476 -793 
Q 1672 -1034 1988 -1253 
z
" transform="scale(0.015625)"/>
      <path id="TimesNewRomanPSMT-29" d="M 144 4313 
L 144 4444 
Q 619 4209 934 3891 
Q 1381 3434 1625 2820 
Q 1869 2206 1869 1541 
Q 1869 572 1392 -226 
Q 916 -1025 144 -1369 
L 144 -1253 
Q 528 -1038 776 -670 
Q 1025 -303 1145 264 
Q 1266 831 1266 1447 
Q 1266 2113 1163 2663 
Q 1084 3094 967 3353 
Q 850 3613 656 3853 
Q 463 4094 144 4313 
z
" transform="scale(0.015625)"/>
     </defs>
     <use xlink:href="#TimesNewRomanPSMT-28"/>
     <use xlink:href="#TimesNewRomanPSMT-61" x="33.300781"/>
     <use xlink:href="#TimesNewRomanPSMT-29" x="77.685547"/>
    </g>
   </g>
   <g id="legend_1">
    <g id="PathCollection_3">
     <g>
      <use xlink:href="#m693c14eecc" x="57.998924" y="32.834156" style="fill: #8b4513; stroke: #8b4513"/>
     </g>
    </g>
    <g id="text_12">
     <!-- Two-way Migration (1 ↔ 2) -->
     <g transform="translate(74.198924 35.196656) scale(0.09 -0.09)">
      <defs>
       <path id="TimesNewRomanPSMT-54" d="M 3703 4238 
L 3750 3244 
L 3631 3244 
Q 3597 3506 3538 3619 
Q 3441 3800 3280 3886 
Q 3119 3972 2856 3972 
L 2259 3972 
L 2259 734 
Q 2259 344 2344 247 
Q 2463 116 2709 116 
L 2856 116 
L 2856 0 
L 1059 0 
L 1059 116 
L 1209 116 
Q 1478 116 1591 278 
Q 1659 378 1659 734 
L 1659 3972 
L 1150 3972 
Q 853 3972 728 3928 
Q 566 3869 450 3700 
Q 334 3531 313 3244 
L 194 3244 
L 244 4238 
L 3703 4238 
z
" transform="scale(0.015625)"/>
       <path id="TimesNewRomanPSMT-77" d="M 41 2863 
L 1241 2863 
L 1241 2747 
Q 1075 2734 1023 2687 
Q 972 2641 972 2553 
Q 972 2456 1025 2319 
L 1638 672 
L 2253 2013 
L 2091 2434 
Q 2016 2622 1894 2694 
Q 1825 2738 1638 2747 
L 1638 2863 
L 3000 2863 
L 3000 2747 
Q 2775 2738 2681 2666 
Q 2619 2616 2619 2506 
Q 2619 2444 2644 2378 
L 3294 734 
L 3897 2319 
Q 3959 2488 3959 2588 
Q 3959 2647 3898 2694 
Q 3838 2741 3659 2747 
L 3659 2863 
L 4563 2863 
L 4563 2747 
Q 4291 2706 4163 2378 
L 3206 -88 
L 3078 -88 
L 2363 1741 
L 1528 -88 
L 1413 -88 
L 494 2319 
Q 403 2547 315 2626 
Q 228 2706 41 2747 
L 41 2863 
z
" transform="scale(0.015625)"/>
       <path id="TimesNewRomanPSMT-2d" d="M 259 1672 
L 1875 1672 
L 1875 1200 
L 259 1200 
L 259 1672 
z
" transform="scale(0.015625)"/>
       <path id="TimesNewRomanPSMT-4d" d="M 2619 0 
L 981 3566 
L 981 734 
Q 981 344 1066 247 
Q 1181 116 1431 116 
L 1581 116 
L 1581 0 
L 106 0 
L 106 116 
L 256 116 
Q 525 116 638 278 
Q 706 378 706 734 
L 706 3503 
Q 706 3784 644 3909 
Q 600 4000 483 4061 
Q 366 4122 106 4122 
L 106 4238 
L 1306 4238 
L 2844 922 
L 4356 4238 
L 5556 4238 
L 5556 4122 
L 5409 4122 
Q 5138 4122 5025 3959 
Q 4956 3859 4956 3503 
L 4956 734 
Q 4956 344 5044 247 
Q 5159 116 5409 116 
L 5556 116 
L 5556 0 
L 3756 0 
L 3756 116 
L 3906 116 
Q 4178 116 4288 278 
Q 4356 378 4356 734 
L 4356 3566 
L 2722 0 
L 2619 0 
z
" transform="scale(0.015625)"/>
       <path id="TimesNewRomanPSMT-2194" d="M 6150 1688 
L 6150 1547 
Q 5856 1413 5572 1184 
Q 5288 956 4881 494 
L 4631 494 
Q 4847 1031 5238 1466 
L 1159 1466 
Q 1550 1031 1766 494 
L 1516 494 
Q 1109 956 825 1184 
Q 541 1413 247 1547 
L 247 1688 
Q 541 1825 825 2051 
Q 1109 2278 1516 2744 
L 1766 2744 
Q 1550 2206 1159 1772 
L 5238 1772 
Q 4847 2206 4631 2744 
L 4881 2744 
Q 5288 2278 5572 2051 
Q 5856 1825 6150 1688 
z
" transform="scale(0.015625)"/>
      </defs>
      <use xlink:href="#TimesNewRomanPSMT-54"/>
      <use xlink:href="#TimesNewRomanPSMT-77" x="54.083984"/>
      <use xlink:href="#TimesNewRomanPSMT-6f" x="126.300781"/>
      <use xlink:href="#TimesNewRomanPSMT-2d" x="176.300781"/>
      <use xlink:href="#TimesNewRomanPSMT-77" x="209.601562"/>
      <use xlink:href="#TimesNewRomanPSMT-61" x="281.818359"/>
      <use xlink:href="#TimesNewRomanPSMT-79" x="326.203125"/>
      <use xlink:href="#TimesNewRomanPSMT-20" x="376.203125"/>
      <use xlink:href="#TimesNewRomanPSMT-4d" x="401.203125"/>
      <use xlink:href="#TimesNewRomanPSMT-69" x="490.119141"/>
      <use xlink:href="#TimesNewRomanPSMT-67" x="517.902344"/>
      <use xlink:href="#TimesNewRomanPSMT-72" x="567.902344"/>
      <use xlink:href="#TimesNewRomanPSMT-61" x="601.203125"/>
      <use xlink:href="#TimesNewRomanPSMT-74" x="645.587891"/>
      <use xlink:href="#TimesNewRomanPSMT-69" x="673.371094"/>
      <use xlink:href="#TimesNewRomanPSMT-6f" x="701.154297"/>
      <use xlink:href="#TimesNewRomanPSMT-6e" x="751.154297"/>
      <use xlink:href="#TimesNewRomanPSMT-20" x="801.154297"/>
      <use xlink:href="#TimesNewRomanPSMT-28" x="826.154297"/>
      <use xlink:href="#TimesNewRomanPSMT-31" x="859.455078"/>
      <use xlink:href="#TimesNewRomanPSMT-20" x="909.455078"/>
      <use xlink:href="#TimesNewRomanPSMT-2194" x="934.455078"/>
      <use xlink:href="#TimesNewRomanPSMT-20" x="1034.455078"/>
      <use xlink:href="#TimesNewRomanPSMT-32" x="1059.455078"/>
      <use xlink:href="#TimesNewRomanPSMT-29" x="1109.455078"/>
     </g>
    </g>
    <g id="PathCollection_4">
     <g>
      <use xlink:href="#ma981610263" x="57.998924" y="45.576188" style="fill: #006400; stroke: #006400"/>
     </g>
    </g>
    <g id="text_13">
     <!-- One-way Migration (1 → 2) -->
     <g transform="translate(74.198924 47.938688) scale(0.09 -0.09)">
      <defs>
       <path id="TimesNewRomanPSMT-4f" d="M 2341 4334 
Q 3166 4334 3770 3707 
Q 4375 3081 4375 2144 
Q 4375 1178 3765 540 
Q 3156 -97 2291 -97 
Q 1416 -97 820 525 
Q 225 1147 225 2134 
Q 225 3144 913 3781 
Q 1509 4334 2341 4334 
z
M 2281 4106 
Q 1713 4106 1369 3684 
Q 941 3159 941 2147 
Q 941 1109 1384 550 
Q 1725 125 2284 125 
Q 2881 125 3270 590 
Q 3659 1056 3659 2059 
Q 3659 3147 3231 3681 
Q 2888 4106 2281 4106 
z
" transform="scale(0.015625)"/>
       <path id="TimesNewRomanPSMT-2192" d="M 4859 2738 
Q 5275 2284 5578 2048 
Q 5881 1813 6150 1697 
L 6150 1556 
Q 5841 1406 5550 1173 
Q 5259 941 4856 491 
L 4616 491 
Q 4909 1119 5231 1456 
L 247 1456 
L 247 1772 
L 5231 1772 
Q 4994 2075 4900 2222 
Q 4806 2369 4622 2738 
L 4859 2738 
z
" transform="scale(0.015625)"/>
      </defs>
      <use xlink:href="#TimesNewRomanPSMT-4f"/>
      <use xlink:href="#TimesNewRomanPSMT-6e" x="72.216797"/>
      <use xlink:href="#TimesNewRomanPSMT-65" x="122.216797"/>
      <use xlink:href="#TimesNewRomanPSMT-2d" x="166.601562"/>
      <use xlink:href="#TimesNewRomanPSMT-77" x="199.902344"/>
      <use xlink:href="#TimesNewRomanPSMT-61" x="272.119141"/>
      <use xlink:href="#TimesNewRomanPSMT-79" x="316.503906"/>
      <use xlink:href="#TimesNewRomanPSMT-20" x="366.503906"/>
      <use xlink:href="#TimesNewRomanPSMT-4d" x="391.503906"/>
      <use xlink:href="#TimesNewRomanPSMT-69" x="480.419922"/>
      <use xlink:href="#TimesNewRomanPSMT-67" x="508.203125"/>
      <use xlink:href="#TimesNewRomanPSMT-72" x="558.203125"/>
      <use xlink:href="#TimesNewRomanPSMT-61" x="591.503906"/>
      <use xlink:href="#TimesNewRomanPSMT-74" x="635.888672"/>
      <use xlink:href="#TimesNewRomanPSMT-69" x="663.671875"/>
      <use xlink:href="#TimesNewRomanPSMT-6f" x="691.455078"/>
      <use xlink:href="#TimesNewRomanPSMT-6e" x="741.455078"/>
      <use xlink:href="#TimesNewRomanPSMT-20" x="791.455078"/>
      <use xlink:href="#TimesNewRomanPSMT-28" x="816.455078"/>
      <use xlink:href="#TimesNewRomanPSMT-31" x="849.755859"/>
      <use xlink:href="#TimesNewRomanPSMT-20" x="899.755859"/>
      <use xlink:href="#TimesNewRomanPSMT-2192" x="924.755859"/>
      <use xlink:href="#TimesNewRomanPSMT-20" x="1024.755859"/>
      <use xlink:href="#TimesNewRomanPSMT-32" x="1049.755859"/>
      <use xlink:href="#TimesNewRomanPSMT-29" x="1099.755859"/>
     </g>
    </g>
    <g id="line2d_12">
     <path d="M 48.998924 57.530719 
L 57.998924 57.530719 
L 66.998924 57.530719 
" style="fill: none; stroke-dasharray: 5.55,2.4; stroke-dashoffset: 0; stroke: #000000; stroke-width: 1.5"/>
    </g>
    <g id="text_14">
     <!-- Theory -->
     <g transform="translate(74.198924 60.680719) scale(0.09 -0.09)">
      <defs>
       <path id="TimesNewRomanPSMT-68" d="M 1041 4444 
L 1041 2350 
Q 1388 2731 1591 2839 
Q 1794 2947 1997 2947 
Q 2241 2947 2416 2812 
Q 2591 2678 2675 2391 
Q 2734 2191 2734 1659 
L 2734 647 
Q 2734 375 2778 275 
Q 2809 200 2884 156 
Q 2959 113 3159 113 
L 3159 0 
L 1753 0 
L 1753 113 
L 1819 113 
Q 2019 113 2097 173 
Q 2175 234 2206 353 
Q 2216 403 2216 647 
L 2216 1659 
Q 2216 2128 2167 2275 
Q 2119 2422 2012 2495 
Q 1906 2569 1756 2569 
Q 1603 2569 1437 2487 
Q 1272 2406 1041 2159 
L 1041 647 
Q 1041 353 1073 281 
Q 1106 209 1195 161 
Q 1284 113 1503 113 
L 1503 0 
L 84 0 
L 84 113 
Q 275 113 384 172 
Q 447 203 484 290 
Q 522 378 522 647 
L 522 3238 
Q 522 3728 498 3840 
Q 475 3953 426 3993 
Q 378 4034 297 4034 
Q 231 4034 84 3984 
L 41 4094 
L 897 4444 
L 1041 4444 
z
" transform="scale(0.015625)"/>
      </defs>
      <use xlink:href="#TimesNewRomanPSMT-54"/>
      <use xlink:href="#TimesNewRomanPSMT-68" x="61.083984"/>
      <use xlink:href="#TimesNewRomanPSMT-65" x="111.083984"/>
      <use xlink:href="#TimesNewRomanPSMT-6f" x="155.46875"/>
      <use xlink:href="#TimesNewRomanPSMT-72" x="205.46875"/>
      <use xlink:href="#TimesNewRomanPSMT-79" x="238.769531"/>
     </g>
    </g>
   </g>
  </g>
  <g id="axes_2">
   <g id="patch_7">
    <path d="M 242.280759 174.4585 
L 401.059241 174.4585 
L 401.059241 19.836 
L 242.280759 19.836 
z
" style="fill: #ffffff"/>
   </g>
   <g id="matplotlib.axis_3">
    <g id="xtick_5">
     <g id="line2d_13">
      <g>
       <use xlink:href="#mb90c816b48" x="242.280759" y="174.4585" style="stroke: #000000; stroke-width: 0.8"/>
      </g>
     </g>
     <g id="text_15">
      <!-- 0 -->
      <g transform="translate(239.280759 189.791) scale(0.12 -0.12)">
       <use xlink:href="#TimesNewRomanPSMT-30"/>
      </g>
     </g>
    </g>
    <g id="xtick_6">
     <g id="line2d_14">
      <g>
       <use xlink:href="#mb90c816b48" x="286.385893" y="174.4585" style="stroke: #000000; stroke-width: 0.8"/>
      </g>
     </g>
     <g id="text_16">
      <!-- 5 -->
      <g transform="translate(283.385893 189.791) scale(0.12 -0.12)">
       <defs>
        <path id="TimesNewRomanPSMT-35" d="M 2778 4238 
L 2534 3706 
L 1259 3706 
L 981 3138 
Q 1809 3016 2294 2522 
Q 2709 2097 2709 1522 
Q 2709 1188 2573 903 
Q 2438 619 2231 419 
Q 2025 219 1772 97 
Q 1413 -75 1034 -75 
Q 653 -75 479 54 
Q 306 184 306 341 
Q 306 428 378 495 
Q 450 563 559 563 
Q 641 563 702 538 
Q 763 513 909 409 
Q 1144 247 1384 247 
Q 1750 247 2026 523 
Q 2303 800 2303 1197 
Q 2303 1581 2056 1914 
Q 1809 2247 1375 2428 
Q 1034 2569 447 2591 
L 1259 4238 
L 2778 4238 
z
" transform="scale(0.015625)"/>
       </defs>
       <use xlink:href="#TimesNewRomanPSMT-35"/>
      </g>
     </g>
    </g>
    <g id="xtick_7">
     <g id="line2d_15">
      <g>
       <use xlink:href="#mb90c816b48" x="330.491027" y="174.4585" style="stroke: #000000; stroke-width: 0.8"/>
      </g>
     </g>
     <g id="text_17">
      <!-- 10 -->
      <g transform="translate(324.491027 189.791) scale(0.12 -0.12)">
       <use xlink:href="#TimesNewRomanPSMT-31"/>
       <use xlink:href="#TimesNewRomanPSMT-30" x="50"/>
      </g>
     </g>
    </g>
    <g id="xtick_8">
     <g id="line2d_16">
      <g>
       <use xlink:href="#mb90c816b48" x="374.596161" y="174.4585" style="stroke: #000000; stroke-width: 0.8"/>
      </g>
     </g>
     <g id="text_18">
      <!-- 15 -->
      <g transform="translate(368.596161 189.791) scale(0.12 -0.12)">
       <use xlink:href="#TimesNewRomanPSMT-31"/>
       <use xlink:href="#TimesNewRomanPSMT-35" x="50"/>
      </g>
     </g>
    </g>
    <g id="text_19">
     <!-- time (units: $\gamma^{-1}$) -->
     <g transform="translate(280.45 207.157875) scale(0.12 -0.12)">
      <defs>
       <path id="TimesNewRomanPSMT-75" d="M 2709 2863 
L 2709 1128 
Q 2709 631 2732 520 
Q 2756 409 2807 365 
Q 2859 322 2928 322 
Q 3025 322 3147 375 
L 3191 266 
L 2334 -88 
L 2194 -88 
L 2194 519 
Q 1825 119 1631 15 
Q 1438 -88 1222 -88 
Q 981 -88 804 51 
Q 628 191 559 409 
Q 491 628 491 1028 
L 491 2306 
Q 491 2509 447 2587 
Q 403 2666 317 2708 
Q 231 2750 6 2747 
L 6 2863 
L 1009 2863 
L 1009 947 
Q 1009 547 1148 422 
Q 1288 297 1484 297 
Q 1619 297 1789 381 
Q 1959 466 2194 703 
L 2194 2325 
Q 2194 2569 2105 2655 
Q 2016 2741 1734 2747 
L 1734 2863 
L 2709 2863 
z
" transform="scale(0.015625)"/>
       <path id="TimesNewRomanPSMT-3a" d="M 903 2950 
Q 1047 2950 1148 2848 
Q 1250 2747 1250 2603 
Q 1250 2459 1148 2357 
Q 1047 2256 903 2256 
Q 759 2256 657 2357 
Q 556 2459 556 2603 
Q 556 2747 657 2848 
Q 759 2950 903 2950 
z
M 897 609 
Q 1044 609 1145 506 
Q 1247 403 1247 259 
Q 1247 116 1144 14 
Q 1041 -88 897 -88 
Q 753 -88 651 14 
Q 550 116 550 259 
Q 550 403 651 506 
Q 753 609 897 609 
z
" transform="scale(0.015625)"/>
       <path id="DejaVuSans-2212" d="M 678 2272 
L 4684 2272 
L 4684 1741 
L 678 1741 
L 678 2272 
z
" transform="scale(0.015625)"/>
       <path id="DejaVuSans-31" d="M 794 531 
L 1825 531 
L 1825 4091 
L 703 3866 
L 703 4441 
L 1819 4666 
L 2450 4666 
L 2450 531 
L 3481 531 
L 3481 0 
L 794 0 
L 794 531 
z
" transform="scale(0.015625)"/>
      </defs>
      <use xlink:href="#TimesNewRomanPSMT-74" transform="translate(0 0.684375)"/>
      <use xlink:href="#TimesNewRomanPSMT-69" transform="translate(27.783203 0.684375)"/>
      <use xlink:href="#TimesNewRomanPSMT-6d" transform="translate(55.566406 0.684375)"/>
      <use xlink:href="#TimesNewRomanPSMT-65" transform="translate(133.349609 0.684375)"/>
      <use xlink:href="#TimesNewRomanPSMT-20" transform="translate(177.734375 0.684375)"/>
      <use xlink:href="#TimesNewRomanPSMT-28" transform="translate(202.734375 0.684375)"/>
      <use xlink:href="#TimesNewRomanPSMT-75" transform="translate(236.035156 0.684375)"/>
      <use xlink:href="#TimesNewRomanPSMT-6e" transform="translate(286.035156 0.684375)"/>
      <use xlink:href="#TimesNewRomanPSMT-69" transform="translate(336.035156 0.684375)"/>
      <use xlink:href="#TimesNewRomanPSMT-74" transform="translate(363.818359 0.684375)"/>
      <use xlink:href="#TimesNewRomanPSMT-73" transform="translate(391.601562 0.684375)"/>
      <use xlink:href="#TimesNewRomanPSMT-3a" transform="translate(430.517578 0.684375)"/>
      <use xlink:href="#TimesNewRomanPSMT-20" transform="translate(458.300781 0.684375)"/>
      <use xlink:href="#DejaVuSans-Oblique-3b3" transform="translate(483.300781 0.684375)"/>
      <use xlink:href="#DejaVuSans-2212" transform="translate(546.946615 38.965625) scale(0.7)"/>
      <use xlink:href="#DejaVuSans-31" transform="translate(605.598958 38.965625) scale(0.7)"/>
      <use xlink:href="#TimesNewRomanPSMT-29" transform="translate(652.869466 0.684375)"/>
     </g>
    </g>
   </g>
   <g id="matplotlib.axis_4">
    <g id="ytick_5">
     <g id="line2d_17">
      <g>
       <use xlink:href="#m676a87d0f1" x="242.280759" y="174.4585" style="stroke: #000000; stroke-width: 0.8"/>
      </g>
     </g>
     <g id="text_20">
      <!-- $\mathdefault{10^{0}}$ -->
      <g transform="translate(218.360759 179.775063) scale(0.12 -0.12)">
       <use xlink:href="#TimesNewRomanPSMT-31" transform="translate(0 0.582813)"/>
       <use xlink:href="#TimesNewRomanPSMT-30" transform="translate(50 0.582813)"/>
       <use xlink:href="#TimesNewRomanPSMT-30" transform="translate(101.502813 60.695312) scale(0.7)"/>
      </g>
     </g>
    </g>
    <g id="ytick_6">
     <g id="line2d_18">
      <g>
       <use xlink:href="#m676a87d0f1" x="242.280759" y="133.225833" style="stroke: #000000; stroke-width: 0.8"/>
      </g>
     </g>
     <g id="text_21">
      <!-- $\mathdefault{10^{2}}$ -->
      <g transform="translate(218.360759 138.542396) scale(0.12 -0.12)">
       <use xlink:href="#TimesNewRomanPSMT-31" transform="translate(0 0.582813)"/>
       <use xlink:href="#TimesNewRomanPSMT-30" transform="translate(50 0.582813)"/>
       <use xlink:href="#TimesNewRomanPSMT-32" transform="translate(101.502813 60.695312) scale(0.7)"/>
      </g>
     </g>
    </g>
    <g id="ytick_7">
     <g id="line2d_19">
      <g>
       <use xlink:href="#m676a87d0f1" x="242.280759" y="91.993167" style="stroke: #000000; stroke-width: 0.8"/>
      </g>
     </g>
     <g id="text_22">
      <!-- $\mathdefault{10^{4}}$ -->
      <g transform="translate(218.360759 97.309729) scale(0.12 -0.12)">
       <use xlink:href="#TimesNewRomanPSMT-31" transform="translate(0 0.582813)"/>
       <use xlink:href="#TimesNewRomanPSMT-30" transform="translate(50 0.582813)"/>
       <use xlink:href="#TimesNewRomanPSMT-34" transform="translate(101.502813 60.695312) scale(0.7)"/>
      </g>
     </g>
    </g>
    <g id="ytick_8">
     <g id="line2d_20">
      <g>
       <use xlink:href="#m676a87d0f1" x="242.280759" y="50.7605" style="stroke: #000000; stroke-width: 0.8"/>
      </g>
     </g>
     <g id="text_23">
      <!-- $\mathdefault{10^{6}}$ -->
      <g transform="translate(218.360759 56.077063) scale(0.12 -0.12)">
       <use xlink:href="#TimesNewRomanPSMT-31" transform="translate(0 0.582813)"/>
       <use xlink:href="#TimesNewRomanPSMT-30" transform="translate(50 0.582813)"/>
       <use xlink:href="#TimesNewRomanPSMT-36" transform="translate(101.502813 60.695312) scale(0.7)"/>
      </g>
     </g>
    </g>
    <g id="text_24">
     <!-- infected number, $N$ -->
     <g transform="translate(211.793884 143.82725) rotate(-90) scale(0.12 -0.12)">
      <defs>
       <path id="TimesNewRomanPSMT-66" d="M 1319 2638 
L 1319 756 
Q 1319 356 1406 250 
Q 1522 113 1716 113 
L 1975 113 
L 1975 0 
L 266 0 
L 266 113 
L 394 113 
Q 519 113 622 175 
Q 725 238 764 344 
Q 803 450 803 756 
L 803 2638 
L 247 2638 
L 247 2863 
L 803 2863 
L 803 3050 
Q 803 3478 940 3775 
Q 1078 4072 1361 4255 
Q 1644 4438 1997 4438 
Q 2325 4438 2600 4225 
Q 2781 4084 2781 3909 
Q 2781 3816 2700 3733 
Q 2619 3650 2525 3650 
Q 2453 3650 2373 3701 
Q 2294 3753 2178 3923 
Q 2063 4094 1966 4153 
Q 1869 4213 1750 4213 
Q 1606 4213 1506 4136 
Q 1406 4059 1362 3898 
Q 1319 3738 1319 3069 
L 1319 2863 
L 2056 2863 
L 2056 2638 
L 1319 2638 
z
" transform="scale(0.015625)"/>
       <path id="TimesNewRomanPSMT-64" d="M 2222 322 
Q 2013 103 1813 7 
Q 1613 -88 1381 -88 
Q 913 -88 563 304 
Q 213 697 213 1313 
Q 213 1928 600 2439 
Q 988 2950 1597 2950 
Q 1975 2950 2222 2709 
L 2222 3238 
Q 2222 3728 2198 3840 
Q 2175 3953 2125 3993 
Q 2075 4034 2000 4034 
Q 1919 4034 1784 3984 
L 1744 4094 
L 2597 4444 
L 2738 4444 
L 2738 1134 
Q 2738 631 2761 520 
Q 2784 409 2836 365 
Q 2888 322 2956 322 
Q 3041 322 3181 375 
L 3216 266 
L 2366 -88 
L 2222 -88 
L 2222 322 
z
M 2222 541 
L 2222 2016 
Q 2203 2228 2109 2403 
Q 2016 2578 1861 2667 
Q 1706 2756 1559 2756 
Q 1284 2756 1069 2509 
Q 784 2184 784 1559 
Q 784 928 1059 592 
Q 1334 256 1672 256 
Q 1956 256 2222 541 
z
" transform="scale(0.015625)"/>
       <path id="DejaVuSans-Oblique-4e" d="M 1081 4666 
L 1931 4666 
L 3219 666 
L 4000 4666 
L 4616 4666 
L 3706 0 
L 2853 0 
L 1569 4025 
L 788 0 
L 172 0 
L 1081 4666 
z
" transform="scale(0.015625)"/>
      </defs>
      <use xlink:href="#TimesNewRomanPSMT-69" transform="translate(0 0.09375)"/>
      <use xlink:href="#TimesNewRomanPSMT-6e" transform="translate(27.783203 0.09375)"/>
      <use xlink:href="#TimesNewRomanPSMT-66" transform="translate(77.783203 0.09375)"/>
      <use xlink:href="#TimesNewRomanPSMT-65" transform="translate(111.083984 0.09375)"/>
      <use xlink:href="#TimesNewRomanPSMT-63" transform="translate(155.46875 0.09375)"/>
      <use xlink:href="#TimesNewRomanPSMT-74" transform="translate(199.853516 0.09375)"/>
      <use xlink:href="#TimesNewRomanPSMT-65" transform="translate(227.636719 0.09375)"/>
      <use xlink:href="#TimesNewRomanPSMT-64" transform="translate(272.021484 0.09375)"/>
      <use xlink:href="#TimesNewRomanPSMT-20" transform="translate(322.021484 0.09375)"/>
      <use xlink:href="#TimesNewRomanPSMT-6e" transform="translate(347.021484 0.09375)"/>
      <use xlink:href="#TimesNewRomanPSMT-75" transform="translate(397.021484 0.09375)"/>
      <use xlink:href="#TimesNewRomanPSMT-6d" transform="translate(447.021484 0.09375)"/>
      <use xlink:href="#TimesNewRomanPSMT-62" transform="translate(524.804688 0.09375)"/>
      <use xlink:href="#TimesNewRomanPSMT-65" transform="translate(574.804688 0.09375)"/>
      <use xlink:href="#TimesNewRomanPSMT-72" transform="translate(619.189453 0.09375)"/>
      <use xlink:href="#TimesNewRomanPSMT-2c" transform="translate(652.490234 0.09375)"/>
      <use xlink:href="#TimesNewRomanPSMT-20" transform="translate(677.490234 0.09375)"/>
      <use xlink:href="#DejaVuSans-Oblique-4e" transform="translate(702.490234 0.09375)"/>
     </g>
    </g>
   </g>
   <g id="line2d_21">
    <path d="M 242.280759 133.225833 
L 242.72181 132.83561 
L 243.162862 131.79672 
L 243.603913 131.258379 
L 244.044964 129.973212 
L 244.486016 129.271841 
L 245.368118 127.115238 
L 246.250221 124.957377 
L 247.132324 123.406509 
L 247.573375 123.172325 
L 248.896529 120.877178 
L 249.33758 120.462846 
L 250.219683 118.893766 
L 251.542837 116.953291 
L 251.983889 116.461106 
L 252.42494 115.530024 
L 252.865991 115.168863 
L 253.748094 113.979212 
L 254.630197 112.664586 
L 256.394402 110.368122 
L 257.717556 108.363373 
L 259.481761 105.887482 
L 263.010172 100.919958 
L 264.333326 98.921229 
L 268.302788 93.282207 
L 272.713301 86.659504 
L 286.826944 66.63452 
L 289.914304 62.574761 
L 293.442714 58.245431 
L 296.530074 54.890662 
L 298.73533 52.822408 
L 300.499536 51.419547 
L 302.263741 50.253707 
L 304.027946 49.321324 
L 305.792152 48.644351 
L 307.556357 48.190919 
L 309.320563 47.970809 
L 311.084768 47.983158 
L 313.290025 48.255831 
L 315.495281 48.795513 
L 317.700538 49.524667 
L 320.787897 50.850225 
L 324.316308 52.662485 
L 328.28577 54.960464 
L 334.460489 58.880715 
L 350.779388 70.070036 
L 372.390904 84.958621 
L 374.155109 86.053605 
L 377.242469 88.279465 
L 383.858239 92.705711 
L 384.740341 93.35192 
L 388.268752 95.521766 
L 389.591906 96.347676 
L 390.474009 96.925563 
L 391.356111 97.642613 
L 391.797163 97.879684 
L 392.679265 98.502657 
L 395.766625 100.503401 
L 396.648728 100.915119 
L 397.971882 101.724919 
L 400.177138 103.133695 
L 401.059241 103.819064 
L 401.500292 104.144649 
L 401.500292 104.144649 
" clip-path="url(#pdb198c90da)" style="fill: none; stroke: #0000ff; stroke-width: 2; stroke-linecap: square"/>
   </g>
   <g id="line2d_22">
    <path d="M 244.907713 217 
L 245.368118 215.786258 
L 246.250221 213.628397 
L 246.691272 212.916448 
L 247.132324 192.036059 
L 247.573375 211.843345 
L 248.455478 209.984544 
L 249.33758 185.888873 
L 249.778632 187.459284 
L 250.219683 192.444635 
L 250.660735 185.816307 
L 251.542837 205.624311 
L 251.983889 196.565076 
L 252.42494 204.201045 
L 252.865991 193.710108 
L 253.307043 188.728133 
L 253.748094 202.650232 
L 254.189145 190.711405 
L 254.630197 182.769481 
L 255.512299 170.543229 
L 255.953351 168.954583 
L 256.394402 169.13075 
L 256.835453 170.1574 
L 257.276505 167.686472 
L 257.717556 165.941181 
L 258.158607 165.958772 
L 258.599659 170.66531 
L 259.04071 169.716539 
L 259.481761 166.00204 
L 259.922813 167.327784 
L 260.363864 167.614484 
L 260.804915 160.492853 
L 261.245967 159.69918 
L 261.687018 165.296599 
L 262.128069 164.936621 
L 262.569121 162.825328 
L 263.010172 163.180711 
L 263.451223 162.902144 
L 263.892275 166.055828 
L 264.333326 163.951804 
L 265.215429 156.582871 
L 265.65648 154.021008 
L 266.097531 152.397823 
L 266.538583 152.196141 
L 267.420685 149.426633 
L 267.861737 149.757769 
L 268.302788 151.339507 
L 269.184891 146.530262 
L 269.625942 145.391888 
L 270.066993 145.121755 
L 270.508045 145.324256 
L 270.949096 143.944592 
L 271.390147 143.099214 
L 271.831199 141.247773 
L 272.27225 140.398838 
L 272.713301 141.079303 
L 273.595404 139.878678 
L 274.036455 140.237983 
L 274.918558 139.409616 
L 275.359609 138.499176 
L 275.800661 138.49222 
L 276.241712 137.642272 
L 276.682763 136.176971 
L 278.005917 133.383737 
L 278.88802 132.338934 
L 279.329072 131.322282 
L 280.211174 130.493381 
L 280.652226 129.381288 
L 281.534328 127.785279 
L 282.416431 125.986485 
L 282.857482 125.295262 
L 283.739585 123.282163 
L 284.180636 122.833542 
L 286.385893 118.926996 
L 287.267996 117.719041 
L 288.150098 116.224328 
L 289.473252 113.717782 
L 289.914304 113.134043 
L 290.355355 112.77098 
L 291.678509 110.478878 
L 293.001663 108.50085 
L 293.883766 107.230303 
L 296.530074 102.724992 
L 297.853228 100.60807 
L 311.525819 79.669473 
L 319.464743 68.413652 
L 324.316308 61.912092 
L 326.962616 58.647835 
L 330.049975 55.199726 
L 332.255232 53.041321 
L 334.460489 51.202194 
L 336.224694 49.997485 
L 337.9889 49.038386 
L 339.753105 48.336255 
L 341.51731 47.880447 
L 343.281516 47.666546 
L 345.045721 47.66318 
L 346.809926 47.860694 
L 349.015183 48.346562 
L 351.22044 49.044321 
L 353.866748 50.127498 
L 356.954107 51.626294 
L 360.041466 53.319633 
L 362.687774 54.900608 
L 369.744596 59.423334 
L 375.919315 63.566474 
L 392.679265 75.320999 
L 395.766625 77.554653 
L 397.971882 79.080405 
L 401.500292 81.545359 
L 401.500292 81.545359 
" clip-path="url(#pdb198c90da)" style="fill: none; stroke: #008000; stroke-width: 2; stroke-linecap: square"/>
   </g>
   <g id="line2d_23">
    <path d="M 310.202665 174.4585 
L 310.202665 19.836 
" clip-path="url(#pdb198c90da)" style="fill: none; stroke-dasharray: 7.4,3.2; stroke-dashoffset: 0; stroke: #0000ff; stroke-width: 2"/>
   </g>
   <g id="line2d_24">
    <path d="M 344.163618 174.4585 
L 344.163618 19.836 
" clip-path="url(#pdb198c90da)" style="fill: none; stroke-dasharray: 7.4,3.2; stroke-dashoffset: 0; stroke: #008000; stroke-width: 2"/>
   </g>
   <g id="patch_8">
    <path d="M 242.280759 174.4585 
L 242.280759 19.836 
" style="fill: none; stroke: #000000; stroke-width: 0.8; stroke-linejoin: miter; stroke-linecap: square"/>
   </g>
   <g id="patch_9">
    <path d="M 401.059241 174.4585 
L 401.059241 19.836 
" style="fill: none; stroke: #000000; stroke-width: 0.8; stroke-linejoin: miter; stroke-linecap: square"/>
   </g>
   <g id="patch_10">
    <path d="M 242.280759 174.4585 
L 401.059241 174.4585 
" style="fill: none; stroke: #000000; stroke-width: 0.8; stroke-linejoin: miter; stroke-linecap: square"/>
   </g>
   <g id="patch_11">
    <path d="M 242.280759 19.836 
L 401.059241 19.836 
" style="fill: none; stroke: #000000; stroke-width: 0.8; stroke-linejoin: miter; stroke-linecap: square"/>
   </g>
   <g id="text_25">
    <!-- (b) -->
    <g transform="translate(239.105189 9.538) scale(0.12 -0.12)">
     <use xlink:href="#TimesNewRomanPSMT-28"/>
     <use xlink:href="#TimesNewRomanPSMT-62" x="33.300781"/>
     <use xlink:href="#TimesNewRomanPSMT-29" x="83.300781"/>
    </g>
   </g>
   <g id="patch_12">
    <path d="M 341.043248 40.991566 
Q 327.182631 40.991566 313.322014 40.991566 
" style="fill: none; stroke: #000000; stroke-linecap: round"/>
    <path d="M 336.243248 38.591566 
L 341.043248 40.991566 
L 336.243248 43.391566 
" style="fill: none; stroke: #000000; stroke-linecap: round"/>
    <path d="M 318.122014 43.391566 
L 313.322014 40.991566 
L 318.122014 38.591566 
" style="fill: none; stroke: #000000; stroke-linecap: round"/>
   </g>
   <g id="text_26">
    <!-- $\Delta T$ -->
    <g transform="translate(319.383142 36.417858) scale(0.12 -0.12)">
     <defs>
      <path id="DejaVuSans-394" d="M 2188 4044 
L 906 525 
L 3472 525 
L 2188 4044 
z
M 50 0 
L 1831 4666 
L 2547 4666 
L 4325 0 
L 50 0 
z
" transform="scale(0.015625)"/>
      <path id="DejaVuSans-Oblique-54" d="M 378 4666 
L 4325 4666 
L 4225 4134 
L 2559 4134 
L 1759 0 
L 1125 0 
L 1925 4134 
L 275 4134 
L 378 4666 
z
" transform="scale(0.015625)"/>
     </defs>
     <use xlink:href="#DejaVuSans-394" transform="translate(0 0.09375)"/>
     <use xlink:href="#DejaVuSans-Oblique-54" transform="translate(68.408203 0.09375)"/>
    </g>
   </g>
   <g id="text_27">
    <!-- $T_1$ -->
    <g transform="translate(303.662665 188.868699) scale(0.12 -0.12)">
     <use xlink:href="#DejaVuSans-Oblique-54" transform="translate(0 0.09375)"/>
     <use xlink:href="#DejaVuSans-31" transform="translate(61.083984 -16.3125) scale(0.7)"/>
    </g>
   </g>
   <g id="text_28">
    <!-- $T_2$ -->
    <g transform="translate(337.623618 188.868699) scale(0.12 -0.12)">
     <defs>
      <path id="DejaVuSans-32" d="M 1228 531 
L 3431 531 
L 3431 0 
L 469 0 
L 469 531 
Q 828 903 1448 1529 
Q 2069 2156 2228 2338 
Q 2531 2678 2651 2914 
Q 2772 3150 2772 3378 
Q 2772 3750 2511 3984 
Q 2250 4219 1831 4219 
Q 1534 4219 1204 4116 
Q 875 4013 500 3803 
L 500 4441 
Q 881 4594 1212 4672 
Q 1544 4750 1819 4750 
Q 2544 4750 2975 4387 
Q 3406 4025 3406 3419 
Q 3406 3131 3298 2873 
Q 3191 2616 2906 2266 
Q 2828 2175 2409 1742 
Q 1991 1309 1228 531 
z
" transform="scale(0.015625)"/>
     </defs>
     <use xlink:href="#DejaVuSans-Oblique-54" transform="translate(0 0.09375)"/>
     <use xlink:href="#DejaVuSans-32" transform="translate(61.083984 -16.3125) scale(0.7)"/>
    </g>
   </g>
   <g id="axes_3">
    <g id="patch_13">
     <path d="M 250.219683 169.819825 
L 377.242469 169.819825 
L 377.242469 100.2397 
L 250.219683 100.2397 
z
" style="fill: #ffffff; opacity: 0.9"/>
    </g>
    <g id="matplotlib.axis_5"/>
    <g id="matplotlib.axis_6"/>
    <g id="line2d_25">
     <path d="M 255.993446 166.657092 
L 259.807944 166.229312 
L 262.928897 165.665303 
L 265.587487 164.970289 
L 268.014895 164.111177 
L 270.211121 163.106388 
L 272.291756 161.918444 
L 274.372391 160.466769 
L 276.337436 158.82496 
L 278.30248 156.8961 
L 280.267525 154.661835 
L 282.34816 151.95104 
L 284.544386 148.703086 
L 286.856203 144.872503 
L 289.399202 140.222626 
L 292.520155 134.032833 
L 301.536241 115.809939 
L 303.732467 112.035146 
L 305.581921 109.275697 
L 307.200193 107.23946 
L 308.702874 105.705451 
L 309.974373 104.698279 
L 311.245873 103.972642 
L 312.401781 103.565873 
L 313.55769 103.404912 
L 314.598007 103.471822 
L 315.753916 103.780676 
L 316.909824 104.332843 
L 318.181324 105.213549 
L 319.452823 106.368648 
L 320.839913 107.922972 
L 322.458185 110.091548 
L 324.307639 112.980923 
L 326.388274 116.661497 
L 329.046864 121.841509 
L 334.364043 132.846223 
L 338.06295 140.222626 
L 340.83713 145.273572 
L 343.264538 149.241919 
L 345.460764 152.427713 
L 347.5414 155.07891 
L 349.622035 157.376848 
L 351.70267 159.336671 
L 353.783306 160.981981 
L 355.863941 162.342093 
L 358.060167 163.504323 
L 360.371984 164.466986 
L 362.799392 165.238246 
L 365.573572 165.879764 
L 368.694525 166.370045 
L 371.468706 166.657092 
L 371.468706 166.657092 
" clip-path="url(#pc0f467b529)" style="fill: none; stroke: #0000ff; stroke-width: 2; stroke-linecap: square"/>
    </g>
    <g id="line2d_26">
     <path d="M 255.993446 165.334107 
L 259.114399 164.558268 
L 262.00417 163.610849 
L 264.66276 162.506591 
L 267.205759 161.209898 
L 269.633166 159.727324 
L 272.060574 157.98507 
L 274.487982 155.968386 
L 277.030981 153.553519 
L 279.57398 150.832432 
L 282.34816 147.534636 
L 285.469113 143.467005 
L 289.399202 137.955064 
L 297.952925 125.832591 
L 300.727105 122.3546 
L 303.038922 119.800566 
L 305.003967 117.935912 
L 306.85342 116.477061 
L 308.587283 115.396627 
L 310.205555 114.656472 
L 311.708236 114.211604 
L 313.210917 114.006449 
L 314.598007 114.032316 
L 316.100688 114.293159 
L 317.603369 114.792601 
L 319.10605 115.523855 
L 320.724322 116.559231 
L 322.458185 117.935912 
L 324.42323 119.800566 
L 326.619456 122.218689 
L 329.162454 125.37748 
L 332.283407 129.629733 
L 338.872086 139.114437 
L 343.033356 144.860077 
L 346.154309 148.809462 
L 348.92849 151.981887 
L 351.587079 154.689614 
L 354.130078 156.963598 
L 356.557486 158.848186 
L 358.984894 160.464563 
L 361.527893 161.889463 
L 364.070891 163.0648 
L 366.845072 164.09594 
L 369.734843 164.931807 
L 371.468706 165.334107 
L 371.468706 165.334107 
" clip-path="url(#pc0f467b529)" style="fill: none; stroke: #008000; stroke-width: 2; stroke-linecap: square"/>
    </g>
    <g id="patch_14">
     <path d="M 250.219683 169.819825 
L 250.219683 100.2397 
" style="fill: none; stroke: #000000; stroke-width: 0.8; stroke-linejoin: miter; stroke-linecap: square"/>
    </g>
    <g id="patch_15">
     <path d="M 377.242469 169.819825 
L 377.242469 100.2397 
" style="fill: none; stroke: #000000; stroke-width: 0.8; stroke-linejoin: miter; stroke-linecap: square"/>
    </g>
    <g id="patch_16">
     <path d="M 250.219683 169.819825 
L 377.242469 169.819825 
" style="fill: none; stroke: #000000; stroke-width: 0.8; stroke-linejoin: miter; stroke-linecap: square"/>
    </g>
    <g id="patch_17">
     <path d="M 250.219683 100.2397 
L 377.242469 100.2397 
" style="fill: none; stroke: #000000; stroke-width: 0.8; stroke-linejoin: miter; stroke-linecap: square"/>
    </g>
    <g id="text_29">
     <!-- $x$ -->
     <g transform="translate(310.731076 168.743163) scale(0.1 -0.1)">
      <defs>
       <path id="DejaVuSans-Oblique-78" d="M 3841 3500 
L 2234 1784 
L 3219 0 
L 2559 0 
L 1819 1388 
L 531 0 
L -166 0 
L 1556 1844 
L 641 3500 
L 1300 3500 
L 1972 2234 
L 3144 3500 
L 3841 3500 
z
" transform="scale(0.015625)"/>
      </defs>
      <use xlink:href="#DejaVuSans-Oblique-78" transform="translate(0 0.3125)"/>
     </g>
    </g>
    <g id="text_30">
     <!-- density, $n$ -->
     <g transform="translate(258.970822 155.179763) rotate(-90) scale(0.1 -0.1)">
      <defs>
       <path id="DejaVuSans-Oblique-6e" d="M 3566 2113 
L 3156 0 
L 2578 0 
L 2988 2091 
Q 3016 2238 3031 2350 
Q 3047 2463 3047 2528 
Q 3047 2791 2881 2937 
Q 2716 3084 2419 3084 
Q 1956 3084 1622 2776 
Q 1288 2469 1184 1941 
L 800 0 
L 225 0 
L 903 3500 
L 1478 3500 
L 1363 2950 
Q 1603 3253 1940 3418 
Q 2278 3584 2650 3584 
Q 3113 3584 3367 3334 
Q 3622 3084 3622 2631 
Q 3622 2519 3608 2391 
Q 3594 2263 3566 2113 
z
" transform="scale(0.015625)"/>
      </defs>
      <use xlink:href="#TimesNewRomanPSMT-64" transform="translate(0 0.5625)"/>
      <use xlink:href="#TimesNewRomanPSMT-65" transform="translate(50 0.5625)"/>
      <use xlink:href="#TimesNewRomanPSMT-6e" transform="translate(94.384766 0.5625)"/>
      <use xlink:href="#TimesNewRomanPSMT-73" transform="translate(144.384766 0.5625)"/>
      <use xlink:href="#TimesNewRomanPSMT-69" transform="translate(183.300781 0.5625)"/>
      <use xlink:href="#TimesNewRomanPSMT-74" transform="translate(211.083984 0.5625)"/>
      <use xlink:href="#TimesNewRomanPSMT-79" transform="translate(238.867188 0.5625)"/>
      <use xlink:href="#TimesNewRomanPSMT-2c" transform="translate(288.867188 0.5625)"/>
      <use xlink:href="#TimesNewRomanPSMT-20" transform="translate(313.867188 0.5625)"/>
      <use xlink:href="#DejaVuSans-Oblique-6e" transform="translate(338.867188 0.5625)"/>
     </g>
    </g>
    <g id="legend_2">
     <g id="line2d_27">
      <path d="M 290.211076 146.668575 
L 294.211076 146.668575 
L 298.211076 146.668575 
" style="fill: none; stroke: #0000ff; stroke-width: 2; stroke-linecap: square"/>
     </g>
     <g id="text_31">
      <!-- $n_1(x,T_1)$ -->
      <g transform="translate(304.611076 149.468575) scale(0.08 -0.08)">
       <defs>
        <path id="DejaVuSans-28" d="M 1984 4856 
Q 1566 4138 1362 3434 
Q 1159 2731 1159 2009 
Q 1159 1288 1364 580 
Q 1569 -128 1984 -844 
L 1484 -844 
Q 1016 -109 783 600 
Q 550 1309 550 2009 
Q 550 2706 781 3412 
Q 1013 4119 1484 4856 
L 1984 4856 
z
" transform="scale(0.015625)"/>
        <path id="DejaVuSans-2c" d="M 750 794 
L 1409 794 
L 1409 256 
L 897 -744 
L 494 -744 
L 750 256 
L 750 794 
z
" transform="scale(0.015625)"/>
        <path id="DejaVuSans-29" d="M 513 4856 
L 1013 4856 
Q 1481 4119 1714 3412 
Q 1947 2706 1947 2009 
Q 1947 1309 1714 600 
Q 1481 -109 1013 -844 
L 513 -844 
Q 928 -128 1133 580 
Q 1338 1288 1338 2009 
Q 1338 2731 1133 3434 
Q 928 4138 513 4856 
z
" transform="scale(0.015625)"/>
       </defs>
       <use xlink:href="#DejaVuSans-Oblique-6e" transform="translate(0 0.125)"/>
       <use xlink:href="#DejaVuSans-31" transform="translate(63.378906 -16.28125) scale(0.7)"/>
       <use xlink:href="#DejaVuSans-28" transform="translate(110.649414 0.125)"/>
       <use xlink:href="#DejaVuSans-Oblique-78" transform="translate(149.663086 0.125)"/>
       <use xlink:href="#DejaVuSans-2c" transform="translate(208.842773 0.125)"/>
       <use xlink:href="#DejaVuSans-Oblique-54" transform="translate(260.112305 0.125)"/>
       <use xlink:href="#DejaVuSans-31" transform="translate(321.196289 -16.28125) scale(0.7)"/>
       <use xlink:href="#DejaVuSans-29" transform="translate(368.466797 0.125)"/>
      </g>
     </g>
     <g id="line2d_28">
      <path d="M 290.211076 158.108575 
L 294.211076 158.108575 
L 298.211076 158.108575 
" style="fill: none; stroke: #008000; stroke-width: 2; stroke-linecap: square"/>
     </g>
     <g id="text_32">
      <!-- $n_2(x,T_2)$ -->
      <g transform="translate(304.611076 160.908575) scale(0.08 -0.08)">
       <use xlink:href="#DejaVuSans-Oblique-6e" transform="translate(0 0.125)"/>
       <use xlink:href="#DejaVuSans-32" transform="translate(63.378906 -16.28125) scale(0.7)"/>
       <use xlink:href="#DejaVuSans-28" transform="translate(110.649414 0.125)"/>
       <use xlink:href="#DejaVuSans-Oblique-78" transform="translate(149.663086 0.125)"/>
       <use xlink:href="#DejaVuSans-2c" transform="translate(208.842773 0.125)"/>
       <use xlink:href="#DejaVuSans-Oblique-54" transform="translate(260.112305 0.125)"/>
       <use xlink:href="#DejaVuSans-32" transform="translate(321.196289 -16.28125) scale(0.7)"/>
       <use xlink:href="#DejaVuSans-29" transform="translate(368.466797 0.125)"/>
      </g>
     </g>
    </g>
   </g>
   <g id="legend_3">
    <g id="line2d_29">
     <path d="M 250.380759 31.086 
L 259.380759 31.086 
L 268.380759 31.086 
" style="fill: none; stroke: #0000ff; stroke-width: 2; stroke-linecap: square"/>
    </g>
    <g id="text_33">
     <!-- deme 1 -->
     <g transform="translate(275.580759 34.236) scale(0.09 -0.09)">
      <use xlink:href="#TimesNewRomanPSMT-64"/>
      <use xlink:href="#TimesNewRomanPSMT-65" x="50"/>
      <use xlink:href="#TimesNewRomanPSMT-6d" x="94.384766"/>
      <use xlink:href="#TimesNewRomanPSMT-65" x="172.167969"/>
      <use xlink:href="#TimesNewRomanPSMT-20" x="216.552734"/>
      <use xlink:href="#TimesNewRomanPSMT-31" x="241.552734"/>
     </g>
    </g>
    <g id="line2d_30">
     <path d="M 250.380759 43.811156 
L 259.380759 43.811156 
L 268.380759 43.811156 
" style="fill: none; stroke: #008000; stroke-width: 2; stroke-linecap: square"/>
    </g>
    <g id="text_34">
     <!-- deme 2 -->
     <g transform="translate(275.580759 46.961156) scale(0.09 -0.09)">
      <use xlink:href="#TimesNewRomanPSMT-64"/>
      <use xlink:href="#TimesNewRomanPSMT-65" x="50"/>
      <use xlink:href="#TimesNewRomanPSMT-6d" x="94.384766"/>
      <use xlink:href="#TimesNewRomanPSMT-65" x="172.167969"/>
      <use xlink:href="#TimesNewRomanPSMT-20" x="216.552734"/>
      <use xlink:href="#TimesNewRomanPSMT-32" x="241.552734"/>
     </g>
    </g>
   </g>
  </g>
  <g id="axes_4">
   <g id="patch_18">
    <path d="M 447.101518 174.4585 
L 605.88 174.4585 
L 605.88 19.836 
L 447.101518 19.836 
z
" style="fill: #ffffff"/>
   </g>
   <g id="PathCollection_5">
    <defs>
     <path id="m13383293e8" d="M 0 5 
C 1.326016 5 2.597899 4.473168 3.535534 3.535534 
C 4.473168 2.597899 5 1.326016 5 0 
C 5 -1.326016 4.473168 -2.597899 3.535534 -3.535534 
C 2.597899 -4.473168 1.326016 -5 0 -5 
C -1.326016 -5 -2.597899 -4.473168 -3.535534 -3.535534 
C -4.473168 -2.597899 -5 -1.326016 -5 0 
C -5 1.326016 -4.473168 2.597899 -3.535534 3.535534 
C -2.597899 4.473168 -1.326016 5 0 5 
z
" style="stroke: #000000"/>
    </defs>
    <g clip-path="url(#pe4a605943d)">
     <use xlink:href="#m13383293e8" x="590.590954" y="155.232182" style="fill: #000004; stroke: #000000"/>
    </g>
   </g>
   <g id="PathCollection_6">
    <defs>
     <path id="m12599dea03" d="M 0 5 
C 1.326016 5 2.597899 4.473168 3.535534 3.535534 
C 4.473168 2.597899 5 1.326016 5 0 
C 5 -1.326016 4.473168 -2.597899 3.535534 -3.535534 
C 2.597899 -4.473168 1.326016 -5 0 -5 
C -1.326016 -5 -2.597899 -4.473168 -3.535534 -3.535534 
C -4.473168 -2.597899 -5 -1.326016 -5 0 
C -5 1.326016 -4.473168 2.597899 -3.535534 3.535534 
C -2.597899 4.473168 -1.326016 5 0 5 
z
" style="stroke: #000000"/>
    </defs>
    <g clip-path="url(#pe4a605943d)">
     <use xlink:href="#m12599dea03" x="596.900907" y="144.870872" style="fill: #140b34; stroke: #000000"/>
    </g>
   </g>
   <g id="PathCollection_7">
    <defs>
     <path id="mf773989d28" d="M 0 5 
C 1.326016 5 2.597899 4.473168 3.535534 3.535534 
C 4.473168 2.597899 5 1.326016 5 0 
C 5 -1.326016 4.473168 -2.597899 3.535534 -3.535534 
C 2.597899 -4.473168 1.326016 -5 0 -5 
C -1.326016 -5 -2.597899 -4.473168 -3.535534 -3.535534 
C -4.473168 -2.597899 -5 -1.326016 -5 0 
C -5 1.326016 -4.473168 2.597899 -3.535534 3.535534 
C -2.597899 4.473168 -1.326016 5 0 5 
z
" style="stroke: #000000"/>
    </defs>
    <g clip-path="url(#pe4a605943d)">
     <use xlink:href="#mf773989d28" x="590.784678" y="145.44428" style="fill: #390963; stroke: #000000"/>
    </g>
   </g>
   <g id="PathCollection_8">
    <defs>
     <path id="m7bfeeefaca" d="M 0 5 
C 1.326016 5 2.597899 4.473168 3.535534 3.535534 
C 4.473168 2.597899 5 1.326016 5 0 
C 5 -1.326016 4.473168 -2.597899 3.535534 -3.535534 
C 2.597899 -4.473168 1.326016 -5 0 -5 
C -1.326016 -5 -2.597899 -4.473168 -3.535534 -3.535534 
C -4.473168 -2.597899 -5 -1.326016 -5 0 
C -5 1.326016 -4.473168 2.597899 -3.535534 3.535534 
C -2.597899 4.473168 -1.326016 5 0 5 
z
" style="stroke: #000000"/>
    </defs>
    <g clip-path="url(#pe4a605943d)">
     <use xlink:href="#m7bfeeefaca" x="588.682907" y="141.601553" style="fill: #5f136e; stroke: #000000"/>
    </g>
   </g>
   <g id="PathCollection_9">
    <defs>
     <path id="m6efaaa21ff" d="M 0 5 
C 1.326016 5 2.597899 4.473168 3.535534 3.535534 
C 4.473168 2.597899 5 1.326016 5 0 
C 5 -1.326016 4.473168 -2.597899 3.535534 -3.535534 
C 2.597899 -4.473168 1.326016 -5 0 -5 
C -1.326016 -5 -2.597899 -4.473168 -3.535534 -3.535534 
C -4.473168 -2.597899 -5 -1.326016 -5 0 
C -5 1.326016 -4.473168 2.597899 -3.535534 3.535534 
C -2.597899 4.473168 -1.326016 5 0 5 
z
" style="stroke: #000000"/>
    </defs>
    <g clip-path="url(#pe4a605943d)">
     <use xlink:href="#m6efaaa21ff" x="568.047487" y="108.615386" style="fill: #85216b; stroke: #000000"/>
    </g>
   </g>
   <g id="PathCollection_10">
    <defs>
     <path id="m7413f11953" d="M 0 5 
C 1.326016 5 2.597899 4.473168 3.535534 3.535534 
C 4.473168 2.597899 5 1.326016 5 0 
C 5 -1.326016 4.473168 -2.597899 3.535534 -3.535534 
C 2.597899 -4.473168 1.326016 -5 0 -5 
C -1.326016 -5 -2.597899 -4.473168 -3.535534 -3.535534 
C -4.473168 -2.597899 -5 -1.326016 -5 0 
C -5 1.326016 -4.473168 2.597899 -3.535534 3.535534 
C -2.597899 4.473168 -1.326016 5 0 5 
z
" style="stroke: #000000"/>
    </defs>
    <g clip-path="url(#pe4a605943d)">
     <use xlink:href="#m7413f11953" x="538.682524" y="91.366313" style="fill: #a92e5e; stroke: #000000"/>
    </g>
   </g>
   <g id="PathCollection_11">
    <defs>
     <path id="med68ced4b4" d="M 0 5 
C 1.326016 5 2.597899 4.473168 3.535534 3.535534 
C 4.473168 2.597899 5 1.326016 5 0 
C 5 -1.326016 4.473168 -2.597899 3.535534 -3.535534 
C 2.597899 -4.473168 1.326016 -5 0 -5 
C -1.326016 -5 -2.597899 -4.473168 -3.535534 -3.535534 
C -4.473168 -2.597899 -5 -1.326016 -5 0 
C -5 1.326016 -4.473168 2.597899 -3.535534 3.535534 
C -2.597899 4.473168 -1.326016 5 0 5 
z
" style="stroke: #000000"/>
    </defs>
    <g clip-path="url(#pe4a605943d)">
     <use xlink:href="#med68ced4b4" x="515.933726" y="105.79159" style="fill: #cb4149; stroke: #000000"/>
    </g>
   </g>
   <g id="PathCollection_12">
    <defs>
     <path id="m57936ddc2a" d="M 0 5 
C 1.326016 5 2.597899 4.473168 3.535534 3.535534 
C 4.473168 2.597899 5 1.326016 5 0 
C 5 -1.326016 4.473168 -2.597899 3.535534 -3.535534 
C 2.597899 -4.473168 1.326016 -5 0 -5 
C -1.326016 -5 -2.597899 -4.473168 -3.535534 -3.535534 
C -4.473168 -2.597899 -5 -1.326016 -5 0 
C -5 1.326016 -4.473168 2.597899 -3.535534 3.535534 
C -2.597899 4.473168 -1.326016 5 0 5 
z
" style="stroke: #000000"/>
    </defs>
    <g clip-path="url(#pe4a605943d)">
     <use xlink:href="#m57936ddc2a" x="495.080612" y="126.314588" style="fill: #e65d2f; stroke: #000000"/>
    </g>
   </g>
   <g id="PathCollection_13">
    <defs>
     <path id="me494e146ae" d="M 0 5 
C 1.326016 5 2.597899 4.473168 3.535534 3.535534 
C 4.473168 2.597899 5 1.326016 5 0 
C 5 -1.326016 4.473168 -2.597899 3.535534 -3.535534 
C 2.597899 -4.473168 1.326016 -5 0 -5 
C -1.326016 -5 -2.597899 -4.473168 -3.535534 -3.535534 
C -4.473168 -2.597899 -5 -1.326016 -5 0 
C -5 1.326016 -4.473168 2.597899 -3.535534 3.535534 
C -2.597899 4.473168 -1.326016 5 0 5 
z
" style="stroke: #000000"/>
    </defs>
    <g clip-path="url(#pe4a605943d)">
     <use xlink:href="#me494e146ae" x="475.495375" y="148.716992" style="fill: #f78410; stroke: #000000"/>
    </g>
   </g>
   <g id="PathCollection_14">
    <defs>
     <path id="m869aca6fd3" d="M 0 5 
C 1.326016 5 2.597899 4.473168 3.535534 3.535534 
C 4.473168 2.597899 5 1.326016 5 0 
C 5 -1.326016 4.473168 -2.597899 3.535534 -3.535534 
C 2.597899 -4.473168 1.326016 -5 0 -5 
C -1.326016 -5 -2.597899 -4.473168 -3.535534 -3.535534 
C -4.473168 -2.597899 -5 -1.326016 -5 0 
C -5 1.326016 -4.473168 2.597899 -3.535534 3.535534 
C -2.597899 4.473168 -1.326016 5 0 5 
z
" style="stroke: #000000"/>
    </defs>
    <g clip-path="url(#pe4a605943d)">
     <use xlink:href="#m869aca6fd3" x="458.128195" y="169.758883" style="fill: #fcae12; stroke: #000000"/>
    </g>
   </g>
   <g id="PathCollection_15">
    <defs>
     <path id="mdc6d38d203" d="M 0 5 
C 1.326016 5 2.597899 4.473168 3.535534 3.535534 
C 4.473168 2.597899 5 1.326016 5 0 
C 5 -1.326016 4.473168 -2.597899 3.535534 -3.535534 
C 2.597899 -4.473168 1.326016 -5 0 -5 
C -1.326016 -5 -2.597899 -4.473168 -3.535534 -3.535534 
C -4.473168 -2.597899 -5 -1.326016 -5 0 
C -5 1.326016 -4.473168 2.597899 -3.535534 3.535534 
C -2.597899 4.473168 -1.326016 5 0 5 
z
" style="stroke: #000000"/>
    </defs>
    <g clip-path="url(#pe4a605943d)">
     <use xlink:href="#mdc6d38d203" x="454.318722" y="174.46619" style="fill: #f5db4c; stroke: #000000"/>
    </g>
   </g>
   <g id="PathCollection_16">
    <defs>
     <path id="mf049e673de" d="M 0 5 
C 1.326016 5 2.597899 4.473168 3.535534 3.535534 
C 4.473168 2.597899 5 1.326016 5 0 
C 5 -1.326016 4.473168 -2.597899 3.535534 -3.535534 
C 2.597899 -4.473168 1.326016 -5 0 -5 
C -1.326016 -5 -2.597899 -4.473168 -3.535534 -3.535534 
C -4.473168 -2.597899 -5 -1.326016 -5 0 
C -5 1.326016 -4.473168 2.597899 -3.535534 3.535534 
C -2.597899 4.473168 -1.326016 5 0 5 
z
" style="stroke: #000000"/>
    </defs>
    <g clip-path="url(#pe4a605943d)">
     <use xlink:href="#mf049e673de" x="454.32281" y="174.4585" style="fill: #fcffa4; stroke: #000000"/>
    </g>
   </g>
   <g id="matplotlib.axis_7">
    <g id="xtick_9">
     <g id="line2d_31">
      <path d="M 454.32281 174.4585 
L 454.32281 19.836 
" clip-path="url(#pe4a605943d)" style="fill: none; stroke-dasharray: 1.85,0.8; stroke-dashoffset: 0; stroke: #b0b0b0; stroke-width: 0.5"/>
     </g>
     <g id="line2d_32">
      <g>
       <use xlink:href="#mb90c816b48" x="454.32281" y="174.4585" style="stroke: #000000; stroke-width: 0.8"/>
      </g>
     </g>
     <g id="text_35">
      <!-- 0.0 -->
      <g transform="translate(446.82281 189.791) scale(0.12 -0.12)">
       <use xlink:href="#TimesNewRomanPSMT-30"/>
       <use xlink:href="#TimesNewRomanPSMT-2e" x="50"/>
       <use xlink:href="#TimesNewRomanPSMT-30" x="75"/>
      </g>
     </g>
    </g>
    <g id="xtick_10">
     <g id="line2d_33">
      <path d="M 512.723443 174.4585 
L 512.723443 19.836 
" clip-path="url(#pe4a605943d)" style="fill: none; stroke-dasharray: 1.85,0.8; stroke-dashoffset: 0; stroke: #b0b0b0; stroke-width: 0.5"/>
     </g>
     <g id="line2d_34">
      <g>
       <use xlink:href="#mb90c816b48" x="512.723443" y="174.4585" style="stroke: #000000; stroke-width: 0.8"/>
      </g>
     </g>
     <g id="text_36">
      <!-- 0.1 -->
      <g transform="translate(505.223443 189.791) scale(0.12 -0.12)">
       <use xlink:href="#TimesNewRomanPSMT-30"/>
       <use xlink:href="#TimesNewRomanPSMT-2e" x="50"/>
       <use xlink:href="#TimesNewRomanPSMT-31" x="75"/>
      </g>
     </g>
    </g>
    <g id="xtick_11">
     <g id="line2d_35">
      <path d="M 571.124076 174.4585 
L 571.124076 19.836 
" clip-path="url(#pe4a605943d)" style="fill: none; stroke-dasharray: 1.85,0.8; stroke-dashoffset: 0; stroke: #b0b0b0; stroke-width: 0.5"/>
     </g>
     <g id="line2d_36">
      <g>
       <use xlink:href="#mb90c816b48" x="571.124076" y="174.4585" style="stroke: #000000; stroke-width: 0.8"/>
      </g>
     </g>
     <g id="text_37">
      <!-- 0.2 -->
      <g transform="translate(563.624076 189.791) scale(0.12 -0.12)">
       <use xlink:href="#TimesNewRomanPSMT-30"/>
       <use xlink:href="#TimesNewRomanPSMT-2e" x="50"/>
       <use xlink:href="#TimesNewRomanPSMT-32" x="75"/>
      </g>
     </g>
    </g>
    <g id="text_38">
     <!-- $\langle 2 D \Delta T \rangle$ -->
     <g transform="translate(505.550759 204.690375) scale(0.12 -0.12)">
      <defs>
       <path id="DejaVuSans-27e8" d="M 572 2006 
L 1453 4856 
L 1984 4856 
L 1103 2006 
L 1984 -844 
L 1453 -844 
L 572 2006 
z
" transform="scale(0.015625)"/>
       <path id="DejaVuSans-Oblique-44" d="M 1081 4666 
L 2438 4666 
Q 3519 4666 4070 4208 
Q 4622 3750 4622 2847 
Q 4622 2250 4412 1698 
Q 4203 1147 3834 769 
Q 3463 381 2891 190 
Q 2319 0 1538 0 
L 172 0 
L 1081 4666 
z
M 1613 4147 
L 909 519 
L 1734 519 
Q 2794 519 3375 1128 
Q 3956 1738 3956 2847 
Q 3956 3519 3581 3833 
Q 3206 4147 2406 4147 
L 1613 4147 
z
" transform="scale(0.015625)"/>
       <path id="DejaVuSans-27e9" d="M 1925 2006 
L 1044 -844 
L 513 -844 
L 1394 2006 
L 513 4856 
L 1044 4856 
L 1925 2006 
z
" transform="scale(0.015625)"/>
      </defs>
      <use xlink:href="#DejaVuSans-27e8" transform="translate(0 0.125)"/>
      <use xlink:href="#DejaVuSans-32" transform="translate(39.013672 0.125)"/>
      <use xlink:href="#DejaVuSans-Oblique-44" transform="translate(102.636719 0.125)"/>
      <use xlink:href="#DejaVuSans-394" transform="translate(179.638672 0.125)"/>
      <use xlink:href="#DejaVuSans-Oblique-54" transform="translate(248.046875 0.125)"/>
      <use xlink:href="#DejaVuSans-27e9" transform="translate(309.130859 0.125)"/>
     </g>
    </g>
   </g>
   <g id="matplotlib.axis_8">
    <g id="ytick_9">
     <g id="line2d_37">
      <path d="M 447.101518 174.4585 
L 605.88 174.4585 
" clip-path="url(#pe4a605943d)" style="fill: none; stroke-dasharray: 1.85,0.8; stroke-dashoffset: 0; stroke: #b0b0b0; stroke-width: 0.5"/>
     </g>
     <g id="line2d_38">
      <g>
       <use xlink:href="#m676a87d0f1" x="447.101518" y="174.4585" style="stroke: #000000; stroke-width: 0.8"/>
      </g>
     </g>
     <g id="text_39">
      <!-- 0.00 -->
      <g transform="translate(419.101518 178.62475) scale(0.12 -0.12)">
       <use xlink:href="#TimesNewRomanPSMT-30"/>
       <use xlink:href="#TimesNewRomanPSMT-2e" x="50"/>
       <use xlink:href="#TimesNewRomanPSMT-30" x="75"/>
       <use xlink:href="#TimesNewRomanPSMT-30" x="125"/>
      </g>
     </g>
    </g>
    <g id="ytick_10">
     <g id="line2d_39">
      <path d="M 447.101518 143.534 
L 605.88 143.534 
" clip-path="url(#pe4a605943d)" style="fill: none; stroke-dasharray: 1.85,0.8; stroke-dashoffset: 0; stroke: #b0b0b0; stroke-width: 0.5"/>
     </g>
     <g id="line2d_40">
      <g>
       <use xlink:href="#m676a87d0f1" x="447.101518" y="143.534" style="stroke: #000000; stroke-width: 0.8"/>
      </g>
     </g>
     <g id="text_40">
      <!-- 0.05 -->
      <g transform="translate(419.101518 147.70025) scale(0.12 -0.12)">
       <use xlink:href="#TimesNewRomanPSMT-30"/>
       <use xlink:href="#TimesNewRomanPSMT-2e" x="50"/>
       <use xlink:href="#TimesNewRomanPSMT-30" x="75"/>
       <use xlink:href="#TimesNewRomanPSMT-35" x="125"/>
      </g>
     </g>
    </g>
    <g id="ytick_11">
     <g id="line2d_41">
      <path d="M 447.101518 112.6095 
L 605.88 112.6095 
" clip-path="url(#pe4a605943d)" style="fill: none; stroke-dasharray: 1.85,0.8; stroke-dashoffset: 0; stroke: #b0b0b0; stroke-width: 0.5"/>
     </g>
     <g id="line2d_42">
      <g>
       <use xlink:href="#m676a87d0f1" x="447.101518" y="112.6095" style="stroke: #000000; stroke-width: 0.8"/>
      </g>
     </g>
     <g id="text_41">
      <!-- 0.10 -->
      <g transform="translate(419.101518 116.77575) scale(0.12 -0.12)">
       <use xlink:href="#TimesNewRomanPSMT-30"/>
       <use xlink:href="#TimesNewRomanPSMT-2e" x="50"/>
       <use xlink:href="#TimesNewRomanPSMT-31" x="75"/>
       <use xlink:href="#TimesNewRomanPSMT-30" x="125"/>
      </g>
     </g>
    </g>
    <g id="ytick_12">
     <g id="line2d_43">
      <path d="M 447.101518 81.685 
L 605.88 81.685 
" clip-path="url(#pe4a605943d)" style="fill: none; stroke-dasharray: 1.85,0.8; stroke-dashoffset: 0; stroke: #b0b0b0; stroke-width: 0.5"/>
     </g>
     <g id="line2d_44">
      <g>
       <use xlink:href="#m676a87d0f1" x="447.101518" y="81.685" style="stroke: #000000; stroke-width: 0.8"/>
      </g>
     </g>
     <g id="text_42">
      <!-- 0.15 -->
      <g transform="translate(419.101518 85.85125) scale(0.12 -0.12)">
       <use xlink:href="#TimesNewRomanPSMT-30"/>
       <use xlink:href="#TimesNewRomanPSMT-2e" x="50"/>
       <use xlink:href="#TimesNewRomanPSMT-31" x="75"/>
       <use xlink:href="#TimesNewRomanPSMT-35" x="125"/>
      </g>
     </g>
    </g>
    <g id="ytick_13">
     <g id="line2d_45">
      <path d="M 447.101518 50.7605 
L 605.88 50.7605 
" clip-path="url(#pe4a605943d)" style="fill: none; stroke-dasharray: 1.85,0.8; stroke-dashoffset: 0; stroke: #b0b0b0; stroke-width: 0.5"/>
     </g>
     <g id="line2d_46">
      <g>
       <use xlink:href="#m676a87d0f1" x="447.101518" y="50.7605" style="stroke: #000000; stroke-width: 0.8"/>
      </g>
     </g>
     <g id="text_43">
      <!-- 0.20 -->
      <g transform="translate(419.101518 54.92675) scale(0.12 -0.12)">
       <use xlink:href="#TimesNewRomanPSMT-30"/>
       <use xlink:href="#TimesNewRomanPSMT-2e" x="50"/>
       <use xlink:href="#TimesNewRomanPSMT-32" x="75"/>
       <use xlink:href="#TimesNewRomanPSMT-30" x="125"/>
      </g>
     </g>
    </g>
    <g id="ytick_14">
     <g id="line2d_47">
      <path d="M 447.101518 19.836 
L 605.88 19.836 
" clip-path="url(#pe4a605943d)" style="fill: none; stroke-dasharray: 1.85,0.8; stroke-dashoffset: 0; stroke: #b0b0b0; stroke-width: 0.5"/>
     </g>
     <g id="line2d_48">
      <g>
       <use xlink:href="#m676a87d0f1" x="447.101518" y="19.836" style="stroke: #000000; stroke-width: 0.8"/>
      </g>
     </g>
     <g id="text_44">
      <!-- 0.25 -->
      <g transform="translate(419.101518 24.00225) scale(0.12 -0.12)">
       <use xlink:href="#TimesNewRomanPSMT-30"/>
       <use xlink:href="#TimesNewRomanPSMT-2e" x="50"/>
       <use xlink:href="#TimesNewRomanPSMT-32" x="75"/>
       <use xlink:href="#TimesNewRomanPSMT-35" x="125"/>
      </g>
     </g>
    </g>
    <g id="text_45">
     <!-- $\langle V_2(T_2)  - V_1(T_1) \rangle$ -->
     <g transform="translate(412.534643 145.44725) rotate(-90) scale(0.12 -0.12)">
      <defs>
       <path id="DejaVuSans-Oblique-56" d="M 1319 0 
L 500 4666 
L 1119 4666 
L 1797 653 
L 4063 4666 
L 4750 4666 
L 2053 0 
L 1319 0 
z
" transform="scale(0.015625)"/>
      </defs>
      <use xlink:href="#DejaVuSans-27e8" transform="translate(0 0.125)"/>
      <use xlink:href="#DejaVuSans-Oblique-56" transform="translate(39.013672 0.125)"/>
      <use xlink:href="#DejaVuSans-32" transform="translate(107.421875 -16.28125) scale(0.7)"/>
      <use xlink:href="#DejaVuSans-28" transform="translate(154.692383 0.125)"/>
      <use xlink:href="#DejaVuSans-Oblique-54" transform="translate(193.706055 0.125)"/>
      <use xlink:href="#DejaVuSans-32" transform="translate(254.790039 -16.28125) scale(0.7)"/>
      <use xlink:href="#DejaVuSans-29" transform="translate(302.060547 0.125)"/>
      <use xlink:href="#DejaVuSans-2212" transform="translate(360.556641 0.125)"/>
      <use xlink:href="#DejaVuSans-Oblique-56" transform="translate(463.828125 0.125)"/>
      <use xlink:href="#DejaVuSans-31" transform="translate(532.236328 -16.28125) scale(0.7)"/>
      <use xlink:href="#DejaVuSans-28" transform="translate(579.506836 0.125)"/>
      <use xlink:href="#DejaVuSans-Oblique-54" transform="translate(618.520508 0.125)"/>
      <use xlink:href="#DejaVuSans-31" transform="translate(679.604492 -16.28125) scale(0.7)"/>
      <use xlink:href="#DejaVuSans-29" transform="translate(726.875 0.125)"/>
      <use xlink:href="#DejaVuSans-27e9" transform="translate(765.888672 0.125)"/>
     </g>
    </g>
   </g>
   <g id="line2d_49">
    <path d="M 454.32281 174.4585 
L 516.655948 108.588962 
L 523.104204 102.095684 
L 526.686568 98.754287 
L 529.552459 96.370169 
L 531.701878 94.863665 
L 533.134824 94.056204 
L 534.567769 93.461701 
L 536.000715 93.143683 
L 537.433661 93.184542 
L 538.150134 93.371797 
L 538.866606 93.691113 
L 539.583079 94.160846 
L 540.299552 94.801897 
L 541.016025 95.638057 
L 541.732498 96.696411 
L 542.448971 98.007791 
L 543.165443 99.60729 
L 543.881916 101.534854 
L 544.598389 103.835945 
L 545.314862 106.562309 
L 546.031335 109.77283 
L 546.747808 113.534523 
L 547.464281 117.923647 
L 548.180753 123.026979 
L 548.897226 128.943259 
L 550.330172 143.679537 
L 551.763118 163.230066 
L 553.196063 189.015459 
L 554.396137 217 
L 554.396137 217 
" clip-path="url(#pe4a605943d)" style="fill: none; stroke: #1f77b4; stroke-width: 1.5; stroke-linecap: square"/>
   </g>
   <g id="line2d_50">
    <path d="M 581.718172 217 
L 579.187487 171.220795 
L 572.695724 114.612848 
L 566.203972 89.145864 
L 559.712246 79.587727 
L 553.220572 78.137575 
L 546.729011 80.808784 
L 540.237694 85.568671 
L 533.746893 91.383327 
L 527.257179 97.728024 
L 520.769738 104.336585 
L 514.287003 111.073017 
L 507.813885 117.865208 
L 501.36012 124.669453 
L 494.944536 131.44925 
L 488.602354 138.159145 
L 482.396557 144.728444 
L 476.43285 151.043223 
L 470.873129 156.930967 
L 465.933695 162.162031 
L 461.846954 166.49008 
L 458.777025 169.741278 
L 456.726859 171.9125 
L 455.518795 173.191896 
L 454.883003 173.865229 
L 454.575628 174.190753 
L 454.43479 174.339908 
L 454.372268 174.406121 
" clip-path="url(#pe4a605943d)" style="fill: none; stroke: #ff7f0e; stroke-width: 1.5; stroke-linecap: square"/>
   </g>
   <g id="line2d_51">
    <path d="M 454.32281 174.4585 
L 596.900907 23.461631 
" clip-path="url(#pe4a605943d)" style="fill: none; stroke-dasharray: 5.55,2.4; stroke-dashoffset: 0; stroke: #000000; stroke-width: 1.5"/>
   </g>
   <g id="patch_19">
    <path d="M 447.101518 174.4585 
L 447.101518 19.836 
" style="fill: none; stroke: #000000; stroke-width: 0.8; stroke-linejoin: miter; stroke-linecap: square"/>
   </g>
   <g id="patch_20">
    <path d="M 605.88 174.4585 
L 605.88 19.836 
" style="fill: none; stroke: #000000; stroke-width: 0.8; stroke-linejoin: miter; stroke-linecap: square"/>
   </g>
   <g id="patch_21">
    <path d="M 447.101518 174.4585 
L 605.88 174.4585 
" style="fill: none; stroke: #000000; stroke-width: 0.8; stroke-linejoin: miter; stroke-linecap: square"/>
   </g>
   <g id="patch_22">
    <path d="M 447.101518 19.836 
L 605.88 19.836 
" style="fill: none; stroke: #000000; stroke-width: 0.8; stroke-linejoin: miter; stroke-linecap: square"/>
   </g>
   <g id="text_46">
    <!-- (c) -->
    <g transform="translate(443.925949 9.538) scale(0.12 -0.12)">
     <use xlink:href="#TimesNewRomanPSMT-28"/>
     <use xlink:href="#TimesNewRomanPSMT-63" x="33.300781"/>
     <use xlink:href="#TimesNewRomanPSMT-29" x="77.685547"/>
    </g>
   </g>
   <g id="legend_4">
    <g id="patch_23">
     <path d="M 461.835 65.262094 
L 599.58 65.262094 
Q 601.38 65.262094 601.38 63.462094 
L 601.38 26.136 
Q 601.38 24.336 599.58 24.336 
L 461.835 24.336 
Q 460.035 24.336 460.035 26.136 
L 460.035 63.462094 
Q 460.035 65.262094 461.835 65.262094 
z
" style="fill: #ffffff; opacity: 0.8; stroke: #cccccc; stroke-linejoin: miter"/>
    </g>
    <g id="line2d_52">
     <path d="M 463.635 31.086 
L 472.635 31.086 
L 481.635 31.086 
" style="fill: none; stroke: #1f77b4; stroke-width: 1.5; stroke-linecap: square"/>
    </g>
    <g id="text_47">
     <!-- analytic expression eq 41 -->
     <g transform="translate(488.835 34.236) scale(0.09 -0.09)">
      <defs>
       <path id="TimesNewRomanPSMT-78" d="M 84 2863 
L 1431 2863 
L 1431 2747 
Q 1303 2747 1251 2703 
Q 1200 2659 1200 2588 
Q 1200 2513 1309 2356 
Q 1344 2306 1413 2200 
L 1616 1875 
L 1850 2200 
Q 2075 2509 2075 2591 
Q 2075 2656 2022 2701 
Q 1969 2747 1850 2747 
L 1850 2863 
L 2819 2863 
L 2819 2747 
Q 2666 2738 2553 2663 
Q 2400 2556 2134 2200 
L 1744 1678 
L 2456 653 
Q 2719 275 2831 198 
Q 2944 122 3122 113 
L 3122 0 
L 1772 0 
L 1772 113 
Q 1913 113 1991 175 
Q 2050 219 2050 291 
Q 2050 363 1850 653 
L 1431 1266 
L 972 653 
Q 759 369 759 316 
Q 759 241 829 180 
Q 900 119 1041 113 
L 1041 0 
L 106 0 
L 106 113 
Q 219 128 303 191 
Q 422 281 703 653 
L 1303 1450 
L 759 2238 
Q 528 2575 401 2661 
Q 275 2747 84 2747 
L 84 2863 
z
" transform="scale(0.015625)"/>
       <path id="TimesNewRomanPSMT-71" d="M 2734 2947 
L 2734 -734 
Q 2734 -1009 2771 -1087 
Q 2809 -1166 2889 -1209 
Q 2969 -1253 3200 -1253 
L 3200 -1369 
L 1756 -1369 
L 1756 -1253 
L 1816 -1253 
Q 1991 -1253 2081 -1203 
Q 2144 -1169 2181 -1080 
Q 2219 -991 2219 -734 
L 2219 497 
Q 1934 159 1721 35 
Q 1509 -88 1281 -88 
Q 866 -88 539 290 
Q 213 669 213 1303 
Q 213 2031 644 2489 
Q 1075 2947 1684 2947 
Q 1863 2947 2013 2897 
Q 2163 2847 2281 2747 
Q 2463 2834 2628 2947 
L 2734 2947 
z
M 2219 694 
L 2219 2038 
Q 2219 2272 2158 2406 
Q 2097 2541 1940 2634 
Q 1784 2728 1588 2728 
Q 1238 2728 988 2431 
Q 738 2134 738 1531 
Q 738 953 992 653 
Q 1247 353 1606 353 
Q 1791 353 1934 433 
Q 2078 513 2219 694 
z
" transform="scale(0.015625)"/>
      </defs>
      <use xlink:href="#TimesNewRomanPSMT-61"/>
      <use xlink:href="#TimesNewRomanPSMT-6e" x="44.384766"/>
      <use xlink:href="#TimesNewRomanPSMT-61" x="94.384766"/>
      <use xlink:href="#TimesNewRomanPSMT-6c" x="138.769531"/>
      <use xlink:href="#TimesNewRomanPSMT-79" x="166.552734"/>
      <use xlink:href="#TimesNewRomanPSMT-74" x="216.552734"/>
      <use xlink:href="#TimesNewRomanPSMT-69" x="244.335938"/>
      <use xlink:href="#TimesNewRomanPSMT-63" x="272.119141"/>
      <use xlink:href="#TimesNewRomanPSMT-20" x="316.503906"/>
      <use xlink:href="#TimesNewRomanPSMT-65" x="341.503906"/>
      <use xlink:href="#TimesNewRomanPSMT-78" x="385.888672"/>
      <use xlink:href="#TimesNewRomanPSMT-70" x="435.888672"/>
      <use xlink:href="#TimesNewRomanPSMT-72" x="485.888672"/>
      <use xlink:href="#TimesNewRomanPSMT-65" x="519.189453"/>
      <use xlink:href="#TimesNewRomanPSMT-73" x="563.574219"/>
      <use xlink:href="#TimesNewRomanPSMT-73" x="602.490234"/>
      <use xlink:href="#TimesNewRomanPSMT-69" x="641.40625"/>
      <use xlink:href="#TimesNewRomanPSMT-6f" x="669.189453"/>
      <use xlink:href="#TimesNewRomanPSMT-6e" x="719.189453"/>
      <use xlink:href="#TimesNewRomanPSMT-20" x="769.189453"/>
      <use xlink:href="#TimesNewRomanPSMT-65" x="794.189453"/>
      <use xlink:href="#TimesNewRomanPSMT-71" x="838.574219"/>
      <use xlink:href="#TimesNewRomanPSMT-20" x="888.574219"/>
      <use xlink:href="#TimesNewRomanPSMT-34" x="913.574219"/>
      <use xlink:href="#TimesNewRomanPSMT-31" x="963.574219"/>
     </g>
    </g>
    <g id="line2d_53">
     <path d="M 463.635 43.828031 
L 472.635 43.828031 
L 481.635 43.828031 
" style="fill: none; stroke: #ff7f0e; stroke-width: 1.5; stroke-linecap: square"/>
    </g>
    <g id="text_48">
     <!-- numerically evaluate averages -->
     <g transform="translate(488.835 46.978031) scale(0.09 -0.09)">
      <defs>
       <path id="TimesNewRomanPSMT-76" d="M 53 2863 
L 1400 2863 
L 1400 2747 
L 1313 2747 
Q 1191 2747 1127 2687 
Q 1063 2628 1063 2528 
Q 1063 2419 1128 2269 
L 1794 688 
L 2463 2328 
Q 2534 2503 2534 2594 
Q 2534 2638 2509 2666 
Q 2475 2713 2422 2730 
Q 2369 2747 2206 2747 
L 2206 2863 
L 3141 2863 
L 3141 2747 
Q 2978 2734 2916 2681 
Q 2806 2588 2719 2369 
L 1703 -88 
L 1575 -88 
L 553 2328 
Q 484 2497 421 2570 
Q 359 2644 263 2694 
Q 209 2722 53 2747 
L 53 2863 
z
" transform="scale(0.015625)"/>
      </defs>
      <use xlink:href="#TimesNewRomanPSMT-6e"/>
      <use xlink:href="#TimesNewRomanPSMT-75" x="50"/>
      <use xlink:href="#TimesNewRomanPSMT-6d" x="100"/>
      <use xlink:href="#TimesNewRomanPSMT-65" x="177.783203"/>
      <use xlink:href="#TimesNewRomanPSMT-72" x="222.167969"/>
      <use xlink:href="#TimesNewRomanPSMT-69" x="255.46875"/>
      <use xlink:href="#TimesNewRomanPSMT-63" x="283.251953"/>
      <use xlink:href="#TimesNewRomanPSMT-61" x="327.636719"/>
      <use xlink:href="#TimesNewRomanPSMT-6c" x="372.021484"/>
      <use xlink:href="#TimesNewRomanPSMT-6c" x="399.804688"/>
      <use xlink:href="#TimesNewRomanPSMT-79" x="427.587891"/>
      <use xlink:href="#TimesNewRomanPSMT-20" x="477.587891"/>
      <use xlink:href="#TimesNewRomanPSMT-65" x="502.587891"/>
      <use xlink:href="#TimesNewRomanPSMT-76" x="546.972656"/>
      <use xlink:href="#TimesNewRomanPSMT-61" x="596.972656"/>
      <use xlink:href="#TimesNewRomanPSMT-6c" x="641.357422"/>
      <use xlink:href="#TimesNewRomanPSMT-75" x="669.140625"/>
      <use xlink:href="#TimesNewRomanPSMT-61" x="719.140625"/>
      <use xlink:href="#TimesNewRomanPSMT-74" x="763.525391"/>
      <use xlink:href="#TimesNewRomanPSMT-65" x="791.308594"/>
      <use xlink:href="#TimesNewRomanPSMT-20" x="835.693359"/>
      <use xlink:href="#TimesNewRomanPSMT-61" x="860.693359"/>
      <use xlink:href="#TimesNewRomanPSMT-76" x="905.078125"/>
      <use xlink:href="#TimesNewRomanPSMT-65" x="955.078125"/>
      <use xlink:href="#TimesNewRomanPSMT-72" x="999.462891"/>
      <use xlink:href="#TimesNewRomanPSMT-61" x="1032.763672"/>
      <use xlink:href="#TimesNewRomanPSMT-67" x="1077.148438"/>
      <use xlink:href="#TimesNewRomanPSMT-65" x="1127.148438"/>
      <use xlink:href="#TimesNewRomanPSMT-73" x="1171.533203"/>
     </g>
    </g>
    <g id="line2d_54">
     <path d="M 463.635 56.570063 
L 472.635 56.570063 
L 481.635 56.570063 
" style="fill: none; stroke-dasharray: 5.55,2.4; stroke-dashoffset: 0; stroke: #000000; stroke-width: 1.5"/>
    </g>
    <g id="text_49">
     <!-- y = x -->
     <g transform="translate(488.835 59.720063) scale(0.09 -0.09)">
      <defs>
       <path id="TimesNewRomanPSMT-3d" d="M 116 2759 
L 3488 2759 
L 3488 2503 
L 116 2503 
L 116 2759 
z
M 116 1741 
L 3488 1741 
L 3488 1484 
L 116 1484 
L 116 1741 
z
" transform="scale(0.015625)"/>
      </defs>
      <use xlink:href="#TimesNewRomanPSMT-79"/>
      <use xlink:href="#TimesNewRomanPSMT-20" x="50"/>
      <use xlink:href="#TimesNewRomanPSMT-3d" x="75"/>
      <use xlink:href="#TimesNewRomanPSMT-20" x="131.396484"/>
      <use xlink:href="#TimesNewRomanPSMT-78" x="156.396484"/>
     </g>
    </g>
   </g>
  </g>
 </g>
 <defs>
  <clipPath id="pd383068ca1">
   <rect x="37.46" y="19.836" width="158.778482" height="154.6225"/>
  </clipPath>
  <clipPath id="pdb198c90da">
   <rect x="242.280759" y="19.836" width="158.778482" height="154.6225"/>
  </clipPath>
  <clipPath id="pc0f467b529">
   <rect x="250.219683" y="100.2397" width="127.022785" height="69.580125"/>
  </clipPath>
  <clipPath id="pe4a605943d">
   <rect x="447.101518" y="19.836" width="158.778482" height="154.6225"/>
  </clipPath>
 </defs>
</svg>
